G04 Layer_Color=32896*
%FSLAX25Y25*%
%MOIN*%
G70*
G01*
G75*
%ADD12C,0.01575*%
%ADD13C,0.00787*%
%ADD14C,0.00984*%
G36*
X177580Y45810D02*
X179184D01*
Y45650D01*
X180147D01*
Y45490D01*
X180788D01*
Y45329D01*
X181430D01*
Y45169D01*
X181911D01*
Y45008D01*
X182393D01*
Y44848D01*
X182874D01*
Y44688D01*
X183355D01*
Y44527D01*
X183836D01*
Y44367D01*
X184157D01*
Y44206D01*
X184478D01*
Y44046D01*
X184959D01*
Y43885D01*
X185280D01*
Y43725D01*
X185441D01*
Y43565D01*
X185762D01*
Y43404D01*
X186082D01*
Y43244D01*
X186243D01*
Y43083D01*
X186564D01*
Y42923D01*
X186724D01*
Y42762D01*
X187045D01*
Y42602D01*
X187206D01*
Y42441D01*
X187366D01*
Y42281D01*
X187687D01*
Y42121D01*
X187847D01*
Y41960D01*
X188008D01*
Y41800D01*
X188168D01*
Y41639D01*
X188329D01*
Y41479D01*
X188649D01*
Y41318D01*
X188810D01*
Y41158D01*
X188970D01*
Y40998D01*
X189131D01*
Y40837D01*
X189291D01*
Y40677D01*
X189452D01*
Y40516D01*
X189612D01*
Y40356D01*
X189772D01*
Y40195D01*
Y40035D01*
X189933D01*
Y39875D01*
X190093D01*
Y39714D01*
X190254D01*
Y39554D01*
X190414D01*
Y39393D01*
X190575D01*
Y39233D01*
Y39072D01*
X190735D01*
Y38912D01*
X190895D01*
Y38752D01*
Y38591D01*
X191056D01*
Y38431D01*
X191216D01*
Y38270D01*
X191377D01*
Y38110D01*
Y37949D01*
X191537D01*
Y37789D01*
Y37628D01*
X191698D01*
Y37468D01*
Y37308D01*
X191858D01*
Y37147D01*
Y36987D01*
X192018D01*
Y36826D01*
Y36666D01*
X192179D01*
Y36505D01*
Y36345D01*
X192339D01*
Y36185D01*
Y36024D01*
X192500D01*
Y35864D01*
Y35703D01*
X192660D01*
Y35543D01*
Y35382D01*
Y35222D01*
X192821D01*
Y35062D01*
Y34901D01*
X192981D01*
Y34741D01*
Y34580D01*
Y34420D01*
X193141D01*
Y34259D01*
Y34099D01*
Y33939D01*
X193302D01*
Y33778D01*
Y33618D01*
Y33457D01*
Y33297D01*
X193462D01*
Y33136D01*
Y32976D01*
Y32816D01*
X193623D01*
Y32655D01*
Y32495D01*
Y32334D01*
Y32174D01*
Y32013D01*
X193783D01*
Y31853D01*
Y31692D01*
Y31532D01*
Y31372D01*
X193944D01*
Y31211D01*
Y31051D01*
Y30890D01*
Y30730D01*
Y30569D01*
X194104D01*
Y30409D01*
Y30249D01*
Y30088D01*
Y29928D01*
Y29767D01*
Y29607D01*
Y29446D01*
X194264D01*
Y29286D01*
Y29126D01*
Y28965D01*
Y28805D01*
Y28644D01*
Y28484D01*
Y28323D01*
Y28163D01*
X194425D01*
Y28003D01*
Y27842D01*
Y27682D01*
Y27521D01*
Y27361D01*
Y27200D01*
Y27040D01*
Y26880D01*
Y26719D01*
Y26559D01*
Y26398D01*
Y26238D01*
Y26077D01*
Y25917D01*
Y25756D01*
Y25596D01*
Y25436D01*
Y25275D01*
Y25115D01*
Y24954D01*
Y24794D01*
Y24633D01*
Y24473D01*
Y24313D01*
Y24152D01*
Y23992D01*
Y23831D01*
Y23671D01*
Y23510D01*
Y23350D01*
Y23190D01*
Y23029D01*
Y22869D01*
Y22708D01*
Y22548D01*
Y22387D01*
Y22227D01*
X194264D01*
Y22067D01*
Y21906D01*
Y21746D01*
Y21585D01*
Y21425D01*
Y21264D01*
Y21104D01*
Y20944D01*
Y20783D01*
X194104D01*
Y20623D01*
Y20462D01*
Y20302D01*
Y20141D01*
Y19981D01*
Y19820D01*
Y19660D01*
X193944D01*
Y19500D01*
Y19339D01*
Y19179D01*
Y19018D01*
Y18858D01*
Y18698D01*
X193783D01*
Y18537D01*
Y18377D01*
Y18216D01*
Y18056D01*
Y17895D01*
Y17735D01*
X193623D01*
Y17574D01*
Y17414D01*
Y17254D01*
Y17093D01*
Y16933D01*
Y16772D01*
X193462D01*
Y16612D01*
Y16452D01*
Y16291D01*
Y16131D01*
Y15970D01*
X193302D01*
Y15810D01*
Y15649D01*
Y15489D01*
Y15328D01*
Y15168D01*
X193141D01*
Y15008D01*
Y14847D01*
Y14687D01*
Y14526D01*
Y14366D01*
X192981D01*
Y14205D01*
Y14045D01*
Y13884D01*
Y13724D01*
X192821D01*
Y13564D01*
Y13403D01*
Y13243D01*
Y13082D01*
X192660D01*
Y12922D01*
Y12762D01*
Y12601D01*
Y12441D01*
X192500D01*
Y12280D01*
Y12120D01*
Y11959D01*
Y11799D01*
X192339D01*
Y11638D01*
Y11478D01*
Y11318D01*
X192179D01*
Y11157D01*
Y10997D01*
Y10836D01*
Y10676D01*
X192018D01*
Y10515D01*
Y10355D01*
Y10195D01*
Y10034D01*
X191858D01*
Y9874D01*
Y9713D01*
Y9553D01*
X191698D01*
Y9392D01*
Y9232D01*
Y9072D01*
Y8911D01*
X191537D01*
Y8751D01*
Y8590D01*
Y8430D01*
X191377D01*
Y8269D01*
Y8109D01*
Y7949D01*
X191216D01*
Y7788D01*
Y7628D01*
Y7467D01*
Y7307D01*
X191056D01*
Y7146D01*
Y6986D01*
Y6825D01*
X190895D01*
Y6665D01*
Y6505D01*
Y6344D01*
Y6184D01*
X190735D01*
Y6023D01*
Y5863D01*
Y5703D01*
X190575D01*
Y5542D01*
Y5382D01*
X189933D01*
Y5542D01*
X189291D01*
Y5703D01*
X188810D01*
Y5863D01*
Y6023D01*
Y6184D01*
Y6344D01*
Y6505D01*
Y6665D01*
Y6825D01*
Y6986D01*
X188970D01*
Y7146D01*
Y7307D01*
Y7467D01*
Y7628D01*
Y7788D01*
Y7949D01*
Y8109D01*
Y8269D01*
Y8430D01*
Y8590D01*
Y8751D01*
Y8911D01*
X189131D01*
Y9072D01*
Y9232D01*
Y9392D01*
Y9553D01*
Y9713D01*
Y9874D01*
Y10034D01*
Y10195D01*
Y10355D01*
Y10515D01*
Y10676D01*
Y10836D01*
Y10997D01*
Y11157D01*
Y11318D01*
Y11478D01*
Y11638D01*
Y11799D01*
Y11959D01*
Y12120D01*
Y12280D01*
Y12441D01*
Y12601D01*
Y12762D01*
Y12922D01*
Y13082D01*
Y13243D01*
Y13403D01*
X188970D01*
Y13564D01*
Y13724D01*
Y13884D01*
Y14045D01*
Y14205D01*
Y14366D01*
Y14526D01*
Y14687D01*
Y14847D01*
Y15008D01*
Y15168D01*
X188810D01*
Y15328D01*
Y15489D01*
Y15649D01*
Y15810D01*
Y15970D01*
Y16131D01*
Y16291D01*
Y16452D01*
Y16612D01*
Y16772D01*
X188649D01*
Y16933D01*
Y17093D01*
Y17254D01*
Y17414D01*
Y17574D01*
Y17735D01*
Y17895D01*
Y18056D01*
X188489D01*
Y18216D01*
Y18377D01*
Y18537D01*
Y18698D01*
Y18858D01*
Y19018D01*
Y19179D01*
X188329D01*
Y19339D01*
Y19500D01*
Y19660D01*
Y19820D01*
Y19981D01*
Y20141D01*
X188168D01*
Y20302D01*
Y20462D01*
Y20623D01*
Y20783D01*
Y20944D01*
X188008D01*
Y21104D01*
Y21264D01*
Y21425D01*
Y21585D01*
X187847D01*
Y21746D01*
Y21906D01*
Y22067D01*
Y22227D01*
X187687D01*
Y22387D01*
Y22548D01*
Y22708D01*
X187526D01*
Y22869D01*
Y23029D01*
X187366D01*
Y23190D01*
Y23350D01*
Y23510D01*
X187206D01*
Y23671D01*
Y23831D01*
X187045D01*
Y23992D01*
Y24152D01*
X186885D01*
Y24313D01*
Y24473D01*
X186724D01*
Y24633D01*
Y24794D01*
X186564D01*
Y24954D01*
X186403D01*
Y25115D01*
Y25275D01*
X186243D01*
Y25436D01*
Y25596D01*
X186082D01*
Y25756D01*
X185922D01*
Y25917D01*
X185762D01*
Y26077D01*
Y26238D01*
X185601D01*
Y26398D01*
X185441D01*
Y26559D01*
X185280D01*
Y26719D01*
Y26880D01*
X185120D01*
Y27040D01*
X184959D01*
Y27200D01*
X184799D01*
Y27361D01*
X184639D01*
Y27521D01*
X184478D01*
Y27682D01*
Y27842D01*
X184318D01*
Y28003D01*
X184157D01*
Y28163D01*
X183997D01*
Y28323D01*
X183836D01*
Y28484D01*
X183676D01*
Y28644D01*
X183516D01*
Y28805D01*
X183355D01*
Y28965D01*
X183034D01*
Y29126D01*
X182874D01*
Y29286D01*
X182713D01*
Y29446D01*
X182553D01*
Y29607D01*
X182393D01*
Y29767D01*
X182072D01*
Y29928D01*
X181911D01*
Y30088D01*
X181590D01*
Y30249D01*
X181430D01*
Y30409D01*
X181109D01*
Y30569D01*
X180788D01*
Y30730D01*
X180467D01*
Y30890D01*
X180147D01*
Y31051D01*
X179665D01*
Y31211D01*
X179184D01*
Y31372D01*
X178703D01*
Y31532D01*
X177900D01*
Y31692D01*
X176617D01*
Y31853D01*
X174371D01*
Y31692D01*
X173248D01*
Y31532D01*
X172606D01*
Y31372D01*
X172125D01*
Y31211D01*
X171644D01*
Y31051D01*
X171323D01*
Y30890D01*
X171002D01*
Y30730D01*
X170681D01*
Y30569D01*
X170521D01*
Y30409D01*
X170200D01*
Y30249D01*
X169879D01*
Y30088D01*
X169718D01*
Y29928D01*
X169397D01*
Y29767D01*
X169237D01*
Y29607D01*
X169077D01*
Y29446D01*
X168756D01*
Y29286D01*
X168595D01*
Y29126D01*
X168435D01*
Y28965D01*
X168274D01*
Y28805D01*
X168114D01*
Y28644D01*
X167954D01*
Y28484D01*
X167793D01*
Y28323D01*
Y28163D01*
X167633D01*
Y28003D01*
X167472D01*
Y27842D01*
X167312D01*
Y27682D01*
Y27521D01*
X167151D01*
Y27361D01*
X166991D01*
Y27200D01*
Y27040D01*
X166831D01*
Y26880D01*
Y26719D01*
X166670D01*
Y26559D01*
Y26398D01*
X166510D01*
Y26238D01*
Y26077D01*
X166349D01*
Y25917D01*
Y25756D01*
X166189D01*
Y25596D01*
Y25436D01*
Y25275D01*
X166028D01*
Y25115D01*
Y24954D01*
Y24794D01*
X165868D01*
Y24633D01*
Y24473D01*
Y24313D01*
Y24152D01*
X165708D01*
Y23992D01*
Y23831D01*
Y23671D01*
Y23510D01*
X165547D01*
Y23350D01*
Y23190D01*
Y23029D01*
Y22869D01*
Y22708D01*
X165387D01*
Y22548D01*
Y22387D01*
Y22227D01*
Y22067D01*
Y21906D01*
Y21746D01*
X165226D01*
Y21585D01*
Y21425D01*
Y21264D01*
Y21104D01*
Y20944D01*
Y20783D01*
Y20623D01*
X165066D01*
Y20462D01*
Y20302D01*
Y20141D01*
X169718D01*
Y19981D01*
X171002D01*
Y19820D01*
X171964D01*
Y19660D01*
X172767D01*
Y19500D01*
X173569D01*
Y19339D01*
X174050D01*
Y19179D01*
X174531D01*
Y19018D01*
X175013D01*
Y18858D01*
X175494D01*
Y18698D01*
X175815D01*
Y18537D01*
X176136D01*
Y18377D01*
X176456D01*
Y18216D01*
X176777D01*
Y18056D01*
X177098D01*
Y17895D01*
X177419D01*
Y17735D01*
X177580D01*
Y17574D01*
X177900D01*
Y17414D01*
X178061D01*
Y17254D01*
X178221D01*
Y17093D01*
X178382D01*
Y16933D01*
X178542D01*
Y16772D01*
X178703D01*
Y16612D01*
X178863D01*
Y16452D01*
X179024D01*
Y16291D01*
X179184D01*
Y16131D01*
Y15970D01*
X179344D01*
Y15810D01*
X179505D01*
Y15649D01*
Y15489D01*
X179665D01*
Y15328D01*
X179826D01*
Y15168D01*
Y15008D01*
X179986D01*
Y14847D01*
Y14687D01*
X180147D01*
Y14526D01*
Y14366D01*
X180307D01*
Y14205D01*
Y14045D01*
Y13884D01*
X180467D01*
Y13724D01*
Y13564D01*
Y13403D01*
X180628D01*
Y13243D01*
Y13082D01*
Y12922D01*
X180788D01*
Y12762D01*
Y12601D01*
Y12441D01*
X180949D01*
Y12280D01*
Y12120D01*
Y11959D01*
Y11799D01*
Y11638D01*
X181109D01*
Y11478D01*
Y11318D01*
Y11157D01*
Y10997D01*
Y10836D01*
Y10676D01*
Y10515D01*
Y10355D01*
Y10195D01*
Y10034D01*
Y9874D01*
Y9713D01*
Y9553D01*
Y9392D01*
Y9232D01*
Y9072D01*
Y8911D01*
Y8751D01*
Y8590D01*
Y8430D01*
X180949D01*
Y8269D01*
Y8109D01*
Y7949D01*
Y7788D01*
Y7628D01*
Y7467D01*
X180788D01*
Y7307D01*
Y7146D01*
Y6986D01*
Y6825D01*
X180628D01*
Y6665D01*
Y6505D01*
Y6344D01*
X180467D01*
Y6184D01*
Y6023D01*
Y5863D01*
X180307D01*
Y5703D01*
Y5542D01*
X180147D01*
Y5382D01*
Y5221D01*
X179986D01*
Y5061D01*
X179826D01*
Y4900D01*
Y4740D01*
X179665D01*
Y4580D01*
X179505D01*
Y4419D01*
X179344D01*
Y4259D01*
X179184D01*
Y4098D01*
Y3938D01*
X179024D01*
Y3777D01*
X178863D01*
Y3617D01*
X178542D01*
Y3457D01*
X178382D01*
Y3296D01*
X178221D01*
Y3136D01*
X177900D01*
Y2975D01*
X177580D01*
Y2815D01*
X177259D01*
Y2654D01*
X176777D01*
Y2494D01*
X176136D01*
Y2333D01*
X174852D01*
Y2173D01*
X174050D01*
Y2333D01*
X172767D01*
Y2494D01*
X171964D01*
Y2654D01*
X171323D01*
Y2815D01*
X170841D01*
Y2975D01*
X170521D01*
Y3136D01*
X170039D01*
Y3296D01*
X169718D01*
Y3457D01*
X169397D01*
Y3617D01*
X169077D01*
Y3777D01*
X168756D01*
Y3938D01*
X168595D01*
Y4098D01*
X168274D01*
Y4259D01*
X168114D01*
Y4419D01*
X167793D01*
Y4580D01*
X167633D01*
Y4740D01*
X167472D01*
Y4900D01*
X167312D01*
Y5061D01*
X167151D01*
Y5221D01*
X166991D01*
Y5382D01*
X166670D01*
Y5542D01*
X166510D01*
Y5703D01*
Y5863D01*
X166349D01*
Y6023D01*
X166189D01*
Y6184D01*
X166028D01*
Y6344D01*
X165868D01*
Y6505D01*
X165708D01*
Y6665D01*
Y6825D01*
X165547D01*
Y6986D01*
X165387D01*
Y7146D01*
X165226D01*
Y7307D01*
Y7467D01*
X165066D01*
Y7628D01*
Y7788D01*
X164905D01*
Y7949D01*
Y8109D01*
X164745D01*
Y8269D01*
Y8430D01*
X164585D01*
Y8590D01*
Y8751D01*
X164424D01*
Y8911D01*
Y9072D01*
Y9232D01*
X164264D01*
Y9392D01*
Y9553D01*
Y9713D01*
X164103D01*
Y9874D01*
Y10034D01*
Y10195D01*
Y10355D01*
X163943D01*
Y10515D01*
Y10676D01*
Y10836D01*
Y10997D01*
X163782D01*
Y11157D01*
Y11318D01*
X163622D01*
Y11157D01*
X163462D01*
Y10997D01*
X163301D01*
Y10836D01*
Y10676D01*
X163141D01*
Y10515D01*
Y10355D01*
X162980D01*
Y10195D01*
Y10034D01*
X162820D01*
Y9874D01*
X162659D01*
Y9713D01*
Y9553D01*
X162499D01*
Y9392D01*
X162338D01*
Y9232D01*
Y9072D01*
X162178D01*
Y8911D01*
X162018D01*
Y8751D01*
Y8590D01*
X161857D01*
Y8430D01*
X161697D01*
Y8269D01*
X161536D01*
Y8109D01*
Y7949D01*
X161376D01*
Y7788D01*
X161215D01*
Y7628D01*
X161055D01*
Y7467D01*
X160895D01*
Y7307D01*
X160734D01*
Y7146D01*
X160574D01*
Y6986D01*
X160413D01*
Y6825D01*
X160253D01*
Y6665D01*
X160092D01*
Y6505D01*
X159932D01*
Y6344D01*
X159611D01*
Y6184D01*
X159451D01*
Y6023D01*
X159290D01*
Y5863D01*
X158969D01*
Y5703D01*
X158809D01*
Y5542D01*
X158488D01*
Y5382D01*
X158328D01*
Y5221D01*
X158007D01*
Y5061D01*
X157686D01*
Y4900D01*
X157526D01*
Y4740D01*
X157205D01*
Y4580D01*
X156723D01*
Y4419D01*
X156242D01*
Y4259D01*
X155600D01*
Y4098D01*
X154477D01*
Y3938D01*
X152392D01*
Y4098D01*
X151429D01*
Y4259D01*
X150948D01*
Y4419D01*
X150467D01*
Y4580D01*
X149985D01*
Y4740D01*
X149504D01*
Y4900D01*
X149183D01*
Y5061D01*
X148702D01*
Y5221D01*
X148381D01*
Y5382D01*
X148060D01*
Y5542D01*
X147739D01*
Y5703D01*
X147579D01*
Y5863D01*
X147258D01*
Y6023D01*
X147098D01*
Y6184D01*
X146777D01*
Y6344D01*
X146616D01*
Y6505D01*
X146295D01*
Y6344D01*
X146135D01*
Y6184D01*
X145975D01*
Y6023D01*
X145814D01*
Y5863D01*
X145654D01*
Y5703D01*
X145333D01*
Y5542D01*
X145172D01*
Y5382D01*
X144851D01*
Y5221D01*
X144691D01*
Y5061D01*
X144210D01*
Y4900D01*
X143889D01*
Y4740D01*
X142926D01*
Y4580D01*
X142124D01*
Y4740D01*
X140680D01*
Y4900D01*
X140039D01*
Y5061D01*
X139557D01*
Y5221D01*
X139236D01*
Y5382D01*
X138916D01*
Y5542D01*
X138755D01*
Y5703D01*
X138434D01*
Y5863D01*
X138274D01*
Y6023D01*
X137953D01*
Y6184D01*
X137792D01*
Y6344D01*
X137632D01*
Y6505D01*
X137472D01*
Y6665D01*
X137151D01*
Y6825D01*
X136990D01*
Y6986D01*
X136830D01*
Y7146D01*
X136669D01*
Y7307D01*
X136509D01*
Y7467D01*
X136349D01*
Y7628D01*
Y7788D01*
X136188D01*
Y7949D01*
X136028D01*
Y8109D01*
X135867D01*
Y8269D01*
X135707D01*
Y8430D01*
X135546D01*
Y8590D01*
Y8751D01*
X135386D01*
Y8911D01*
X135225D01*
Y9072D01*
Y9232D01*
X135065D01*
Y9072D01*
Y8911D01*
X134905D01*
Y8751D01*
Y8590D01*
Y8430D01*
Y8269D01*
Y8109D01*
Y7949D01*
Y7788D01*
Y7628D01*
X134744D01*
Y7467D01*
Y7307D01*
Y7146D01*
Y6986D01*
X134584D01*
Y6825D01*
Y6665D01*
Y6505D01*
X134423D01*
Y6344D01*
Y6184D01*
X134263D01*
Y6023D01*
Y5863D01*
X134102D01*
Y5703D01*
Y5542D01*
X133942D01*
Y5382D01*
X133782D01*
Y5221D01*
X133621D01*
Y5061D01*
X133461D01*
Y4900D01*
X133300D01*
Y4740D01*
X133140D01*
Y4580D01*
X132819D01*
Y4419D01*
X132659D01*
Y4259D01*
X132498D01*
Y4098D01*
X132177D01*
Y3938D01*
X131856D01*
Y3777D01*
X131536D01*
Y3617D01*
X131215D01*
Y3457D01*
X130894D01*
Y3296D01*
X130413D01*
Y3136D01*
X129771D01*
Y2975D01*
X128166D01*
Y2815D01*
X128006D01*
Y2975D01*
X126562D01*
Y3136D01*
X125920D01*
Y3296D01*
X125279D01*
Y3457D01*
X124797D01*
Y3617D01*
X124477D01*
Y3777D01*
X123995D01*
Y3938D01*
X123674D01*
Y4098D01*
X123354D01*
Y4259D01*
X123033D01*
Y4419D01*
X122872D01*
Y4580D01*
X122551D01*
Y4740D01*
X122231D01*
Y4900D01*
X122070D01*
Y5061D01*
X121910D01*
Y5221D01*
X121589D01*
Y5382D01*
X121428D01*
Y5542D01*
X121268D01*
Y5703D01*
X121107D01*
Y5863D01*
X120947D01*
Y6023D01*
X120787D01*
Y6184D01*
Y6344D01*
X120626D01*
Y6505D01*
X120466D01*
Y6665D01*
X120305D01*
Y6825D01*
Y6986D01*
X120145D01*
Y7146D01*
X119984D01*
Y7307D01*
Y7467D01*
X119824D01*
Y7628D01*
Y7788D01*
X119664D01*
Y7949D01*
Y8109D01*
X119503D01*
Y8269D01*
X119343D01*
Y8430D01*
Y8590D01*
X119182D01*
Y8751D01*
Y8911D01*
Y9072D01*
X119022D01*
Y9232D01*
Y9392D01*
X118861D01*
Y9553D01*
Y9713D01*
X118701D01*
Y9874D01*
Y10034D01*
X118541D01*
Y10195D01*
Y10355D01*
Y10515D01*
X118380D01*
Y10676D01*
Y10836D01*
Y10997D01*
X118220D01*
Y11157D01*
Y11318D01*
Y11478D01*
X118059D01*
Y11638D01*
Y11799D01*
X117899D01*
Y11959D01*
X117738D01*
Y11799D01*
Y11638D01*
Y11478D01*
Y11318D01*
X117578D01*
Y11157D01*
Y10997D01*
Y10836D01*
X117418D01*
Y10676D01*
Y10515D01*
Y10355D01*
X117257D01*
Y10195D01*
Y10034D01*
Y9874D01*
X117097D01*
Y9713D01*
Y9553D01*
X116936D01*
Y9392D01*
Y9232D01*
X116776D01*
Y9072D01*
Y8911D01*
Y8751D01*
X116615D01*
Y8590D01*
Y8430D01*
X116455D01*
Y8269D01*
Y8109D01*
X116295D01*
Y7949D01*
Y7788D01*
X116134D01*
Y7628D01*
X115974D01*
Y7467D01*
Y7307D01*
X115813D01*
Y7146D01*
Y6986D01*
X115653D01*
Y6825D01*
X115492D01*
Y6665D01*
Y6505D01*
X115332D01*
Y6344D01*
X115172D01*
Y6184D01*
X115011D01*
Y6023D01*
Y5863D01*
X114851D01*
Y5703D01*
X114690D01*
Y5542D01*
X114530D01*
Y5382D01*
Y5221D01*
X114369D01*
Y5061D01*
X114209D01*
Y4900D01*
X114049D01*
Y4740D01*
X113888D01*
Y4580D01*
X113728D01*
Y4419D01*
X113567D01*
Y4259D01*
X113407D01*
Y4098D01*
X113246D01*
Y3938D01*
X113086D01*
Y3777D01*
X112926D01*
Y3617D01*
X112765D01*
Y3457D01*
X112605D01*
Y3296D01*
X112284D01*
Y3136D01*
X112123D01*
Y2975D01*
X111963D01*
Y2815D01*
X111642D01*
Y2654D01*
X111482D01*
Y2494D01*
X111161D01*
Y2333D01*
X110840D01*
Y2173D01*
X110679D01*
Y2013D01*
X110359D01*
Y1852D01*
X109877D01*
Y1692D01*
X109556D01*
Y1531D01*
X109075D01*
Y1371D01*
X108594D01*
Y1210D01*
X107792D01*
Y1050D01*
X105546D01*
Y1210D01*
X104904D01*
Y1371D01*
X104423D01*
Y1531D01*
X103941D01*
Y1692D01*
X103620D01*
Y1852D01*
X103300D01*
Y2013D01*
X102979D01*
Y2173D01*
X102658D01*
Y2333D01*
X102337D01*
Y2494D01*
X102176D01*
Y2654D01*
X101856D01*
Y2815D01*
X101695D01*
Y2975D01*
X101535D01*
Y3136D01*
X101374D01*
Y3296D01*
X101214D01*
Y3457D01*
X101054D01*
Y3617D01*
X100893D01*
Y3777D01*
X100733D01*
Y3938D01*
X100572D01*
Y4098D01*
Y4259D01*
X100412D01*
Y4419D01*
X100251D01*
Y4580D01*
Y4740D01*
X100091D01*
Y4900D01*
X99931D01*
Y5061D01*
Y5221D01*
X99770D01*
Y5382D01*
Y5542D01*
X99610D01*
Y5703D01*
Y5863D01*
Y6023D01*
X99449D01*
Y6184D01*
Y6344D01*
Y6505D01*
X99289D01*
Y6665D01*
Y6825D01*
Y6986D01*
Y7146D01*
Y7307D01*
X99128D01*
Y7467D01*
Y7628D01*
Y7788D01*
Y7949D01*
Y8109D01*
Y8269D01*
Y8430D01*
Y8590D01*
Y8751D01*
Y8911D01*
Y9072D01*
Y9232D01*
Y9392D01*
Y9553D01*
Y9713D01*
Y9874D01*
Y10034D01*
Y10195D01*
Y10355D01*
Y10515D01*
X99289D01*
Y10676D01*
Y10836D01*
Y10997D01*
Y11157D01*
Y11318D01*
X99449D01*
Y11478D01*
Y11638D01*
Y11799D01*
X99610D01*
Y11959D01*
Y12120D01*
Y12280D01*
X99770D01*
Y12441D01*
Y12601D01*
X99931D01*
Y12762D01*
Y12922D01*
Y13082D01*
X100091D01*
Y13243D01*
Y13403D01*
X100251D01*
Y13564D01*
Y13724D01*
X100412D01*
Y13884D01*
Y14045D01*
X100572D01*
Y14205D01*
X100733D01*
Y14366D01*
Y14526D01*
X100893D01*
Y14687D01*
X101054D01*
Y14847D01*
X101214D01*
Y15008D01*
Y15168D01*
X101374D01*
Y15328D01*
X101535D01*
Y15489D01*
X101695D01*
Y15649D01*
X101856D01*
Y15810D01*
X102016D01*
Y15970D01*
X102176D01*
Y16131D01*
X102337D01*
Y16291D01*
X102497D01*
Y16452D01*
X102658D01*
Y16612D01*
X102979D01*
Y16772D01*
X103139D01*
Y16933D01*
X103300D01*
Y17093D01*
X103460D01*
Y17254D01*
X103781D01*
Y17414D01*
X103941D01*
Y17574D01*
X104262D01*
Y17735D01*
X104423D01*
Y17895D01*
X104743D01*
Y18056D01*
X104904D01*
Y18216D01*
X105225D01*
Y18377D01*
X105546D01*
Y18537D01*
X105867D01*
Y18698D01*
X106187D01*
Y18858D01*
X106508D01*
Y19018D01*
Y19179D01*
X106027D01*
Y19339D01*
X105385D01*
Y19500D01*
X104904D01*
Y19660D01*
X104423D01*
Y19820D01*
X104102D01*
Y19981D01*
X103781D01*
Y20141D01*
X103460D01*
Y20302D01*
X103139D01*
Y20462D01*
X102818D01*
Y20623D01*
X102658D01*
Y20783D01*
X102337D01*
Y20944D01*
X102176D01*
Y21104D01*
X102016D01*
Y21264D01*
X101695D01*
Y21425D01*
X101535D01*
Y21585D01*
X101374D01*
Y21746D01*
X101214D01*
Y21906D01*
X101054D01*
Y22067D01*
X100893D01*
Y22227D01*
X100733D01*
Y22387D01*
X100572D01*
Y22548D01*
X100412D01*
Y22708D01*
X100251D01*
Y22869D01*
X100091D01*
Y23029D01*
X99931D01*
Y23190D01*
X99770D01*
Y23350D01*
Y23510D01*
X99610D01*
Y23671D01*
X99449D01*
Y23831D01*
Y23992D01*
X99289D01*
Y24152D01*
X99128D01*
Y24313D01*
Y24473D01*
X98968D01*
Y24633D01*
Y24794D01*
Y24954D01*
X98808D01*
Y25115D01*
Y25275D01*
X98647D01*
Y25436D01*
Y25596D01*
Y25756D01*
Y25917D01*
X98487D01*
Y26077D01*
Y26238D01*
Y26398D01*
Y26559D01*
Y26719D01*
Y26880D01*
Y27040D01*
Y27200D01*
Y27361D01*
Y27521D01*
Y27682D01*
Y27842D01*
Y28003D01*
Y28163D01*
Y28323D01*
Y28484D01*
Y28644D01*
Y28805D01*
Y28965D01*
X98647D01*
Y29126D01*
Y29286D01*
Y29446D01*
Y29607D01*
Y29767D01*
X98808D01*
Y29928D01*
Y30088D01*
Y30249D01*
X98968D01*
Y30409D01*
Y30569D01*
Y30730D01*
X99128D01*
Y30890D01*
Y31051D01*
Y31211D01*
X99289D01*
Y31372D01*
Y31532D01*
X99449D01*
Y31692D01*
X99610D01*
Y31853D01*
Y32013D01*
X99770D01*
Y32174D01*
X99931D01*
Y32334D01*
Y32495D01*
X100091D01*
Y32655D01*
X100251D01*
Y32816D01*
X100412D01*
Y32976D01*
X100572D01*
Y33136D01*
X100733D01*
Y33297D01*
X100893D01*
Y33457D01*
X101054D01*
Y33618D01*
X101374D01*
Y33778D01*
X101535D01*
Y33939D01*
X101856D01*
Y34099D01*
X102016D01*
Y34259D01*
X102337D01*
Y34420D01*
X102658D01*
Y34580D01*
X102979D01*
Y34741D01*
X103460D01*
Y34901D01*
X103941D01*
Y35062D01*
X104583D01*
Y35222D01*
X106027D01*
Y35382D01*
X106508D01*
Y35222D01*
X108273D01*
Y35062D01*
X109236D01*
Y34901D01*
X110038D01*
Y34741D01*
X110679D01*
Y34580D01*
X111161D01*
Y34420D01*
X111642D01*
Y34259D01*
X112123D01*
Y34099D01*
X112444D01*
Y33939D01*
X112765D01*
Y33778D01*
X113086D01*
Y33618D01*
X113407D01*
Y33457D01*
X113567D01*
Y33297D01*
X113888D01*
Y33136D01*
X114049D01*
Y32976D01*
X114369D01*
Y32816D01*
X114530D01*
Y32655D01*
X114690D01*
Y32495D01*
X115011D01*
Y32334D01*
X115172D01*
Y32174D01*
X115332D01*
Y32013D01*
X115492D01*
Y31853D01*
X115653D01*
Y31692D01*
X115813D01*
Y31532D01*
X115974D01*
Y31372D01*
X116134D01*
Y31211D01*
X116295D01*
Y31051D01*
Y30890D01*
X116455D01*
Y30730D01*
X116615D01*
Y30569D01*
X116776D01*
Y30409D01*
Y30249D01*
X116936D01*
Y30088D01*
X117097D01*
Y29928D01*
Y29767D01*
X117257D01*
Y29607D01*
Y29446D01*
X117418D01*
Y29286D01*
Y29126D01*
X117578D01*
Y28965D01*
Y28805D01*
X117738D01*
Y28644D01*
Y28484D01*
Y28323D01*
X117899D01*
Y28163D01*
Y28003D01*
Y27842D01*
X118059D01*
Y27682D01*
Y27521D01*
Y27361D01*
Y27200D01*
X118220D01*
Y27040D01*
Y26880D01*
Y26719D01*
Y26559D01*
Y26398D01*
X118380D01*
Y26238D01*
Y26077D01*
Y25917D01*
X118701D01*
Y26077D01*
Y26238D01*
X118861D01*
Y26398D01*
X119022D01*
Y26559D01*
Y26719D01*
X119182D01*
Y26880D01*
X119343D01*
Y27040D01*
X119503D01*
Y27200D01*
X119664D01*
Y27361D01*
X119824D01*
Y27521D01*
X119984D01*
Y27682D01*
X120145D01*
Y27842D01*
X120305D01*
Y28003D01*
X120466D01*
Y28163D01*
X120626D01*
Y28323D01*
X120787D01*
Y28484D01*
X121107D01*
Y28644D01*
X121268D01*
Y28805D01*
X121428D01*
Y28965D01*
X121749D01*
Y29126D01*
X122070D01*
Y29286D01*
X122391D01*
Y29446D01*
X122872D01*
Y29607D01*
X123354D01*
Y29767D01*
X123995D01*
Y29928D01*
X125279D01*
Y30088D01*
X127043D01*
Y29928D01*
X128166D01*
Y29767D01*
X128969D01*
Y29607D01*
X129450D01*
Y29446D01*
X129931D01*
Y29286D01*
X130413D01*
Y29126D01*
X130733D01*
Y28965D01*
X131054D01*
Y28805D01*
X131375D01*
Y28644D01*
X131696D01*
Y28484D01*
X132017D01*
Y28323D01*
X132338D01*
Y28163D01*
X132498D01*
Y28003D01*
X132819D01*
Y27842D01*
X132980D01*
Y27682D01*
X133300D01*
Y27521D01*
X133461D01*
Y27361D01*
X133782D01*
Y27200D01*
X133942D01*
Y27040D01*
X134102D01*
Y26880D01*
X134423D01*
Y26719D01*
X134584D01*
Y26559D01*
X134744D01*
Y26398D01*
X134905D01*
Y26238D01*
X135065D01*
Y26077D01*
X135386D01*
Y25917D01*
X135546D01*
Y25756D01*
X135707D01*
Y25596D01*
X135867D01*
Y25436D01*
X136028D01*
Y25275D01*
X136188D01*
Y25115D01*
Y24954D01*
X136349D01*
Y24794D01*
X136509D01*
Y24633D01*
X136669D01*
Y24473D01*
X136830D01*
Y24313D01*
X136990D01*
Y24152D01*
X136830D01*
Y23992D01*
X136509D01*
Y23831D01*
X136349D01*
Y23671D01*
X136188D01*
Y23510D01*
X136028D01*
Y23350D01*
X135707D01*
Y23190D01*
X135386D01*
Y23350D01*
X135225D01*
Y23510D01*
X135065D01*
Y23671D01*
Y23831D01*
X134905D01*
Y23992D01*
X134744D01*
Y24152D01*
X134584D01*
Y24313D01*
X134423D01*
Y24473D01*
X134263D01*
Y24633D01*
X134102D01*
Y24794D01*
X133942D01*
Y24954D01*
X133621D01*
Y25115D01*
X133461D01*
Y25275D01*
X133300D01*
Y25436D01*
X133140D01*
Y25596D01*
X132819D01*
Y25756D01*
X132659D01*
Y25917D01*
X132498D01*
Y26077D01*
X132177D01*
Y26238D01*
X132017D01*
Y26398D01*
X131696D01*
Y26559D01*
X131536D01*
Y26719D01*
X131215D01*
Y26880D01*
X130894D01*
Y27040D01*
X130573D01*
Y27200D01*
X130252D01*
Y27361D01*
X129931D01*
Y27521D01*
X129610D01*
Y27682D01*
X129129D01*
Y27842D01*
X128648D01*
Y28003D01*
X127846D01*
Y28163D01*
X124477D01*
Y28003D01*
X123835D01*
Y27842D01*
X123193D01*
Y27682D01*
X122872D01*
Y27521D01*
X122551D01*
Y27361D01*
X122231D01*
Y27200D01*
X122070D01*
Y27040D01*
X121910D01*
Y26880D01*
X121749D01*
Y26719D01*
X121428D01*
Y26559D01*
X121268D01*
Y26398D01*
X121107D01*
Y26238D01*
X120947D01*
Y26077D01*
Y25917D01*
X120787D01*
Y25756D01*
X120626D01*
Y25596D01*
X120466D01*
Y25436D01*
X120305D01*
Y25275D01*
Y25115D01*
X120145D01*
Y24954D01*
X119984D01*
Y24794D01*
Y24633D01*
X119824D01*
Y24473D01*
X119664D01*
Y24313D01*
Y24152D01*
X119503D01*
Y23992D01*
Y23831D01*
X119343D01*
Y23671D01*
Y23510D01*
Y23350D01*
X119182D01*
Y23190D01*
Y23029D01*
Y22869D01*
X119022D01*
Y22708D01*
Y22548D01*
Y22387D01*
Y22227D01*
Y22067D01*
X118861D01*
Y21906D01*
Y21746D01*
Y21585D01*
Y21425D01*
Y21264D01*
Y21104D01*
Y20944D01*
X118701D01*
Y20783D01*
Y20623D01*
Y20462D01*
Y20302D01*
X120787D01*
Y20141D01*
X123835D01*
Y19981D01*
X125118D01*
Y19820D01*
X125920D01*
Y19660D01*
X126562D01*
Y19500D01*
X127043D01*
Y19339D01*
X127525D01*
Y19179D01*
X128006D01*
Y19018D01*
X128327D01*
Y18858D01*
X128648D01*
Y18698D01*
X128969D01*
Y18537D01*
X129289D01*
Y18377D01*
X129610D01*
Y18216D01*
X129931D01*
Y18056D01*
X130092D01*
Y17895D01*
X130413D01*
Y17735D01*
X130573D01*
Y17574D01*
X130733D01*
Y17414D01*
X131054D01*
Y17254D01*
X131215D01*
Y17093D01*
X131375D01*
Y16933D01*
X131536D01*
Y16772D01*
X131696D01*
Y16612D01*
X131856D01*
Y16452D01*
X132017D01*
Y16291D01*
X132177D01*
Y16131D01*
X132338D01*
Y15970D01*
X132498D01*
Y15810D01*
X132659D01*
Y15649D01*
X132819D01*
Y15489D01*
X132980D01*
Y15328D01*
X133140D01*
Y15168D01*
X133300D01*
Y15008D01*
X133461D01*
Y14847D01*
Y14687D01*
X133621D01*
Y14526D01*
X133782D01*
Y14366D01*
X133942D01*
Y14205D01*
X134102D01*
Y14045D01*
Y13884D01*
X134263D01*
Y13724D01*
X134423D01*
Y13564D01*
X134584D01*
Y13403D01*
X134744D01*
Y13243D01*
Y13082D01*
X134905D01*
Y12922D01*
X135065D01*
Y12762D01*
Y12601D01*
X135225D01*
Y12441D01*
X135386D01*
Y12280D01*
Y12120D01*
X135546D01*
Y11959D01*
X135707D01*
Y11799D01*
Y11638D01*
X135867D01*
Y11478D01*
X136028D01*
Y11318D01*
Y11157D01*
X136188D01*
Y10997D01*
Y10836D01*
X136349D01*
Y10676D01*
Y10515D01*
X136509D01*
Y10355D01*
Y10195D01*
X136669D01*
Y10034D01*
X136830D01*
Y9874D01*
Y9713D01*
X136990D01*
Y9553D01*
X137151D01*
Y9392D01*
X137311D01*
Y9232D01*
X137472D01*
Y9072D01*
Y8911D01*
X137632D01*
Y8751D01*
X137792D01*
Y8590D01*
X137953D01*
Y8430D01*
X138113D01*
Y8269D01*
X138274D01*
Y8109D01*
X138434D01*
Y7949D01*
X138595D01*
Y7788D01*
X138755D01*
Y7628D01*
X139076D01*
Y7467D01*
X139236D01*
Y7307D01*
X139557D01*
Y7146D01*
X139718D01*
Y6986D01*
X140039D01*
Y6825D01*
X140359D01*
Y6665D01*
X141001D01*
Y6505D01*
X143407D01*
Y6665D01*
X143889D01*
Y6825D01*
X144049D01*
Y6986D01*
X144370D01*
Y7146D01*
X144531D01*
Y7307D01*
X144691D01*
Y7467D01*
X144851D01*
Y7628D01*
X145012D01*
Y7788D01*
Y7949D01*
Y8109D01*
X144851D01*
Y8269D01*
X144691D01*
Y8430D01*
Y8590D01*
X144531D01*
Y8751D01*
X144370D01*
Y8911D01*
Y9072D01*
X144210D01*
Y9232D01*
Y9392D01*
X144049D01*
Y9553D01*
Y9713D01*
Y9874D01*
X143889D01*
Y10034D01*
Y10195D01*
Y10355D01*
X143728D01*
Y10515D01*
Y10676D01*
Y10836D01*
X143568D01*
Y10997D01*
Y11157D01*
Y11318D01*
Y11478D01*
Y11638D01*
Y11799D01*
Y11959D01*
Y12120D01*
X143407D01*
Y12280D01*
X143568D01*
Y12441D01*
Y12601D01*
Y12762D01*
Y12922D01*
Y13082D01*
Y13243D01*
Y13403D01*
Y13564D01*
X143728D01*
Y13724D01*
Y13884D01*
Y14045D01*
Y14205D01*
X143889D01*
Y14366D01*
Y14526D01*
X144049D01*
Y14687D01*
Y14847D01*
Y15008D01*
X144210D01*
Y15168D01*
Y15328D01*
X144370D01*
Y15489D01*
X144531D01*
Y15649D01*
Y15810D01*
X144691D01*
Y15970D01*
X144851D01*
Y16131D01*
X145012D01*
Y16291D01*
X145172D01*
Y16452D01*
X145333D01*
Y16612D01*
X145493D01*
Y16772D01*
X145654D01*
Y16933D01*
X145814D01*
Y17093D01*
X145975D01*
Y17254D01*
Y17414D01*
Y17574D01*
Y17735D01*
Y17895D01*
Y18056D01*
X145814D01*
Y18216D01*
Y18377D01*
Y18537D01*
Y18698D01*
Y18858D01*
X145654D01*
Y19018D01*
Y19179D01*
Y19339D01*
X145493D01*
Y19500D01*
Y19660D01*
Y19820D01*
Y19981D01*
X145333D01*
Y20141D01*
Y20302D01*
Y20462D01*
X145172D01*
Y20623D01*
Y20783D01*
Y20944D01*
X145012D01*
Y21104D01*
Y21264D01*
Y21425D01*
X144851D01*
Y21585D01*
Y21746D01*
X144691D01*
Y21906D01*
Y22067D01*
Y22227D01*
X144531D01*
Y22387D01*
Y22548D01*
X144370D01*
Y22708D01*
Y22869D01*
X144210D01*
Y23029D01*
Y23190D01*
X144049D01*
Y23350D01*
Y23510D01*
Y23671D01*
X143889D01*
Y23831D01*
Y23992D01*
X143728D01*
Y24152D01*
Y24313D01*
X143568D01*
Y24473D01*
Y24633D01*
X143407D01*
Y24794D01*
Y24954D01*
X143247D01*
Y25115D01*
Y25275D01*
X143087D01*
Y25436D01*
Y25596D01*
X142926D01*
Y25756D01*
Y25917D01*
X142766D01*
Y26077D01*
Y26238D01*
X142605D01*
Y26398D01*
Y26559D01*
X142445D01*
Y26719D01*
Y26880D01*
X142285D01*
Y27040D01*
Y27200D01*
X142124D01*
Y27361D01*
Y27521D01*
X141964D01*
Y27682D01*
Y27842D01*
X141803D01*
Y28003D01*
Y28163D01*
X141643D01*
Y28323D01*
Y28484D01*
X141482D01*
Y28644D01*
X141322D01*
Y28805D01*
Y28965D01*
X141162D01*
Y29126D01*
Y29286D01*
X141001D01*
Y29446D01*
X140841D01*
Y29607D01*
Y29767D01*
X140680D01*
Y29928D01*
Y30088D01*
X140520D01*
Y30249D01*
X140359D01*
Y30409D01*
Y30569D01*
X140199D01*
Y30730D01*
X140039D01*
Y30890D01*
Y31051D01*
X139878D01*
Y31211D01*
X139718D01*
Y31372D01*
Y31532D01*
X139557D01*
Y31692D01*
X139397D01*
Y31853D01*
Y32013D01*
X139236D01*
Y32174D01*
X139076D01*
Y32334D01*
Y32495D01*
X138916D01*
Y32655D01*
X138755D01*
Y32816D01*
X138595D01*
Y32976D01*
Y33136D01*
X138434D01*
Y33297D01*
X138274D01*
Y33457D01*
X138113D01*
Y33618D01*
X137953D01*
Y33778D01*
Y33939D01*
X137792D01*
Y34099D01*
X137632D01*
Y34259D01*
X137472D01*
Y34420D01*
X137311D01*
Y34580D01*
Y34741D01*
X137151D01*
Y34901D01*
X136990D01*
Y35062D01*
X136830D01*
Y35222D01*
X136669D01*
Y35382D01*
X136509D01*
Y35543D01*
Y35703D01*
X136349D01*
Y35864D01*
X136188D01*
Y36024D01*
X136028D01*
Y36185D01*
X135867D01*
Y36345D01*
X135707D01*
Y36505D01*
X135546D01*
Y36666D01*
X135386D01*
Y36826D01*
X135225D01*
Y36987D01*
X135065D01*
Y37147D01*
X134905D01*
Y37308D01*
X134744D01*
Y37468D01*
X134584D01*
Y37628D01*
X134423D01*
Y37789D01*
X134263D01*
Y37949D01*
X134102D01*
Y38110D01*
X133942D01*
Y38270D01*
X133782D01*
Y38431D01*
X133621D01*
Y38591D01*
X133461D01*
Y38752D01*
X133300D01*
Y38912D01*
X133140D01*
Y39072D01*
X132980D01*
Y39233D01*
X132819D01*
Y39393D01*
X132980D01*
Y39554D01*
X133140D01*
Y39714D01*
Y39875D01*
X133300D01*
Y40035D01*
X133461D01*
Y40195D01*
X133621D01*
Y40356D01*
X133782D01*
Y40516D01*
X134102D01*
Y40356D01*
X134263D01*
Y40195D01*
X134423D01*
Y40035D01*
X134584D01*
Y39875D01*
X134905D01*
Y39714D01*
X135065D01*
Y39554D01*
X135225D01*
Y39393D01*
X135386D01*
Y39233D01*
X135546D01*
Y39072D01*
X135707D01*
Y38912D01*
X135867D01*
Y38752D01*
X136028D01*
Y38591D01*
X136188D01*
Y38431D01*
X136349D01*
Y38270D01*
X136509D01*
Y38110D01*
X136669D01*
Y37949D01*
X136830D01*
Y37789D01*
X136990D01*
Y37628D01*
X137151D01*
Y37468D01*
X137311D01*
Y37308D01*
X137472D01*
Y37147D01*
Y36987D01*
X137632D01*
Y36826D01*
X137792D01*
Y36666D01*
X137953D01*
Y36505D01*
X138113D01*
Y36345D01*
X138274D01*
Y36185D01*
X138434D01*
Y36024D01*
Y35864D01*
X138595D01*
Y35703D01*
X138755D01*
Y35543D01*
X138916D01*
Y35382D01*
X139076D01*
Y35222D01*
Y35062D01*
X139236D01*
Y34901D01*
X139397D01*
Y34741D01*
X139557D01*
Y34580D01*
X139718D01*
Y34420D01*
Y34259D01*
X139878D01*
Y34099D01*
X140039D01*
Y33939D01*
X140199D01*
Y33778D01*
Y33618D01*
X140359D01*
Y33457D01*
X140520D01*
Y33297D01*
X140680D01*
Y33136D01*
Y32976D01*
X140841D01*
Y32816D01*
X141001D01*
Y32655D01*
Y32495D01*
X141162D01*
Y32334D01*
X141322D01*
Y32174D01*
Y32013D01*
X141482D01*
Y31853D01*
X141643D01*
Y31692D01*
Y31532D01*
X141803D01*
Y31372D01*
X141964D01*
Y31211D01*
Y31051D01*
X142124D01*
Y30890D01*
X142285D01*
Y30730D01*
Y30569D01*
X142445D01*
Y30409D01*
Y30249D01*
X142605D01*
Y30088D01*
X142766D01*
Y29928D01*
Y29767D01*
X142926D01*
Y29607D01*
Y29446D01*
X143087D01*
Y29286D01*
X143247D01*
Y29126D01*
Y28965D01*
X143407D01*
Y28805D01*
Y28644D01*
X143568D01*
Y28484D01*
Y28323D01*
X143728D01*
Y28163D01*
Y28003D01*
X143889D01*
Y27842D01*
Y27682D01*
X144049D01*
Y27521D01*
Y27361D01*
X144210D01*
Y27200D01*
Y27040D01*
X144370D01*
Y26880D01*
Y26719D01*
X144531D01*
Y26559D01*
Y26398D01*
X144691D01*
Y26238D01*
Y26077D01*
X144851D01*
Y25917D01*
Y25756D01*
X145012D01*
Y25596D01*
Y25436D01*
X145172D01*
Y25275D01*
Y25115D01*
X145333D01*
Y24954D01*
Y24794D01*
X145493D01*
Y24633D01*
Y24473D01*
X145654D01*
Y24313D01*
Y24152D01*
Y23992D01*
X145814D01*
Y23831D01*
Y23671D01*
X145975D01*
Y23510D01*
Y23350D01*
X146135D01*
Y23190D01*
Y23029D01*
X146295D01*
Y22869D01*
Y22708D01*
Y22548D01*
X146456D01*
Y22387D01*
Y22227D01*
X146616D01*
Y22067D01*
Y21906D01*
Y21746D01*
X146777D01*
Y21585D01*
Y21425D01*
X146937D01*
Y21264D01*
Y21104D01*
Y20944D01*
X147098D01*
Y20783D01*
Y20623D01*
Y20462D01*
Y20302D01*
X147258D01*
Y20141D01*
Y19981D01*
Y19820D01*
X147418D01*
Y19660D01*
Y19500D01*
Y19339D01*
Y19179D01*
X147579D01*
Y19018D01*
Y18858D01*
Y18698D01*
Y18537D01*
X147739D01*
Y18377D01*
Y18216D01*
X148060D01*
Y18377D01*
X148381D01*
Y18537D01*
X148862D01*
Y18698D01*
X149344D01*
Y18858D01*
X149825D01*
Y19018D01*
X150306D01*
Y19179D01*
X150787D01*
Y19339D01*
X151429D01*
Y19500D01*
X152071D01*
Y19660D01*
X152873D01*
Y19820D01*
X153515D01*
Y19981D01*
X153354D01*
Y20141D01*
X153033D01*
Y20302D01*
X152713D01*
Y20462D01*
X152392D01*
Y20623D01*
X152071D01*
Y20783D01*
X151750D01*
Y20944D01*
X151429D01*
Y21104D01*
X151269D01*
Y21264D01*
X150948D01*
Y21425D01*
X150787D01*
Y21585D01*
X150467D01*
Y21746D01*
X150306D01*
Y21906D01*
X149985D01*
Y22067D01*
X149825D01*
Y22227D01*
X149664D01*
Y22387D01*
X149344D01*
Y22548D01*
X149183D01*
Y22708D01*
X149023D01*
Y22869D01*
X148862D01*
Y23029D01*
X148702D01*
Y23190D01*
X148541D01*
Y23350D01*
X148381D01*
Y23510D01*
X148221D01*
Y23671D01*
Y23831D01*
X148060D01*
Y23992D01*
X147900D01*
Y24152D01*
X147739D01*
Y24313D01*
Y24473D01*
X147579D01*
Y24633D01*
X147418D01*
Y24794D01*
Y24954D01*
X147258D01*
Y25115D01*
X147098D01*
Y25275D01*
Y25436D01*
X146937D01*
Y25596D01*
Y25756D01*
X146777D01*
Y25917D01*
Y26077D01*
X146616D01*
Y26238D01*
Y26398D01*
X146456D01*
Y26559D01*
Y26719D01*
Y26880D01*
X146295D01*
Y27040D01*
Y27200D01*
Y27361D01*
X146135D01*
Y27521D01*
Y27682D01*
Y27842D01*
X145975D01*
Y28003D01*
Y28163D01*
Y28323D01*
Y28484D01*
Y28644D01*
X145814D01*
Y28805D01*
Y28965D01*
Y29126D01*
Y29286D01*
Y29446D01*
Y29607D01*
Y29767D01*
Y29928D01*
Y30088D01*
X145654D01*
Y30249D01*
Y30409D01*
Y30569D01*
Y30730D01*
X145814D01*
Y30890D01*
Y31051D01*
Y31211D01*
Y31372D01*
Y31532D01*
Y31692D01*
Y31853D01*
X145975D01*
Y32013D01*
Y32174D01*
Y32334D01*
Y32495D01*
X146135D01*
Y32655D01*
Y32816D01*
Y32976D01*
X146295D01*
Y33136D01*
Y33297D01*
Y33457D01*
X146456D01*
Y33618D01*
Y33778D01*
X146616D01*
Y33939D01*
Y34099D01*
X146777D01*
Y34259D01*
Y34420D01*
X146937D01*
Y34580D01*
X147098D01*
Y34741D01*
Y34901D01*
X147258D01*
Y35062D01*
X147418D01*
Y35222D01*
Y35382D01*
X147579D01*
Y35543D01*
X147739D01*
Y35703D01*
X147900D01*
Y35864D01*
Y36024D01*
X148060D01*
Y36185D01*
X148221D01*
Y36345D01*
X148381D01*
Y36505D01*
X148541D01*
Y36666D01*
X148702D01*
Y36826D01*
X149023D01*
Y36987D01*
X149183D01*
Y37147D01*
X149344D01*
Y37308D01*
X149504D01*
Y37468D01*
X149825D01*
Y37628D01*
X150146D01*
Y37789D01*
X150306D01*
Y37949D01*
X150627D01*
Y38110D01*
X150948D01*
Y38270D01*
X151429D01*
Y38431D01*
X151910D01*
Y38591D01*
X152552D01*
Y38752D01*
X153354D01*
Y38912D01*
X155921D01*
Y38752D01*
X156884D01*
Y38591D01*
X157526D01*
Y38431D01*
X158007D01*
Y38270D01*
X158488D01*
Y38110D01*
X158809D01*
Y37949D01*
X159130D01*
Y37789D01*
X159451D01*
Y37628D01*
X159772D01*
Y37468D01*
X160092D01*
Y37308D01*
X160253D01*
Y37147D01*
X160413D01*
Y36987D01*
X160734D01*
Y36826D01*
X160895D01*
Y36666D01*
X161055D01*
Y36505D01*
X161215D01*
Y36345D01*
X161376D01*
Y36185D01*
X161536D01*
Y36024D01*
X161697D01*
Y35864D01*
X161857D01*
Y35703D01*
X162018D01*
Y35543D01*
X162178D01*
Y35382D01*
X162338D01*
Y35222D01*
Y35062D01*
X162499D01*
Y34901D01*
X162659D01*
Y34741D01*
X162820D01*
Y34580D01*
Y34420D01*
X162980D01*
Y34259D01*
X163141D01*
Y34099D01*
Y33939D01*
X163301D01*
Y33778D01*
Y33618D01*
X163462D01*
Y33457D01*
Y33297D01*
X163622D01*
Y33136D01*
Y32976D01*
X163782D01*
Y32816D01*
Y32655D01*
X163943D01*
Y32495D01*
Y32334D01*
X164103D01*
Y32174D01*
Y32013D01*
Y31853D01*
X164264D01*
Y31692D01*
Y31532D01*
Y31372D01*
Y31211D01*
X164424D01*
Y31051D01*
Y30890D01*
Y30730D01*
Y30569D01*
X164585D01*
Y30409D01*
Y30249D01*
Y30088D01*
Y29928D01*
Y29767D01*
X164745D01*
Y29607D01*
Y29446D01*
Y29286D01*
Y29126D01*
Y28965D01*
Y28805D01*
X164905D01*
Y28644D01*
Y28484D01*
Y28323D01*
Y28163D01*
Y28003D01*
Y27842D01*
Y27682D01*
Y27521D01*
X165226D01*
Y27682D01*
Y27842D01*
X165387D01*
Y28003D01*
X165547D01*
Y28163D01*
Y28323D01*
X165708D01*
Y28484D01*
Y28644D01*
X165868D01*
Y28805D01*
X166028D01*
Y28965D01*
Y29126D01*
X166189D01*
Y29286D01*
X166349D01*
Y29446D01*
X166510D01*
Y29607D01*
Y29767D01*
X166670D01*
Y29928D01*
X166831D01*
Y30088D01*
X166991D01*
Y30249D01*
X167151D01*
Y30409D01*
X167312D01*
Y30569D01*
X167633D01*
Y30730D01*
X167793D01*
Y30890D01*
X167954D01*
Y31051D01*
X168114D01*
Y31211D01*
X168435D01*
Y31372D01*
X168595D01*
Y31532D01*
X168916D01*
Y31692D01*
X169077D01*
Y31853D01*
X169397D01*
Y32013D01*
X169718D01*
Y32174D01*
X169879D01*
Y32334D01*
X170200D01*
Y32495D01*
X170521D01*
Y32655D01*
X170841D01*
Y32816D01*
X171323D01*
Y32976D01*
X171644D01*
Y33136D01*
X172125D01*
Y33297D01*
X172767D01*
Y33457D01*
X173569D01*
Y33618D01*
X177259D01*
Y33457D01*
X178382D01*
Y33297D01*
X179024D01*
Y33136D01*
X179665D01*
Y32976D01*
X180147D01*
Y32816D01*
X180628D01*
Y32655D01*
X180949D01*
Y32495D01*
X181270D01*
Y32334D01*
X181590D01*
Y32174D01*
X181911D01*
Y32013D01*
X182232D01*
Y31853D01*
X182553D01*
Y31692D01*
X182713D01*
Y31532D01*
X182874D01*
Y31372D01*
X183195D01*
Y31211D01*
X183355D01*
Y31051D01*
X183676D01*
Y30890D01*
X183836D01*
Y30730D01*
X183997D01*
Y30569D01*
X184157D01*
Y30409D01*
X184318D01*
Y30249D01*
X184478D01*
Y30088D01*
X184639D01*
Y29928D01*
X184959D01*
Y29767D01*
X185120D01*
Y29607D01*
X185280D01*
Y29446D01*
Y29286D01*
X185441D01*
Y29126D01*
X185601D01*
Y28965D01*
X185762D01*
Y28805D01*
X185922D01*
Y28644D01*
X186082D01*
Y28484D01*
X186243D01*
Y28323D01*
X186403D01*
Y28163D01*
Y28003D01*
X186564D01*
Y27842D01*
X186724D01*
Y27682D01*
X186885D01*
Y27521D01*
X187045D01*
Y27361D01*
Y27200D01*
X187206D01*
Y27040D01*
X187366D01*
Y26880D01*
Y26719D01*
X187526D01*
Y26559D01*
X187687D01*
Y26398D01*
Y26238D01*
X187847D01*
Y26077D01*
X188008D01*
Y25917D01*
Y25756D01*
X188168D01*
Y25596D01*
Y25436D01*
X188329D01*
Y25275D01*
X188489D01*
Y25115D01*
Y24954D01*
X188649D01*
Y24794D01*
Y24633D01*
X188810D01*
Y24473D01*
Y24313D01*
X188970D01*
Y24152D01*
Y23992D01*
Y23831D01*
X189131D01*
Y23671D01*
Y23510D01*
X189291D01*
Y23350D01*
Y23190D01*
Y23029D01*
X189452D01*
Y22869D01*
Y22708D01*
X189612D01*
Y22548D01*
Y22387D01*
Y22227D01*
Y22067D01*
X189772D01*
Y21906D01*
Y21746D01*
Y21585D01*
Y21425D01*
X189933D01*
Y21264D01*
Y21104D01*
Y20944D01*
Y20783D01*
X190093D01*
Y20623D01*
Y20462D01*
Y20302D01*
Y20141D01*
Y19981D01*
Y19820D01*
X190254D01*
Y19660D01*
Y19500D01*
Y19339D01*
Y19179D01*
Y19018D01*
Y18858D01*
X190414D01*
Y18698D01*
Y18537D01*
Y18377D01*
Y18216D01*
Y18056D01*
Y17895D01*
Y17735D01*
Y17574D01*
X190575D01*
Y17414D01*
Y17254D01*
Y17093D01*
Y16933D01*
Y16772D01*
Y16612D01*
Y16452D01*
Y16291D01*
Y16131D01*
X190735D01*
Y15970D01*
Y15810D01*
Y15649D01*
Y15489D01*
Y15328D01*
Y15168D01*
Y15008D01*
Y14847D01*
Y14687D01*
Y14526D01*
Y14366D01*
Y14205D01*
X190895D01*
Y14045D01*
Y13884D01*
Y13724D01*
X191056D01*
Y13884D01*
Y14045D01*
Y14205D01*
X191216D01*
Y14366D01*
Y14526D01*
Y14687D01*
Y14847D01*
X191377D01*
Y15008D01*
Y15168D01*
Y15328D01*
Y15489D01*
X191537D01*
Y15649D01*
Y15810D01*
Y15970D01*
Y16131D01*
Y16291D01*
X191698D01*
Y16452D01*
Y16612D01*
Y16772D01*
Y16933D01*
Y17093D01*
X191858D01*
Y17254D01*
Y17414D01*
Y17574D01*
Y17735D01*
Y17895D01*
Y18056D01*
X192018D01*
Y18216D01*
Y18377D01*
Y18537D01*
Y18698D01*
Y18858D01*
Y19018D01*
Y19179D01*
X192179D01*
Y19339D01*
Y19500D01*
Y19660D01*
Y19820D01*
Y19981D01*
Y20141D01*
X192339D01*
Y20302D01*
Y20462D01*
Y20623D01*
Y20783D01*
Y20944D01*
Y21104D01*
Y21264D01*
Y21425D01*
X192500D01*
Y21585D01*
Y21746D01*
Y21906D01*
Y22067D01*
Y22227D01*
Y22387D01*
Y22548D01*
Y22708D01*
Y22869D01*
Y23029D01*
Y23190D01*
X192660D01*
Y23350D01*
Y23510D01*
Y23671D01*
Y23831D01*
Y23992D01*
Y24152D01*
Y24313D01*
Y24473D01*
Y24633D01*
Y24794D01*
Y24954D01*
Y25115D01*
Y25275D01*
Y25436D01*
Y25596D01*
Y25756D01*
Y25917D01*
Y26077D01*
Y26238D01*
Y26398D01*
Y26559D01*
Y26719D01*
Y26880D01*
Y27040D01*
Y27200D01*
Y27361D01*
Y27521D01*
X192500D01*
Y27682D01*
Y27842D01*
Y28003D01*
Y28163D01*
Y28323D01*
Y28484D01*
Y28644D01*
Y28805D01*
Y28965D01*
X192339D01*
Y29126D01*
Y29286D01*
Y29446D01*
Y29607D01*
Y29767D01*
Y29928D01*
Y30088D01*
X192179D01*
Y30249D01*
Y30409D01*
Y30569D01*
Y30730D01*
Y30890D01*
X192018D01*
Y31051D01*
Y31211D01*
Y31372D01*
Y31532D01*
Y31692D01*
X191858D01*
Y31853D01*
Y32013D01*
Y32174D01*
Y32334D01*
X191698D01*
Y32495D01*
Y32655D01*
Y32816D01*
Y32976D01*
X191537D01*
Y33136D01*
Y33297D01*
Y33457D01*
X191377D01*
Y33618D01*
Y33778D01*
Y33939D01*
X191216D01*
Y34099D01*
Y34259D01*
Y34420D01*
X191056D01*
Y34580D01*
Y34741D01*
Y34901D01*
X190895D01*
Y35062D01*
Y35222D01*
X190735D01*
Y35382D01*
Y35543D01*
X190575D01*
Y35703D01*
Y35864D01*
X190414D01*
Y36024D01*
Y36185D01*
X190254D01*
Y36345D01*
Y36505D01*
X190093D01*
Y36666D01*
Y36826D01*
X189933D01*
Y36987D01*
Y37147D01*
X189772D01*
Y37308D01*
Y37468D01*
X189612D01*
Y37628D01*
X189452D01*
Y37789D01*
X189291D01*
Y37949D01*
Y38110D01*
X189131D01*
Y38270D01*
X188970D01*
Y38431D01*
X188810D01*
Y38591D01*
Y38752D01*
X188649D01*
Y38912D01*
X188489D01*
Y39072D01*
X188329D01*
Y39233D01*
X188168D01*
Y39393D01*
X188008D01*
Y39554D01*
X187847D01*
Y39714D01*
X187687D01*
Y39875D01*
X187526D01*
Y40035D01*
X187366D01*
Y40195D01*
X187206D01*
Y40356D01*
X187045D01*
Y40516D01*
X186724D01*
Y40677D01*
X186564D01*
Y40837D01*
X186403D01*
Y40998D01*
X186243D01*
Y41158D01*
X185922D01*
Y41318D01*
X185762D01*
Y41479D01*
X185441D01*
Y41639D01*
X185280D01*
Y41800D01*
X184959D01*
Y41960D01*
X184799D01*
Y42121D01*
X184478D01*
Y42281D01*
X184157D01*
Y42441D01*
X183836D01*
Y42602D01*
X183355D01*
Y42762D01*
X183034D01*
Y42923D01*
X182553D01*
Y43083D01*
X182072D01*
Y43244D01*
X181590D01*
Y43404D01*
X180949D01*
Y43565D01*
X180307D01*
Y43725D01*
X179665D01*
Y43885D01*
X178703D01*
Y44046D01*
X175975D01*
Y43885D01*
X175013D01*
Y43725D01*
X174371D01*
Y43565D01*
X173890D01*
Y43404D01*
X173408D01*
Y43244D01*
X173088D01*
Y43083D01*
X172767D01*
Y42923D01*
X172606D01*
Y42762D01*
X172285D01*
Y42602D01*
X172125D01*
Y42441D01*
X171964D01*
Y42281D01*
X171644D01*
Y42121D01*
X171483D01*
Y41960D01*
X171323D01*
Y41800D01*
X171162D01*
Y41639D01*
X171002D01*
Y41479D01*
X170841D01*
Y41318D01*
X170681D01*
Y41158D01*
X170521D01*
Y40998D01*
X170360D01*
Y40837D01*
X170200D01*
Y40677D01*
X170039D01*
Y40837D01*
X169718D01*
Y40998D01*
X169558D01*
Y41158D01*
X169397D01*
Y41318D01*
X169237D01*
Y41479D01*
X169077D01*
Y41639D01*
X168916D01*
Y41800D01*
X168756D01*
Y41960D01*
X168916D01*
Y42121D01*
X169077D01*
Y42281D01*
X169237D01*
Y42441D01*
X169397D01*
Y42602D01*
X169558D01*
Y42762D01*
X169718D01*
Y42923D01*
X169879D01*
Y43083D01*
X170039D01*
Y43244D01*
X170200D01*
Y43404D01*
X170521D01*
Y43565D01*
X170681D01*
Y43725D01*
X170841D01*
Y43885D01*
X171002D01*
Y44046D01*
X171162D01*
Y44206D01*
X171483D01*
Y44367D01*
X171804D01*
Y44527D01*
X171964D01*
Y44688D01*
X172285D01*
Y44848D01*
X172606D01*
Y45008D01*
X173088D01*
Y45169D01*
X173569D01*
Y45329D01*
X174050D01*
Y45490D01*
X174692D01*
Y45650D01*
X175333D01*
Y45810D01*
X177419D01*
Y45971D01*
X177580D01*
Y45810D01*
D02*
G37*
%LPC*%
G36*
X122872Y18377D02*
X118701D01*
Y18216D01*
Y18056D01*
Y17895D01*
Y17735D01*
Y17574D01*
X118861D01*
Y17414D01*
Y17254D01*
Y17093D01*
Y16933D01*
Y16772D01*
Y16612D01*
Y16452D01*
Y16291D01*
Y16131D01*
Y15970D01*
Y15810D01*
X119022D01*
Y15649D01*
Y15489D01*
Y15328D01*
Y15168D01*
Y15008D01*
Y14847D01*
Y14687D01*
X119182D01*
Y14526D01*
Y14366D01*
Y14205D01*
Y14045D01*
Y13884D01*
X119343D01*
Y13724D01*
Y13564D01*
Y13403D01*
X119503D01*
Y13243D01*
Y13082D01*
Y12922D01*
Y12762D01*
X119664D01*
Y12601D01*
Y12441D01*
Y12280D01*
X119824D01*
Y12120D01*
Y11959D01*
Y11799D01*
X119984D01*
Y11638D01*
Y11478D01*
Y11318D01*
X120145D01*
Y11157D01*
Y10997D01*
X120305D01*
Y10836D01*
Y10676D01*
Y10515D01*
X120466D01*
Y10355D01*
Y10195D01*
X120626D01*
Y10034D01*
Y9874D01*
X120787D01*
Y9713D01*
Y9553D01*
Y9392D01*
X120947D01*
Y9232D01*
Y9072D01*
X121107D01*
Y8911D01*
Y8751D01*
X121268D01*
Y8590D01*
X121428D01*
Y8430D01*
Y8269D01*
X121589D01*
Y8109D01*
Y7949D01*
X121749D01*
Y7788D01*
X121910D01*
Y7628D01*
Y7467D01*
X122070D01*
Y7307D01*
X122231D01*
Y7146D01*
X122391D01*
Y6986D01*
X122551D01*
Y6825D01*
X122712D01*
Y6665D01*
X122872D01*
Y6505D01*
X123193D01*
Y6344D01*
X123354D01*
Y6184D01*
X123674D01*
Y6023D01*
X123835D01*
Y5863D01*
X124156D01*
Y5703D01*
X124477D01*
Y5542D01*
X124797D01*
Y5382D01*
X125279D01*
Y5221D01*
X125760D01*
Y5061D01*
X126241D01*
Y4900D01*
X127043D01*
Y4740D01*
X129289D01*
Y4900D01*
X129931D01*
Y5061D01*
X130413D01*
Y5221D01*
X130733D01*
Y5382D01*
X131054D01*
Y5542D01*
X131375D01*
Y5703D01*
X131696D01*
Y5863D01*
X131856D01*
Y6023D01*
X132017D01*
Y6184D01*
X132177D01*
Y6344D01*
X132338D01*
Y6505D01*
X132498D01*
Y6665D01*
X132659D01*
Y6825D01*
Y6986D01*
X132819D01*
Y7146D01*
Y7307D01*
X132980D01*
Y7467D01*
Y7628D01*
Y7788D01*
Y7949D01*
Y8109D01*
X133140D01*
Y8269D01*
Y8430D01*
Y8590D01*
Y8751D01*
Y8911D01*
Y9072D01*
Y9232D01*
Y9392D01*
Y9553D01*
Y9713D01*
Y9874D01*
Y10034D01*
Y10195D01*
Y10355D01*
Y10515D01*
Y10676D01*
Y10836D01*
X132980D01*
Y10997D01*
Y11157D01*
Y11318D01*
Y11478D01*
Y11638D01*
X132819D01*
Y11799D01*
Y11959D01*
Y12120D01*
X132659D01*
Y12280D01*
Y12441D01*
X132498D01*
Y12601D01*
Y12762D01*
Y12922D01*
X132338D01*
Y13082D01*
X132177D01*
Y13243D01*
Y13403D01*
X132017D01*
Y13564D01*
Y13724D01*
X131856D01*
Y13884D01*
X131696D01*
Y14045D01*
Y14205D01*
X131536D01*
Y14366D01*
X131375D01*
Y14526D01*
X131215D01*
Y14687D01*
X131054D01*
Y14847D01*
X130894D01*
Y15008D01*
Y15168D01*
X130733D01*
Y15328D01*
X130573D01*
Y15489D01*
X130413D01*
Y15649D01*
X130092D01*
Y15810D01*
X129931D01*
Y15970D01*
X129771D01*
Y16131D01*
X129450D01*
Y16291D01*
X129289D01*
Y16452D01*
X129129D01*
Y16612D01*
X128808D01*
Y16772D01*
X128487D01*
Y16933D01*
X128166D01*
Y17093D01*
X127846D01*
Y17254D01*
X127525D01*
Y17414D01*
X127204D01*
Y17574D01*
X126723D01*
Y17735D01*
X126081D01*
Y17895D01*
X125439D01*
Y18056D01*
X124637D01*
Y18216D01*
X122872D01*
Y18377D01*
D02*
G37*
G36*
X116776D02*
X113407D01*
Y18216D01*
X111161D01*
Y18056D01*
X109877D01*
Y17895D01*
X108915D01*
Y17735D01*
X108273D01*
Y17574D01*
X107631D01*
Y17414D01*
X107310D01*
Y17254D01*
X106990D01*
Y17093D01*
X106669D01*
Y16933D01*
X106348D01*
Y16772D01*
X106027D01*
Y16612D01*
X105706D01*
Y16452D01*
X105546D01*
Y16291D01*
X105225D01*
Y16131D01*
X105064D01*
Y15970D01*
X104743D01*
Y15810D01*
X104583D01*
Y15649D01*
X104423D01*
Y15489D01*
X104102D01*
Y15328D01*
X103941D01*
Y15168D01*
X103781D01*
Y15008D01*
X103620D01*
Y14847D01*
X103460D01*
Y14687D01*
X103300D01*
Y14526D01*
X103139D01*
Y14366D01*
X102979D01*
Y14205D01*
X102818D01*
Y14045D01*
X102658D01*
Y13884D01*
X102497D01*
Y13724D01*
X102337D01*
Y13564D01*
Y13403D01*
X102176D01*
Y13243D01*
X102016D01*
Y13082D01*
Y12922D01*
X101856D01*
Y12762D01*
Y12601D01*
X101695D01*
Y12441D01*
Y12280D01*
X101535D01*
Y12120D01*
Y11959D01*
Y11799D01*
X101374D01*
Y11638D01*
Y11478D01*
Y11318D01*
X101214D01*
Y11157D01*
Y10997D01*
X101054D01*
Y10836D01*
Y10676D01*
Y10515D01*
Y10355D01*
Y10195D01*
Y10034D01*
X100893D01*
Y9874D01*
Y9713D01*
Y9553D01*
Y9392D01*
Y9232D01*
Y9072D01*
Y8911D01*
Y8751D01*
Y8590D01*
Y8430D01*
Y8269D01*
Y8109D01*
Y7949D01*
X101054D01*
Y7788D01*
Y7628D01*
Y7467D01*
Y7307D01*
Y7146D01*
Y6986D01*
X101214D01*
Y6825D01*
Y6665D01*
Y6505D01*
Y6344D01*
X101374D01*
Y6184D01*
Y6023D01*
X101535D01*
Y5863D01*
Y5703D01*
X101695D01*
Y5542D01*
X101856D01*
Y5382D01*
Y5221D01*
X102016D01*
Y5061D01*
X102176D01*
Y4900D01*
X102337D01*
Y4740D01*
X102497D01*
Y4580D01*
X102658D01*
Y4419D01*
X102818D01*
Y4259D01*
X102979D01*
Y4098D01*
X103139D01*
Y3938D01*
X103460D01*
Y3777D01*
X103781D01*
Y3617D01*
X104102D01*
Y3457D01*
X104423D01*
Y3296D01*
X104904D01*
Y3136D01*
X105385D01*
Y2975D01*
X106027D01*
Y2815D01*
X107471D01*
Y2975D01*
X108113D01*
Y3136D01*
X108754D01*
Y3296D01*
X109075D01*
Y3457D01*
X109556D01*
Y3617D01*
X109877D01*
Y3777D01*
X110198D01*
Y3938D01*
X110359D01*
Y4098D01*
X110679D01*
Y4259D01*
X110840D01*
Y4419D01*
X111161D01*
Y4580D01*
X111321D01*
Y4740D01*
X111482D01*
Y4900D01*
X111642D01*
Y5061D01*
X111802D01*
Y5221D01*
X111963D01*
Y5382D01*
X112123D01*
Y5542D01*
X112284D01*
Y5703D01*
X112444D01*
Y5863D01*
X112605D01*
Y6023D01*
X112765D01*
Y6184D01*
X112926D01*
Y6344D01*
X113086D01*
Y6505D01*
X113246D01*
Y6665D01*
X113407D01*
Y6825D01*
Y6986D01*
X113567D01*
Y7146D01*
X113728D01*
Y7307D01*
X113888D01*
Y7467D01*
Y7628D01*
X114049D01*
Y7788D01*
X114209D01*
Y7949D01*
Y8109D01*
X114369D01*
Y8269D01*
X114530D01*
Y8430D01*
Y8590D01*
X114690D01*
Y8751D01*
Y8911D01*
X114851D01*
Y9072D01*
Y9232D01*
X115011D01*
Y9392D01*
Y9553D01*
X115172D01*
Y9713D01*
Y9874D01*
Y10034D01*
X115332D01*
Y10195D01*
Y10355D01*
X115492D01*
Y10515D01*
Y10676D01*
Y10836D01*
X115653D01*
Y10997D01*
Y11157D01*
X115813D01*
Y11318D01*
Y11478D01*
Y11638D01*
Y11799D01*
X115974D01*
Y11959D01*
Y12120D01*
Y12280D01*
X116134D01*
Y12441D01*
Y12601D01*
Y12762D01*
Y12922D01*
X116295D01*
Y13082D01*
Y13243D01*
Y13403D01*
Y13564D01*
Y13724D01*
X116455D01*
Y13884D01*
Y14045D01*
Y14205D01*
Y14366D01*
Y14526D01*
Y14687D01*
Y14847D01*
X116615D01*
Y15008D01*
Y15168D01*
Y15328D01*
Y15489D01*
Y15649D01*
Y15810D01*
Y15970D01*
Y16131D01*
Y16291D01*
X116776D01*
Y16452D01*
Y16612D01*
Y16772D01*
Y16933D01*
Y17093D01*
Y17254D01*
Y17414D01*
Y17574D01*
Y17735D01*
Y17895D01*
Y18056D01*
Y18216D01*
Y18377D01*
D02*
G37*
G36*
X168756D02*
X165066D01*
Y18216D01*
Y18056D01*
Y17895D01*
Y17735D01*
Y17574D01*
Y17414D01*
Y17254D01*
Y17093D01*
Y16933D01*
Y16772D01*
Y16612D01*
Y16452D01*
Y16291D01*
Y16131D01*
Y15970D01*
Y15810D01*
Y15649D01*
Y15489D01*
X165226D01*
Y15328D01*
Y15168D01*
Y15008D01*
Y14847D01*
Y14687D01*
Y14526D01*
Y14366D01*
Y14205D01*
Y14045D01*
Y13884D01*
Y13724D01*
Y13564D01*
Y13403D01*
Y13243D01*
X165387D01*
Y13082D01*
Y12922D01*
Y12762D01*
Y12601D01*
Y12441D01*
Y12280D01*
X165547D01*
Y12120D01*
Y11959D01*
Y11799D01*
Y11638D01*
Y11478D01*
X165708D01*
Y11318D01*
Y11157D01*
Y10997D01*
Y10836D01*
Y10676D01*
X165868D01*
Y10515D01*
Y10355D01*
Y10195D01*
X166028D01*
Y10034D01*
Y9874D01*
Y9713D01*
Y9553D01*
X166189D01*
Y9392D01*
Y9232D01*
X166349D01*
Y9072D01*
Y8911D01*
X166510D01*
Y8751D01*
Y8590D01*
X166670D01*
Y8430D01*
Y8269D01*
X166831D01*
Y8109D01*
Y7949D01*
X166991D01*
Y7788D01*
X167151D01*
Y7628D01*
X167312D01*
Y7467D01*
X167472D01*
Y7307D01*
Y7146D01*
X167633D01*
Y6986D01*
X167793D01*
Y6825D01*
X167954D01*
Y6665D01*
X168114D01*
Y6505D01*
X168274D01*
Y6344D01*
X168435D01*
Y6184D01*
X168756D01*
Y6023D01*
X168916D01*
Y5863D01*
X169077D01*
Y5703D01*
X169397D01*
Y5542D01*
X169558D01*
Y5382D01*
X169879D01*
Y5221D01*
X170200D01*
Y5061D01*
X170521D01*
Y4900D01*
X170841D01*
Y4740D01*
X171323D01*
Y4580D01*
X171804D01*
Y4419D01*
X172446D01*
Y4259D01*
X173088D01*
Y4098D01*
X175494D01*
Y4259D01*
X176456D01*
Y4419D01*
X176938D01*
Y4580D01*
X177259D01*
Y4740D01*
X177419D01*
Y4900D01*
X177580D01*
Y5061D01*
X177740D01*
Y5221D01*
X177900D01*
Y5382D01*
X178061D01*
Y5542D01*
Y5703D01*
X178221D01*
Y5863D01*
X178382D01*
Y6023D01*
X178542D01*
Y6184D01*
Y6344D01*
X178703D01*
Y6505D01*
Y6665D01*
Y6825D01*
X178863D01*
Y6986D01*
Y7146D01*
Y7307D01*
X179024D01*
Y7467D01*
Y7628D01*
Y7788D01*
Y7949D01*
X179184D01*
Y8109D01*
Y8269D01*
Y8430D01*
Y8590D01*
Y8751D01*
Y8911D01*
Y9072D01*
X179344D01*
Y9232D01*
Y9392D01*
Y9553D01*
Y9713D01*
Y9874D01*
Y10034D01*
Y10195D01*
Y10355D01*
Y10515D01*
Y10676D01*
Y10836D01*
Y10997D01*
X179184D01*
Y11157D01*
Y11318D01*
Y11478D01*
Y11638D01*
Y11799D01*
Y11959D01*
X179024D01*
Y12120D01*
Y12280D01*
Y12441D01*
Y12601D01*
X178863D01*
Y12762D01*
Y12922D01*
Y13082D01*
X178703D01*
Y13243D01*
Y13403D01*
Y13564D01*
X178542D01*
Y13724D01*
Y13884D01*
X178382D01*
Y14045D01*
Y14205D01*
X178221D01*
Y14366D01*
Y14526D01*
X178061D01*
Y14687D01*
X177900D01*
Y14847D01*
Y15008D01*
X177740D01*
Y15168D01*
X177580D01*
Y15328D01*
X177419D01*
Y15489D01*
X177259D01*
Y15649D01*
X177098D01*
Y15810D01*
X176938D01*
Y15970D01*
X176777D01*
Y16131D01*
X176617D01*
Y16291D01*
X176296D01*
Y16452D01*
X175975D01*
Y16612D01*
X175654D01*
Y16772D01*
X175333D01*
Y16933D01*
X175013D01*
Y17093D01*
X174692D01*
Y17254D01*
X174211D01*
Y17414D01*
X173729D01*
Y17574D01*
X173088D01*
Y17735D01*
X172285D01*
Y17895D01*
X171483D01*
Y18056D01*
X170521D01*
Y18216D01*
X168756D01*
Y18377D01*
D02*
G37*
G36*
X163141D02*
X156082D01*
Y18216D01*
X154317D01*
Y18056D01*
X153354D01*
Y17895D01*
X152552D01*
Y17735D01*
X151750D01*
Y17574D01*
X151269D01*
Y17414D01*
X150627D01*
Y17254D01*
X150146D01*
Y17093D01*
X149664D01*
Y16933D01*
X149344D01*
Y16772D01*
X148862D01*
Y16612D01*
X148541D01*
Y16452D01*
X148060D01*
Y16291D01*
Y16131D01*
Y15970D01*
Y15810D01*
Y15649D01*
X148221D01*
Y15489D01*
Y15328D01*
Y15168D01*
Y15008D01*
Y14847D01*
Y14687D01*
Y14526D01*
Y14366D01*
Y14205D01*
Y14045D01*
Y13884D01*
Y13724D01*
Y13564D01*
Y13403D01*
Y13243D01*
Y13082D01*
Y12922D01*
Y12762D01*
Y12601D01*
Y12441D01*
Y12280D01*
Y12120D01*
Y11959D01*
Y11799D01*
Y11638D01*
Y11478D01*
Y11318D01*
X148060D01*
Y11157D01*
Y10997D01*
Y10836D01*
Y10676D01*
Y10515D01*
X147900D01*
Y10355D01*
Y10195D01*
Y10034D01*
Y9874D01*
Y9713D01*
X147739D01*
Y9553D01*
Y9392D01*
Y9232D01*
X147579D01*
Y9072D01*
Y8911D01*
Y8751D01*
X147418D01*
Y8590D01*
Y8430D01*
Y8269D01*
X147258D01*
Y8109D01*
X147418D01*
Y7949D01*
X147579D01*
Y7788D01*
X147900D01*
Y7628D01*
X148060D01*
Y7467D01*
X148381D01*
Y7307D01*
X148541D01*
Y7146D01*
X148862D01*
Y6986D01*
X149183D01*
Y6825D01*
X149504D01*
Y6665D01*
X149985D01*
Y6505D01*
X150306D01*
Y6344D01*
X150787D01*
Y6184D01*
X151269D01*
Y6023D01*
X151750D01*
Y5863D01*
X152713D01*
Y5703D01*
X153675D01*
Y5863D01*
X155280D01*
Y6023D01*
X155921D01*
Y6184D01*
X156242D01*
Y6344D01*
X156723D01*
Y6505D01*
X156884D01*
Y6665D01*
X157205D01*
Y6825D01*
X157526D01*
Y6986D01*
X157686D01*
Y7146D01*
X158007D01*
Y7307D01*
X158167D01*
Y7467D01*
X158328D01*
Y7628D01*
X158649D01*
Y7788D01*
X158809D01*
Y7949D01*
X158969D01*
Y8109D01*
X159290D01*
Y8269D01*
X159451D01*
Y8430D01*
Y8590D01*
X159611D01*
Y8751D01*
X159772D01*
Y8911D01*
X159932D01*
Y9072D01*
X160092D01*
Y9232D01*
X160253D01*
Y9392D01*
Y9553D01*
X160413D01*
Y9713D01*
X160574D01*
Y9874D01*
X160734D01*
Y10034D01*
Y10195D01*
X160895D01*
Y10355D01*
X161055D01*
Y10515D01*
Y10676D01*
X161215D01*
Y10836D01*
X161376D01*
Y10997D01*
Y11157D01*
X161536D01*
Y11318D01*
Y11478D01*
X161697D01*
Y11638D01*
X161857D01*
Y11799D01*
Y11959D01*
X162018D01*
Y12120D01*
Y12280D01*
X162178D01*
Y12441D01*
Y12601D01*
X162338D01*
Y12762D01*
Y12922D01*
X162499D01*
Y13082D01*
Y13243D01*
Y13403D01*
X162659D01*
Y13564D01*
Y13724D01*
Y13884D01*
Y14045D01*
X162820D01*
Y14205D01*
Y14366D01*
Y14526D01*
Y14687D01*
X162980D01*
Y14847D01*
Y15008D01*
Y15168D01*
Y15328D01*
Y15489D01*
Y15649D01*
Y15810D01*
X163141D01*
Y15970D01*
Y16131D01*
Y16291D01*
Y16452D01*
Y16612D01*
Y16772D01*
Y16933D01*
Y17093D01*
Y17254D01*
Y17414D01*
Y17574D01*
Y17735D01*
Y17895D01*
Y18056D01*
Y18216D01*
Y18377D01*
D02*
G37*
G36*
X156242Y36987D02*
X153033D01*
Y36826D01*
X152392D01*
Y36666D01*
X151910D01*
Y36505D01*
X151429D01*
Y36345D01*
X151108D01*
Y36185D01*
X150948D01*
Y36024D01*
X150627D01*
Y35864D01*
X150467D01*
Y35703D01*
X150146D01*
Y35543D01*
X149985D01*
Y35382D01*
X149825D01*
Y35222D01*
X149664D01*
Y35062D01*
X149504D01*
Y34901D01*
X149344D01*
Y34741D01*
X149183D01*
Y34580D01*
Y34420D01*
X149023D01*
Y34259D01*
X148862D01*
Y34099D01*
X148702D01*
Y33939D01*
Y33778D01*
X148541D01*
Y33618D01*
Y33457D01*
X148381D01*
Y33297D01*
X148221D01*
Y33136D01*
Y32976D01*
X148060D01*
Y32816D01*
Y32655D01*
Y32495D01*
X147900D01*
Y32334D01*
Y32174D01*
Y32013D01*
X147739D01*
Y31853D01*
Y31692D01*
Y31532D01*
Y31372D01*
X147579D01*
Y31211D01*
Y31051D01*
Y30890D01*
Y30730D01*
Y30569D01*
Y30409D01*
Y30249D01*
Y30088D01*
Y29928D01*
Y29767D01*
Y29607D01*
Y29446D01*
X147739D01*
Y29286D01*
Y29126D01*
Y28965D01*
Y28805D01*
Y28644D01*
Y28484D01*
X147900D01*
Y28323D01*
Y28163D01*
Y28003D01*
Y27842D01*
X148060D01*
Y27682D01*
Y27521D01*
Y27361D01*
X148221D01*
Y27200D01*
Y27040D01*
Y26880D01*
X148381D01*
Y26719D01*
Y26559D01*
X148541D01*
Y26398D01*
Y26238D01*
X148702D01*
Y26077D01*
Y25917D01*
X148862D01*
Y25756D01*
X149023D01*
Y25596D01*
Y25436D01*
X149183D01*
Y25275D01*
X149344D01*
Y25115D01*
Y24954D01*
X149504D01*
Y24794D01*
X149664D01*
Y24633D01*
X149825D01*
Y24473D01*
Y24313D01*
X149985D01*
Y24152D01*
X150146D01*
Y23992D01*
X150467D01*
Y23831D01*
X150627D01*
Y23671D01*
X150787D01*
Y23510D01*
X150948D01*
Y23350D01*
X151269D01*
Y23190D01*
X151590D01*
Y23029D01*
X151750D01*
Y22869D01*
X152071D01*
Y22708D01*
X152231D01*
Y22548D01*
X152552D01*
Y22387D01*
X152873D01*
Y22227D01*
X153194D01*
Y22067D01*
X153515D01*
Y21906D01*
X153836D01*
Y21746D01*
X154156D01*
Y21585D01*
X154638D01*
Y21425D01*
X155119D01*
Y21264D01*
X155600D01*
Y21104D01*
X156242D01*
Y20944D01*
X156884D01*
Y20783D01*
X157686D01*
Y20623D01*
X159130D01*
Y20462D01*
X161055D01*
Y20302D01*
X163301D01*
Y20462D01*
Y20623D01*
Y20783D01*
Y20944D01*
Y21104D01*
Y21264D01*
Y21425D01*
Y21585D01*
Y21746D01*
Y21906D01*
Y22067D01*
Y22227D01*
Y22387D01*
Y22548D01*
Y22708D01*
Y22869D01*
Y23029D01*
Y23190D01*
Y23350D01*
Y23510D01*
Y23671D01*
Y23831D01*
Y23992D01*
Y24152D01*
Y24313D01*
Y24473D01*
Y24633D01*
Y24794D01*
Y24954D01*
Y25115D01*
Y25275D01*
Y25436D01*
Y25596D01*
Y25756D01*
Y25917D01*
Y26077D01*
Y26238D01*
Y26398D01*
X163141D01*
Y26559D01*
Y26719D01*
Y26880D01*
Y27040D01*
Y27200D01*
Y27361D01*
Y27521D01*
Y27682D01*
Y27842D01*
Y28003D01*
X162980D01*
Y28163D01*
Y28323D01*
Y28484D01*
Y28644D01*
Y28805D01*
Y28965D01*
Y29126D01*
X162820D01*
Y29286D01*
Y29446D01*
Y29607D01*
Y29767D01*
Y29928D01*
Y30088D01*
X162659D01*
Y30249D01*
Y30409D01*
Y30569D01*
Y30730D01*
X162499D01*
Y30890D01*
Y31051D01*
Y31211D01*
Y31372D01*
X162338D01*
Y31532D01*
Y31692D01*
Y31853D01*
X162178D01*
Y32013D01*
Y32174D01*
X162018D01*
Y32334D01*
Y32495D01*
X161857D01*
Y32655D01*
Y32816D01*
X161697D01*
Y32976D01*
Y33136D01*
X161536D01*
Y33297D01*
Y33457D01*
X161376D01*
Y33618D01*
X161215D01*
Y33778D01*
X161055D01*
Y33939D01*
Y34099D01*
X160895D01*
Y34259D01*
X160734D01*
Y34420D01*
X160574D01*
Y34580D01*
X160413D01*
Y34741D01*
X160253D01*
Y34901D01*
X160092D01*
Y35062D01*
X159932D01*
Y35222D01*
X159772D01*
Y35382D01*
X159611D01*
Y35543D01*
X159451D01*
Y35703D01*
X159130D01*
Y35864D01*
X158969D01*
Y36024D01*
X158649D01*
Y36185D01*
X158328D01*
Y36345D01*
X158007D01*
Y36505D01*
X157526D01*
Y36666D01*
X157044D01*
Y36826D01*
X156242D01*
Y36987D01*
D02*
G37*
G36*
X107792Y33457D02*
X105064D01*
Y33297D01*
X104262D01*
Y33136D01*
X103781D01*
Y32976D01*
X103460D01*
Y32816D01*
X103139D01*
Y32655D01*
X102818D01*
Y32495D01*
X102658D01*
Y32334D01*
X102337D01*
Y32174D01*
X102176D01*
Y32013D01*
X102016D01*
Y31853D01*
X101856D01*
Y31692D01*
X101695D01*
Y31532D01*
X101535D01*
Y31372D01*
X101374D01*
Y31211D01*
X101214D01*
Y31051D01*
Y30890D01*
X101054D01*
Y30730D01*
X100893D01*
Y30569D01*
Y30409D01*
Y30249D01*
X100733D01*
Y30088D01*
Y29928D01*
X100572D01*
Y29767D01*
Y29607D01*
Y29446D01*
Y29286D01*
X100412D01*
Y29126D01*
Y28965D01*
Y28805D01*
Y28644D01*
Y28484D01*
X100251D01*
Y28323D01*
Y28163D01*
Y28003D01*
Y27842D01*
Y27682D01*
Y27521D01*
Y27361D01*
Y27200D01*
Y27040D01*
Y26880D01*
Y26719D01*
Y26559D01*
Y26398D01*
X100412D01*
Y26238D01*
Y26077D01*
Y25917D01*
Y25756D01*
X100572D01*
Y25596D01*
Y25436D01*
Y25275D01*
X100733D01*
Y25115D01*
Y24954D01*
X100893D01*
Y24794D01*
X101054D01*
Y24633D01*
Y24473D01*
X101214D01*
Y24313D01*
X101374D01*
Y24152D01*
X101535D01*
Y23992D01*
X101695D01*
Y23831D01*
Y23671D01*
X101856D01*
Y23510D01*
X102016D01*
Y23350D01*
X102176D01*
Y23190D01*
X102337D01*
Y23029D01*
X102658D01*
Y22869D01*
X102818D01*
Y22708D01*
X102979D01*
Y22548D01*
X103139D01*
Y22387D01*
X103460D01*
Y22227D01*
X103620D01*
Y22067D01*
X103941D01*
Y21906D01*
X104262D01*
Y21746D01*
X104583D01*
Y21585D01*
X104904D01*
Y21425D01*
X105385D01*
Y21264D01*
X105867D01*
Y21104D01*
X106348D01*
Y20944D01*
X107150D01*
Y20783D01*
X107952D01*
Y20623D01*
X109075D01*
Y20462D01*
X110519D01*
Y20302D01*
X112444D01*
Y20141D01*
X116615D01*
Y20302D01*
X116936D01*
Y20462D01*
Y20623D01*
Y20783D01*
Y20944D01*
Y21104D01*
Y21264D01*
Y21425D01*
Y21585D01*
Y21746D01*
Y21906D01*
Y22067D01*
Y22227D01*
Y22387D01*
Y22548D01*
Y22708D01*
Y22869D01*
Y23029D01*
X116776D01*
Y23190D01*
Y23350D01*
Y23510D01*
Y23671D01*
Y23831D01*
Y23992D01*
Y24152D01*
Y24313D01*
Y24473D01*
Y24633D01*
X116615D01*
Y24794D01*
Y24954D01*
Y25115D01*
Y25275D01*
Y25436D01*
Y25596D01*
Y25756D01*
Y25917D01*
X116455D01*
Y26077D01*
Y26238D01*
Y26398D01*
Y26559D01*
Y26719D01*
X116295D01*
Y26880D01*
Y27040D01*
Y27200D01*
Y27361D01*
X116134D01*
Y27521D01*
Y27682D01*
Y27842D01*
Y28003D01*
X115974D01*
Y28163D01*
Y28323D01*
X115813D01*
Y28484D01*
Y28644D01*
X115653D01*
Y28805D01*
Y28965D01*
X115492D01*
Y29126D01*
Y29286D01*
X115332D01*
Y29446D01*
X115172D01*
Y29607D01*
X115011D01*
Y29767D01*
Y29928D01*
X114851D01*
Y30088D01*
X114690D01*
Y30249D01*
X114530D01*
Y30409D01*
X114369D01*
Y30569D01*
X114209D01*
Y30730D01*
X114049D01*
Y30890D01*
X113888D01*
Y31051D01*
X113728D01*
Y31211D01*
X113567D01*
Y31372D01*
X113246D01*
Y31532D01*
X113086D01*
Y31692D01*
X112765D01*
Y31853D01*
X112605D01*
Y32013D01*
X112284D01*
Y32174D01*
X111963D01*
Y32334D01*
X111642D01*
Y32495D01*
X111321D01*
Y32655D01*
X110840D01*
Y32816D01*
X110359D01*
Y32976D01*
X109717D01*
Y33136D01*
X108754D01*
Y33297D01*
X107792D01*
Y33457D01*
D02*
G37*
G36*
X146456Y15008D02*
X146135D01*
Y14847D01*
X145975D01*
Y14687D01*
Y14526D01*
X145814D01*
Y14366D01*
Y14205D01*
X145654D01*
Y14045D01*
Y13884D01*
Y13724D01*
X145493D01*
Y13564D01*
Y13403D01*
Y13243D01*
X145333D01*
Y13082D01*
Y12922D01*
Y12762D01*
Y12601D01*
Y12441D01*
Y12280D01*
Y12120D01*
Y11959D01*
Y11799D01*
Y11638D01*
Y11478D01*
Y11318D01*
Y11157D01*
X145493D01*
Y10997D01*
Y10836D01*
Y10676D01*
X145654D01*
Y10515D01*
Y10355D01*
Y10195D01*
X145814D01*
Y10034D01*
X145975D01*
Y10195D01*
X146135D01*
Y10355D01*
Y10515D01*
Y10676D01*
Y10836D01*
X146295D01*
Y10997D01*
Y11157D01*
Y11318D01*
Y11478D01*
Y11638D01*
Y11799D01*
Y11959D01*
X146456D01*
Y12120D01*
Y12280D01*
Y12441D01*
Y12601D01*
Y12762D01*
Y12922D01*
Y13082D01*
Y13243D01*
Y13403D01*
Y13564D01*
Y13724D01*
Y13884D01*
Y14045D01*
Y14205D01*
Y14366D01*
Y14526D01*
Y14687D01*
Y14847D01*
Y15008D01*
D02*
G37*
%LPD*%
G36*
X1121080Y-83717D02*
Y-84003D01*
Y-84290D01*
Y-84576D01*
Y-84862D01*
Y-85149D01*
Y-85435D01*
Y-85721D01*
Y-86007D01*
Y-86294D01*
Y-86580D01*
Y-86866D01*
Y-87153D01*
Y-87439D01*
Y-87725D01*
Y-88012D01*
Y-88298D01*
Y-88584D01*
Y-88871D01*
Y-89157D01*
Y-89443D01*
X1120793D01*
Y-89730D01*
Y-90016D01*
Y-90302D01*
Y-90588D01*
Y-90875D01*
X1120507D01*
Y-91161D01*
Y-91448D01*
Y-91734D01*
Y-92020D01*
X1120221D01*
Y-92306D01*
Y-92593D01*
Y-92879D01*
Y-93165D01*
X1119934D01*
Y-93452D01*
Y-93738D01*
Y-94024D01*
X1119648D01*
Y-94311D01*
Y-94597D01*
Y-94883D01*
X1119362D01*
Y-95170D01*
Y-95456D01*
Y-95742D01*
X1119075D01*
Y-96029D01*
Y-96315D01*
Y-96601D01*
X1118789D01*
Y-96887D01*
Y-97174D01*
X1118503D01*
Y-97460D01*
Y-97746D01*
X1118217D01*
Y-98033D01*
Y-98319D01*
Y-98605D01*
X1117930D01*
Y-98892D01*
Y-99178D01*
X1117644D01*
Y-99464D01*
Y-99751D01*
Y-100037D01*
X1117358D01*
Y-100323D01*
Y-100610D01*
X1117071D01*
Y-100896D01*
Y-101182D01*
Y-101468D01*
X1116785D01*
Y-101755D01*
Y-102041D01*
X1116499D01*
Y-102327D01*
Y-102614D01*
Y-102900D01*
X1116212D01*
Y-103186D01*
Y-103473D01*
X1115926D01*
Y-103759D01*
Y-104045D01*
Y-104332D01*
X1115640D01*
Y-104618D01*
Y-104904D01*
X1115353D01*
Y-105191D01*
Y-105477D01*
Y-105763D01*
X1115067D01*
Y-106049D01*
Y-106336D01*
X1114781D01*
Y-106622D01*
Y-106908D01*
Y-107195D01*
X1114494D01*
Y-107481D01*
Y-107767D01*
X1114208D01*
Y-108054D01*
Y-108340D01*
Y-108626D01*
X1113922D01*
Y-108913D01*
Y-109199D01*
X1113636D01*
Y-109485D01*
Y-109772D01*
Y-110058D01*
X1113349D01*
Y-110344D01*
Y-110630D01*
X1113063D01*
Y-110917D01*
Y-111203D01*
Y-111489D01*
X1112776D01*
Y-111776D01*
Y-112062D01*
X1112490D01*
Y-112348D01*
Y-112635D01*
Y-112921D01*
X1112204D01*
Y-113207D01*
Y-113494D01*
X1111918D01*
Y-113780D01*
Y-114066D01*
Y-114353D01*
X1111631D01*
Y-114639D01*
Y-114925D01*
X1111345D01*
Y-115211D01*
Y-115498D01*
Y-115784D01*
X1111059D01*
Y-116070D01*
Y-116357D01*
X1110772D01*
Y-116643D01*
Y-116929D01*
Y-117216D01*
X1110486D01*
Y-117502D01*
Y-117788D01*
X1110200D01*
Y-118075D01*
Y-118361D01*
Y-118647D01*
X1109913D01*
Y-118933D01*
Y-119220D01*
X1109627D01*
Y-119506D01*
Y-119792D01*
Y-120079D01*
X1109341D01*
Y-120365D01*
Y-120651D01*
X1109054D01*
Y-120938D01*
Y-121224D01*
X1108768D01*
Y-121510D01*
Y-121797D01*
X1108482D01*
Y-122083D01*
Y-122369D01*
Y-122656D01*
X1108195D01*
Y-122942D01*
X1107909D01*
Y-123228D01*
Y-123514D01*
Y-123801D01*
X1107623D01*
Y-124087D01*
X1107337D01*
Y-124373D01*
Y-124660D01*
X1107050D01*
Y-124946D01*
Y-125232D01*
X1106764D01*
Y-125519D01*
Y-125805D01*
X1106478D01*
Y-126091D01*
Y-126378D01*
X1106191D01*
Y-126664D01*
X1105905D01*
Y-126950D01*
Y-127237D01*
X1105619D01*
Y-127523D01*
Y-127809D01*
X1105332D01*
Y-128095D01*
X1105046D01*
Y-128382D01*
X1104760D01*
Y-128668D01*
Y-128954D01*
X1104473D01*
Y-129241D01*
X1104187D01*
Y-129527D01*
Y-129813D01*
X1103901D01*
Y-130100D01*
X1103615D01*
Y-130386D01*
X1103328D01*
Y-130672D01*
Y-130959D01*
X1103042D01*
Y-131245D01*
X1102756D01*
Y-131531D01*
X1102469D01*
Y-131818D01*
X1102183D01*
Y-132104D01*
X1101897D01*
Y-132390D01*
Y-132676D01*
X1101610D01*
Y-132963D01*
X1101324D01*
Y-133249D01*
X1101038D01*
Y-133535D01*
X1100751D01*
Y-133822D01*
X1100465D01*
Y-134108D01*
X1100179D01*
Y-134394D01*
X1099892D01*
Y-134681D01*
X1099320D01*
Y-134967D01*
X1099034D01*
Y-135253D01*
X1098747D01*
Y-135540D01*
X1098461D01*
Y-135826D01*
X1098175D01*
Y-136112D01*
X1097602D01*
Y-136399D01*
X1097316D01*
Y-136685D01*
X1096743D01*
Y-136971D01*
X1096457D01*
Y-137258D01*
X1095884D01*
Y-137544D01*
X1095598D01*
Y-137830D01*
X1095025D01*
Y-138117D01*
X1094452D01*
Y-138403D01*
X1093880D01*
Y-138689D01*
X1093307D01*
Y-138975D01*
X1092735D01*
Y-139262D01*
X1091876D01*
Y-139548D01*
X1091303D01*
Y-139834D01*
X1090444D01*
Y-140121D01*
X1089299D01*
Y-140407D01*
X1088154D01*
Y-140693D01*
X1086436D01*
Y-140980D01*
X1084432D01*
Y-141266D01*
X1084145D01*
Y-140980D01*
Y-140693D01*
Y-140407D01*
Y-140121D01*
Y-139834D01*
Y-139548D01*
Y-139262D01*
Y-138975D01*
Y-138689D01*
Y-138403D01*
Y-138117D01*
Y-137830D01*
Y-137544D01*
Y-137258D01*
Y-136971D01*
Y-136685D01*
Y-136399D01*
Y-136112D01*
Y-135826D01*
Y-135540D01*
Y-135253D01*
Y-134967D01*
Y-134681D01*
Y-134394D01*
Y-134108D01*
Y-133822D01*
Y-133535D01*
Y-133249D01*
Y-132963D01*
Y-132676D01*
Y-132390D01*
Y-132104D01*
Y-131818D01*
X1084718D01*
Y-131531D01*
X1085291D01*
Y-131245D01*
X1085863D01*
Y-130959D01*
X1086436D01*
Y-130672D01*
X1087008D01*
Y-130386D01*
X1087581D01*
Y-130100D01*
X1087867D01*
Y-129813D01*
X1088440D01*
Y-129527D01*
X1088726D01*
Y-129241D01*
X1089299D01*
Y-128954D01*
X1089585D01*
Y-128668D01*
X1089872D01*
Y-128382D01*
X1090444D01*
Y-128095D01*
X1090730D01*
Y-127809D01*
X1091017D01*
Y-127523D01*
X1091303D01*
Y-127237D01*
X1091589D01*
Y-126950D01*
X1091876D01*
Y-126664D01*
X1092162D01*
Y-126378D01*
X1092448D01*
Y-126091D01*
X1092735D01*
Y-125805D01*
X1093021D01*
Y-125519D01*
X1093307D01*
Y-125232D01*
X1093594D01*
Y-124946D01*
Y-124660D01*
X1093880D01*
Y-124373D01*
X1094166D01*
Y-124087D01*
X1094452D01*
Y-123801D01*
Y-123514D01*
X1094739D01*
Y-123228D01*
X1095025D01*
Y-122942D01*
Y-122656D01*
X1095311D01*
Y-122369D01*
Y-122083D01*
X1095598D01*
Y-121797D01*
X1095884D01*
Y-121510D01*
Y-121224D01*
X1096170D01*
Y-120938D01*
Y-120651D01*
X1096457D01*
Y-120365D01*
Y-120079D01*
X1094739D01*
Y-119792D01*
X1092735D01*
Y-119506D01*
X1091589D01*
Y-119220D01*
X1091017D01*
Y-118933D01*
X1090158D01*
Y-118647D01*
X1089585D01*
Y-118361D01*
X1089299D01*
Y-118075D01*
X1088726D01*
Y-117788D01*
X1088440D01*
Y-117502D01*
X1088154D01*
Y-117216D01*
X1087867D01*
Y-116929D01*
X1087581D01*
Y-116643D01*
X1087295D01*
Y-116357D01*
Y-116070D01*
X1087008D01*
Y-115784D01*
X1086722D01*
Y-115498D01*
Y-115211D01*
X1086436D01*
Y-114925D01*
Y-114639D01*
X1086149D01*
Y-114353D01*
Y-114066D01*
X1085863D01*
Y-113780D01*
Y-113494D01*
Y-113207D01*
X1085577D01*
Y-112921D01*
Y-112635D01*
Y-112348D01*
Y-112062D01*
X1085291D01*
Y-111776D01*
Y-111489D01*
Y-111203D01*
Y-110917D01*
Y-110630D01*
Y-110344D01*
Y-110058D01*
X1085004D01*
Y-109772D01*
Y-109485D01*
Y-109199D01*
Y-108913D01*
Y-108626D01*
Y-108340D01*
Y-108054D01*
Y-107767D01*
Y-107481D01*
Y-107195D01*
Y-106908D01*
Y-106622D01*
Y-106336D01*
Y-106049D01*
Y-105763D01*
X1084718D01*
Y-105477D01*
Y-105191D01*
Y-104904D01*
Y-104618D01*
Y-104332D01*
Y-104045D01*
Y-103759D01*
Y-103473D01*
Y-103186D01*
Y-102900D01*
Y-102614D01*
Y-102327D01*
Y-102041D01*
Y-101755D01*
Y-101468D01*
X1084432D01*
Y-101182D01*
Y-100896D01*
Y-100610D01*
Y-100323D01*
Y-100037D01*
Y-99751D01*
Y-99464D01*
Y-99178D01*
Y-98892D01*
Y-98605D01*
Y-98319D01*
Y-98033D01*
Y-97746D01*
Y-97460D01*
Y-97174D01*
Y-96887D01*
X1084145D01*
Y-96601D01*
Y-96315D01*
Y-96029D01*
Y-95742D01*
Y-95456D01*
Y-95170D01*
Y-94883D01*
Y-94597D01*
Y-94311D01*
Y-94024D01*
Y-93738D01*
Y-93452D01*
Y-93165D01*
Y-92879D01*
Y-92593D01*
Y-92306D01*
X1083859D01*
Y-92020D01*
Y-91734D01*
Y-91448D01*
Y-91161D01*
Y-90875D01*
Y-90588D01*
Y-90302D01*
Y-90016D01*
Y-89730D01*
Y-89443D01*
Y-89157D01*
Y-88871D01*
Y-88584D01*
Y-88298D01*
X1083573D01*
Y-88012D01*
Y-87725D01*
Y-87439D01*
Y-87153D01*
Y-86866D01*
Y-86580D01*
Y-86294D01*
Y-86007D01*
Y-85721D01*
Y-85435D01*
Y-85149D01*
Y-84862D01*
Y-84576D01*
Y-84290D01*
Y-84003D01*
Y-83717D01*
X1083286D01*
Y-83431D01*
X1097029D01*
Y-83717D01*
Y-84003D01*
Y-84290D01*
Y-84576D01*
Y-84862D01*
Y-85149D01*
Y-85435D01*
Y-85721D01*
Y-86007D01*
Y-86294D01*
Y-86580D01*
Y-86866D01*
Y-87153D01*
Y-87439D01*
X1097316D01*
Y-87725D01*
Y-88012D01*
Y-88298D01*
Y-88584D01*
Y-88871D01*
Y-89157D01*
Y-89443D01*
Y-89730D01*
Y-90016D01*
Y-90302D01*
Y-90588D01*
Y-90875D01*
Y-91161D01*
Y-91448D01*
Y-91734D01*
Y-92020D01*
Y-92306D01*
Y-92593D01*
Y-92879D01*
Y-93165D01*
Y-93452D01*
Y-93738D01*
Y-94024D01*
Y-94311D01*
Y-94597D01*
Y-94883D01*
Y-95170D01*
Y-95456D01*
Y-95742D01*
Y-96029D01*
Y-96315D01*
Y-96601D01*
Y-96887D01*
Y-97174D01*
Y-97460D01*
Y-97746D01*
Y-98033D01*
Y-98319D01*
Y-98605D01*
Y-98892D01*
Y-99178D01*
X1097602D01*
Y-99464D01*
X1097316D01*
Y-99751D01*
Y-100037D01*
X1097602D01*
Y-100323D01*
Y-100610D01*
Y-100896D01*
Y-101182D01*
Y-101468D01*
Y-101755D01*
Y-102041D01*
Y-102327D01*
Y-102614D01*
Y-102900D01*
Y-103186D01*
Y-103473D01*
Y-103759D01*
Y-104045D01*
Y-104332D01*
Y-104618D01*
Y-104904D01*
Y-105191D01*
Y-105477D01*
Y-105763D01*
Y-106049D01*
Y-106336D01*
Y-106622D01*
Y-106908D01*
Y-107195D01*
Y-107481D01*
X1097888D01*
Y-107767D01*
Y-108054D01*
Y-108340D01*
X1098175D01*
Y-108626D01*
X1098461D01*
Y-108913D01*
X1098747D01*
Y-109199D01*
X1099606D01*
Y-109485D01*
X1100465D01*
Y-109199D01*
X1100751D01*
Y-108913D01*
Y-108626D01*
Y-108340D01*
X1101038D01*
Y-108054D01*
Y-107767D01*
X1101324D01*
Y-107481D01*
Y-107195D01*
Y-106908D01*
X1101610D01*
Y-106622D01*
Y-106336D01*
Y-106049D01*
X1101897D01*
Y-105763D01*
Y-105477D01*
Y-105191D01*
X1102183D01*
Y-104904D01*
Y-104618D01*
Y-104332D01*
X1102469D01*
Y-104045D01*
Y-103759D01*
X1102756D01*
Y-103473D01*
Y-103186D01*
Y-102900D01*
X1103042D01*
Y-102614D01*
Y-102327D01*
Y-102041D01*
X1103328D01*
Y-101755D01*
Y-101468D01*
Y-101182D01*
X1103615D01*
Y-100896D01*
Y-100610D01*
X1103901D01*
Y-100323D01*
Y-100037D01*
Y-99751D01*
X1104187D01*
Y-99464D01*
Y-99178D01*
Y-98892D01*
X1104473D01*
Y-98605D01*
Y-98319D01*
Y-98033D01*
X1104760D01*
Y-97746D01*
Y-97460D01*
X1105046D01*
Y-97174D01*
Y-96887D01*
Y-96601D01*
X1105332D01*
Y-96315D01*
Y-96029D01*
Y-95742D01*
X1105619D01*
Y-95456D01*
Y-95170D01*
Y-94883D01*
X1105905D01*
Y-94597D01*
Y-94311D01*
X1106191D01*
Y-94024D01*
Y-93738D01*
Y-93452D01*
X1106478D01*
Y-93165D01*
Y-92879D01*
Y-92593D01*
X1106764D01*
Y-92306D01*
Y-92020D01*
Y-91734D01*
X1107050D01*
Y-91448D01*
Y-91161D01*
Y-90875D01*
Y-90588D01*
X1107337D01*
Y-90302D01*
Y-90016D01*
Y-89730D01*
Y-89443D01*
X1107623D01*
Y-89157D01*
Y-88871D01*
Y-88584D01*
Y-88298D01*
Y-88012D01*
X1107909D01*
Y-87725D01*
Y-87439D01*
Y-87153D01*
Y-86866D01*
Y-86580D01*
Y-86294D01*
X1108195D01*
Y-86007D01*
Y-85721D01*
Y-85435D01*
Y-85149D01*
Y-84862D01*
Y-84576D01*
Y-84290D01*
Y-84003D01*
Y-83717D01*
Y-83431D01*
X1121080D01*
Y-83717D01*
D02*
G37*
G36*
X1063244Y-66252D02*
Y-66538D01*
X1062958D01*
Y-66825D01*
Y-67111D01*
Y-67397D01*
Y-67684D01*
Y-67970D01*
Y-68256D01*
X1062672D01*
Y-68542D01*
Y-68829D01*
Y-69115D01*
Y-69401D01*
Y-69688D01*
Y-69974D01*
X1062385D01*
Y-70260D01*
Y-70547D01*
Y-70833D01*
Y-71119D01*
Y-71406D01*
Y-71692D01*
Y-71978D01*
X1062099D01*
Y-72264D01*
Y-72551D01*
Y-72837D01*
Y-73123D01*
Y-73410D01*
Y-73696D01*
X1061813D01*
Y-73982D01*
Y-74269D01*
Y-74555D01*
Y-74841D01*
Y-75128D01*
Y-75414D01*
X1061526D01*
Y-75700D01*
Y-75987D01*
Y-76273D01*
Y-76559D01*
Y-76846D01*
Y-77132D01*
Y-77418D01*
X1061240D01*
Y-77704D01*
Y-77991D01*
Y-78277D01*
Y-78563D01*
Y-78850D01*
Y-79136D01*
X1060954D01*
Y-79422D01*
Y-79709D01*
Y-79995D01*
Y-80281D01*
Y-80568D01*
Y-80854D01*
X1060668D01*
Y-81140D01*
Y-81427D01*
Y-81713D01*
Y-81999D01*
Y-82285D01*
Y-82572D01*
X1060381D01*
Y-82858D01*
Y-83144D01*
Y-83431D01*
Y-83717D01*
Y-84003D01*
Y-84290D01*
Y-84576D01*
X1060095D01*
Y-84862D01*
Y-85149D01*
Y-85435D01*
Y-85721D01*
Y-86007D01*
Y-86294D01*
X1059809D01*
Y-86580D01*
Y-86866D01*
X1060381D01*
Y-86580D01*
X1060668D01*
Y-86294D01*
X1060954D01*
Y-86007D01*
X1061526D01*
Y-85721D01*
X1061813D01*
Y-85435D01*
X1062099D01*
Y-85149D01*
X1062672D01*
Y-84862D01*
X1063244D01*
Y-84576D01*
X1063531D01*
Y-84290D01*
X1064103D01*
Y-84003D01*
X1064962D01*
Y-83717D01*
X1065535D01*
Y-83431D01*
X1066394D01*
Y-83144D01*
X1067825D01*
Y-82858D01*
X1074124D01*
Y-83144D01*
X1075270D01*
Y-83431D01*
X1076128D01*
Y-83717D01*
X1076701D01*
Y-84003D01*
X1076987D01*
Y-84290D01*
X1077560D01*
Y-84576D01*
X1077846D01*
Y-84862D01*
X1078133D01*
Y-85149D01*
X1078419D01*
Y-85435D01*
X1078705D01*
Y-85721D01*
Y-86007D01*
X1078992D01*
Y-86294D01*
Y-86580D01*
X1079278D01*
Y-86866D01*
Y-87153D01*
Y-87439D01*
X1079564D01*
Y-87725D01*
Y-88012D01*
Y-88298D01*
Y-88584D01*
X1079850D01*
Y-88871D01*
Y-89157D01*
Y-89443D01*
Y-89730D01*
Y-90016D01*
Y-90302D01*
Y-90588D01*
Y-90875D01*
Y-91161D01*
Y-91448D01*
Y-91734D01*
Y-92020D01*
Y-92306D01*
Y-92593D01*
Y-92879D01*
Y-93165D01*
Y-93452D01*
Y-93738D01*
X1079564D01*
Y-94024D01*
Y-94311D01*
Y-94597D01*
Y-94883D01*
Y-95170D01*
Y-95456D01*
Y-95742D01*
X1079278D01*
Y-96029D01*
Y-96315D01*
Y-96601D01*
Y-96887D01*
Y-97174D01*
Y-97460D01*
Y-97746D01*
X1078992D01*
Y-98033D01*
Y-98319D01*
Y-98605D01*
Y-98892D01*
Y-99178D01*
Y-99464D01*
X1078705D01*
Y-99751D01*
Y-100037D01*
Y-100323D01*
Y-100610D01*
Y-100896D01*
Y-101182D01*
X1078419D01*
Y-101468D01*
Y-101755D01*
Y-102041D01*
Y-102327D01*
Y-102614D01*
Y-102900D01*
X1078133D01*
Y-103186D01*
Y-103473D01*
Y-103759D01*
Y-104045D01*
Y-104332D01*
Y-104618D01*
Y-104904D01*
X1077846D01*
Y-105191D01*
Y-105477D01*
Y-105763D01*
Y-106049D01*
Y-106336D01*
Y-106622D01*
X1077560D01*
Y-106908D01*
Y-107195D01*
Y-107481D01*
Y-107767D01*
Y-108054D01*
Y-108340D01*
X1077274D01*
Y-108626D01*
Y-108913D01*
Y-109199D01*
Y-109485D01*
Y-109772D01*
Y-110058D01*
Y-110344D01*
X1076987D01*
Y-110630D01*
Y-110917D01*
Y-111203D01*
Y-111489D01*
Y-111776D01*
Y-112062D01*
X1076701D01*
Y-112348D01*
Y-112635D01*
Y-112921D01*
Y-113207D01*
Y-113494D01*
Y-113780D01*
X1076415D01*
Y-114066D01*
Y-114353D01*
Y-114639D01*
Y-114925D01*
Y-115211D01*
Y-115498D01*
X1076128D01*
Y-115784D01*
Y-116070D01*
Y-116357D01*
Y-116643D01*
Y-116929D01*
Y-117216D01*
Y-117502D01*
X1075842D01*
Y-117788D01*
Y-118075D01*
Y-118361D01*
Y-118647D01*
Y-118933D01*
Y-119220D01*
X1075556D01*
Y-119506D01*
Y-119792D01*
X1062385D01*
Y-119506D01*
Y-119220D01*
X1062672D01*
Y-118933D01*
Y-118647D01*
Y-118361D01*
Y-118075D01*
Y-117788D01*
Y-117502D01*
X1062958D01*
Y-117216D01*
Y-116929D01*
Y-116643D01*
Y-116357D01*
Y-116070D01*
Y-115784D01*
Y-115498D01*
X1063244D01*
Y-115211D01*
Y-114925D01*
Y-114639D01*
Y-114353D01*
Y-114066D01*
Y-113780D01*
X1063531D01*
Y-113494D01*
Y-113207D01*
Y-112921D01*
Y-112635D01*
Y-112348D01*
Y-112062D01*
X1063817D01*
Y-111776D01*
Y-111489D01*
Y-111203D01*
Y-110917D01*
Y-110630D01*
Y-110344D01*
Y-110058D01*
X1064103D01*
Y-109772D01*
Y-109485D01*
Y-109199D01*
Y-108913D01*
Y-108626D01*
Y-108340D01*
X1064390D01*
Y-108054D01*
Y-107767D01*
Y-107481D01*
Y-107195D01*
Y-106908D01*
Y-106622D01*
Y-106336D01*
X1064676D01*
Y-106049D01*
Y-105763D01*
Y-105477D01*
Y-105191D01*
Y-104904D01*
Y-104618D01*
X1064962D01*
Y-104332D01*
Y-104045D01*
Y-103759D01*
Y-103473D01*
Y-103186D01*
Y-102900D01*
X1065249D01*
Y-102614D01*
Y-102327D01*
Y-102041D01*
Y-101755D01*
Y-101468D01*
Y-101182D01*
X1065535D01*
Y-100896D01*
Y-100610D01*
Y-100323D01*
Y-100037D01*
Y-99751D01*
Y-99464D01*
Y-99178D01*
X1065821D01*
Y-98892D01*
Y-98605D01*
Y-98319D01*
Y-98033D01*
Y-97746D01*
Y-97460D01*
X1066107D01*
Y-97174D01*
Y-96887D01*
Y-96601D01*
Y-96315D01*
Y-96029D01*
Y-95742D01*
Y-95456D01*
X1066394D01*
Y-95170D01*
Y-94883D01*
Y-94597D01*
Y-94311D01*
Y-94024D01*
Y-93738D01*
X1066107D01*
Y-93452D01*
Y-93165D01*
X1065821D01*
Y-92879D01*
X1065535D01*
Y-92593D01*
X1064962D01*
Y-92306D01*
X1063244D01*
Y-92593D01*
X1061813D01*
Y-92879D01*
X1060954D01*
Y-93165D01*
X1060381D01*
Y-93452D01*
X1060095D01*
Y-93738D01*
X1059522D01*
Y-94024D01*
X1059236D01*
Y-94311D01*
X1058950D01*
Y-94597D01*
Y-94883D01*
X1058663D01*
Y-95170D01*
Y-95456D01*
Y-95742D01*
X1058377D01*
Y-96029D01*
Y-96315D01*
Y-96601D01*
Y-96887D01*
Y-97174D01*
Y-97460D01*
X1058091D01*
Y-97746D01*
Y-98033D01*
Y-98319D01*
Y-98605D01*
Y-98892D01*
Y-99178D01*
Y-99464D01*
X1057804D01*
Y-99751D01*
Y-100037D01*
Y-100323D01*
Y-100610D01*
Y-100896D01*
Y-101182D01*
X1057518D01*
Y-101468D01*
Y-101755D01*
Y-102041D01*
Y-102327D01*
Y-102614D01*
Y-102900D01*
X1057232D01*
Y-103186D01*
Y-103473D01*
Y-103759D01*
Y-104045D01*
Y-104332D01*
Y-104618D01*
X1056946D01*
Y-104904D01*
Y-105191D01*
Y-105477D01*
Y-105763D01*
Y-106049D01*
Y-106336D01*
Y-106622D01*
X1056659D01*
Y-106908D01*
Y-107195D01*
Y-107481D01*
Y-107767D01*
Y-108054D01*
Y-108340D01*
X1056373D01*
Y-108626D01*
Y-108913D01*
Y-109199D01*
Y-109485D01*
Y-109772D01*
Y-110058D01*
X1056087D01*
Y-110344D01*
Y-110630D01*
Y-110917D01*
Y-111203D01*
Y-111489D01*
Y-111776D01*
Y-112062D01*
X1055800D01*
Y-112348D01*
Y-112635D01*
Y-112921D01*
Y-113207D01*
Y-113494D01*
Y-113780D01*
X1055514D01*
Y-114066D01*
Y-114353D01*
Y-114639D01*
Y-114925D01*
Y-115211D01*
Y-115498D01*
X1055228D01*
Y-115784D01*
Y-116070D01*
Y-116357D01*
Y-116643D01*
Y-116929D01*
Y-117216D01*
X1054941D01*
Y-117502D01*
Y-117788D01*
Y-118075D01*
Y-118361D01*
Y-118647D01*
Y-118933D01*
Y-119220D01*
X1054655D01*
Y-119506D01*
Y-119792D01*
X1041485D01*
Y-119506D01*
Y-119220D01*
X1041771D01*
Y-118933D01*
Y-118647D01*
Y-118361D01*
Y-118075D01*
Y-117788D01*
Y-117502D01*
Y-117216D01*
X1042057D01*
Y-116929D01*
Y-116643D01*
Y-116357D01*
Y-116070D01*
Y-115784D01*
Y-115498D01*
X1042344D01*
Y-115211D01*
Y-114925D01*
Y-114639D01*
Y-114353D01*
Y-114066D01*
Y-113780D01*
X1042630D01*
Y-113494D01*
Y-113207D01*
Y-112921D01*
Y-112635D01*
Y-112348D01*
Y-112062D01*
Y-111776D01*
X1042916D01*
Y-111489D01*
Y-111203D01*
Y-110917D01*
Y-110630D01*
Y-110344D01*
Y-110058D01*
X1043202D01*
Y-109772D01*
Y-109485D01*
Y-109199D01*
Y-108913D01*
Y-108626D01*
Y-108340D01*
X1043489D01*
Y-108054D01*
Y-107767D01*
Y-107481D01*
Y-107195D01*
Y-106908D01*
Y-106622D01*
X1043775D01*
Y-106336D01*
Y-106049D01*
Y-105763D01*
Y-105477D01*
Y-105191D01*
Y-104904D01*
Y-104618D01*
X1044061D01*
Y-104332D01*
Y-104045D01*
Y-103759D01*
Y-103473D01*
Y-103186D01*
Y-102900D01*
X1044348D01*
Y-102614D01*
Y-102327D01*
Y-102041D01*
Y-101755D01*
Y-101468D01*
Y-101182D01*
X1044634D01*
Y-100896D01*
Y-100610D01*
Y-100323D01*
Y-100037D01*
Y-99751D01*
Y-99464D01*
Y-99178D01*
X1044920D01*
Y-98892D01*
Y-98605D01*
Y-98319D01*
Y-98033D01*
Y-97746D01*
Y-97460D01*
X1045207D01*
Y-97174D01*
Y-96887D01*
Y-96601D01*
Y-96315D01*
Y-96029D01*
Y-95742D01*
X1045493D01*
Y-95456D01*
Y-95170D01*
Y-94883D01*
Y-94597D01*
Y-94311D01*
Y-94024D01*
X1045779D01*
Y-93738D01*
Y-93452D01*
Y-93165D01*
Y-92879D01*
Y-92593D01*
Y-92306D01*
Y-92020D01*
X1046066D01*
Y-91734D01*
Y-91448D01*
Y-91161D01*
Y-90875D01*
Y-90588D01*
Y-90302D01*
X1046352D01*
Y-90016D01*
Y-89730D01*
Y-89443D01*
Y-89157D01*
Y-88871D01*
Y-88584D01*
X1046638D01*
Y-88298D01*
Y-88012D01*
Y-87725D01*
Y-87439D01*
Y-87153D01*
Y-86866D01*
X1046925D01*
Y-86580D01*
Y-86294D01*
Y-86007D01*
Y-85721D01*
Y-85435D01*
Y-85149D01*
Y-84862D01*
X1047211D01*
Y-84576D01*
Y-84290D01*
Y-84003D01*
Y-83717D01*
Y-83431D01*
Y-83144D01*
X1047497D01*
Y-82858D01*
Y-82572D01*
Y-82285D01*
Y-81999D01*
Y-81713D01*
Y-81427D01*
X1047783D01*
Y-81140D01*
Y-80854D01*
Y-80568D01*
Y-80281D01*
Y-79995D01*
Y-79709D01*
Y-79422D01*
X1048070D01*
Y-79136D01*
Y-78850D01*
Y-78563D01*
Y-78277D01*
Y-77991D01*
Y-77704D01*
X1048356D01*
Y-77418D01*
Y-77132D01*
Y-76846D01*
Y-76559D01*
Y-76273D01*
Y-75987D01*
X1048642D01*
Y-75700D01*
Y-75414D01*
Y-75128D01*
Y-74841D01*
Y-74555D01*
Y-74269D01*
X1048929D01*
Y-73982D01*
Y-73696D01*
Y-73410D01*
Y-73123D01*
Y-72837D01*
Y-72551D01*
Y-72264D01*
X1049215D01*
Y-71978D01*
Y-71692D01*
Y-71406D01*
Y-71119D01*
Y-70833D01*
Y-70547D01*
X1049501D01*
Y-70260D01*
Y-69974D01*
Y-69688D01*
Y-69401D01*
Y-69115D01*
Y-68829D01*
X1049788D01*
Y-68542D01*
Y-68256D01*
Y-67970D01*
Y-67684D01*
Y-67397D01*
Y-67111D01*
Y-66825D01*
X1050074D01*
Y-66538D01*
Y-66252D01*
Y-65966D01*
X1063244D01*
Y-66252D01*
D02*
G37*
G36*
X1032036Y-69688D02*
X1033754D01*
Y-69974D01*
X1034613D01*
Y-70260D01*
X1035472D01*
Y-70547D01*
X1036331D01*
Y-70833D01*
X1036904D01*
Y-71119D01*
X1037190D01*
Y-71406D01*
X1037763D01*
Y-71692D01*
X1038049D01*
Y-71978D01*
X1038622D01*
Y-72264D01*
X1038908D01*
Y-72551D01*
X1039194D01*
Y-72837D01*
X1039480D01*
Y-73123D01*
X1039767D01*
Y-73410D01*
X1040053D01*
Y-73696D01*
X1040339D01*
Y-73982D01*
Y-74269D01*
X1040626D01*
Y-74555D01*
X1040912D01*
Y-74841D01*
Y-75128D01*
X1041198D01*
Y-75414D01*
X1041485D01*
Y-75700D01*
Y-75987D01*
X1041771D01*
Y-76273D01*
Y-76559D01*
Y-76846D01*
X1042057D01*
Y-77132D01*
Y-77418D01*
Y-77704D01*
X1042344D01*
Y-77991D01*
Y-78277D01*
Y-78563D01*
Y-78850D01*
X1042630D01*
Y-79136D01*
Y-79422D01*
Y-79709D01*
Y-79995D01*
Y-80281D01*
X1042916D01*
Y-80568D01*
Y-80854D01*
Y-81140D01*
Y-81427D01*
Y-81713D01*
Y-81999D01*
Y-82285D01*
Y-82572D01*
Y-82858D01*
Y-83144D01*
Y-83431D01*
Y-83717D01*
Y-84003D01*
Y-84290D01*
Y-84576D01*
Y-84862D01*
Y-85149D01*
Y-85435D01*
Y-85721D01*
Y-86007D01*
X1042630D01*
Y-86294D01*
Y-86580D01*
Y-86866D01*
Y-87153D01*
Y-87439D01*
Y-87725D01*
Y-88012D01*
X1042344D01*
Y-88298D01*
Y-88584D01*
Y-88871D01*
Y-89157D01*
Y-89443D01*
X1042057D01*
Y-89730D01*
Y-90016D01*
Y-90302D01*
Y-90588D01*
Y-90875D01*
X1041771D01*
Y-91161D01*
Y-91448D01*
Y-91734D01*
X1041485D01*
Y-92020D01*
Y-92306D01*
Y-92593D01*
Y-92879D01*
X1041198D01*
Y-93165D01*
Y-93452D01*
Y-93738D01*
X1040912D01*
Y-94024D01*
Y-94311D01*
X1040626D01*
Y-94597D01*
Y-94883D01*
Y-95170D01*
X1040339D01*
Y-95456D01*
Y-95742D01*
X1040053D01*
Y-96029D01*
Y-96315D01*
X1039767D01*
Y-96601D01*
Y-96887D01*
X1039480D01*
Y-97174D01*
X1039194D01*
Y-97460D01*
Y-97746D01*
X1038908D01*
Y-98033D01*
X1038622D01*
Y-98319D01*
X1038335D01*
Y-98605D01*
Y-98892D01*
X1038049D01*
Y-99178D01*
X1037763D01*
Y-99464D01*
X1037476D01*
Y-99751D01*
X1037190D01*
Y-100037D01*
X1036904D01*
Y-100323D01*
X1036331D01*
Y-100610D01*
X1036045D01*
Y-100896D01*
X1035472D01*
Y-101182D01*
X1035186D01*
Y-101468D01*
X1034613D01*
Y-101755D01*
X1033754D01*
Y-102041D01*
X1032895D01*
Y-102327D01*
X1032036D01*
Y-102614D01*
X1030318D01*
Y-102900D01*
X1025165D01*
Y-102614D01*
X1022588D01*
Y-102327D01*
X1020584D01*
Y-102041D01*
X1019152D01*
Y-101755D01*
X1017721D01*
Y-101468D01*
X1016289D01*
Y-101755D01*
Y-102041D01*
Y-102327D01*
Y-102614D01*
Y-102900D01*
Y-103186D01*
Y-103473D01*
X1016003D01*
Y-103759D01*
Y-104045D01*
Y-104332D01*
Y-104618D01*
Y-104904D01*
Y-105191D01*
X1015716D01*
Y-105477D01*
Y-105763D01*
Y-106049D01*
Y-106336D01*
Y-106622D01*
Y-106908D01*
X1015430D01*
Y-107195D01*
Y-107481D01*
Y-107767D01*
Y-108054D01*
Y-108340D01*
Y-108626D01*
Y-108913D01*
X1015144D01*
Y-109199D01*
Y-109485D01*
Y-109772D01*
Y-110058D01*
Y-110344D01*
Y-110630D01*
X1014857D01*
Y-110917D01*
Y-111203D01*
Y-111489D01*
Y-111776D01*
Y-112062D01*
Y-112348D01*
X1014571D01*
Y-112635D01*
Y-112921D01*
Y-113207D01*
Y-113494D01*
Y-113780D01*
Y-114066D01*
Y-114353D01*
X1014285D01*
Y-114639D01*
Y-114925D01*
Y-115211D01*
Y-115498D01*
Y-115784D01*
Y-116070D01*
X1013999D01*
Y-116357D01*
Y-116643D01*
Y-116929D01*
Y-117216D01*
Y-117502D01*
Y-117788D01*
X1013712D01*
Y-118075D01*
Y-118361D01*
Y-118647D01*
Y-118933D01*
Y-119220D01*
Y-119506D01*
Y-119792D01*
X1000256D01*
Y-119506D01*
X1000542D01*
Y-119220D01*
Y-118933D01*
Y-118647D01*
Y-118361D01*
Y-118075D01*
X1000828D01*
Y-117788D01*
Y-117502D01*
Y-117216D01*
Y-116929D01*
Y-116643D01*
Y-116357D01*
Y-116070D01*
X1001114D01*
Y-115784D01*
Y-115498D01*
Y-115211D01*
Y-114925D01*
Y-114639D01*
Y-114353D01*
X1001401D01*
Y-114066D01*
Y-113780D01*
Y-113494D01*
Y-113207D01*
Y-112921D01*
Y-112635D01*
X1001687D01*
Y-112348D01*
Y-112062D01*
Y-111776D01*
Y-111489D01*
Y-111203D01*
Y-110917D01*
Y-110630D01*
X1001974D01*
Y-110344D01*
Y-110058D01*
Y-109772D01*
Y-109485D01*
Y-109199D01*
Y-108913D01*
X1002260D01*
Y-108626D01*
Y-108340D01*
Y-108054D01*
Y-107767D01*
Y-107481D01*
Y-107195D01*
X1002546D01*
Y-106908D01*
Y-106622D01*
Y-106336D01*
Y-106049D01*
Y-105763D01*
Y-105477D01*
X1002832D01*
Y-105191D01*
Y-104904D01*
Y-104618D01*
Y-104332D01*
Y-104045D01*
Y-103759D01*
Y-103473D01*
X1003119D01*
Y-103186D01*
Y-102900D01*
Y-102614D01*
Y-102327D01*
Y-102041D01*
Y-101755D01*
X1003405D01*
Y-101468D01*
Y-101182D01*
Y-100896D01*
Y-100610D01*
Y-100323D01*
Y-100037D01*
X1003691D01*
Y-99751D01*
Y-99464D01*
Y-99178D01*
Y-98892D01*
Y-98605D01*
Y-98319D01*
X1003978D01*
Y-98033D01*
Y-97746D01*
Y-97460D01*
Y-97174D01*
Y-96887D01*
Y-96601D01*
Y-96315D01*
X1004264D01*
Y-96029D01*
Y-95742D01*
Y-95456D01*
Y-95170D01*
Y-94883D01*
Y-94597D01*
X1004550D01*
Y-94311D01*
Y-94024D01*
Y-93738D01*
Y-93452D01*
Y-93165D01*
Y-92879D01*
X1004837D01*
Y-92593D01*
Y-92306D01*
Y-92020D01*
Y-91734D01*
Y-91448D01*
Y-91161D01*
Y-90875D01*
X1005123D01*
Y-90588D01*
Y-90302D01*
Y-90016D01*
Y-89730D01*
Y-89443D01*
Y-89157D01*
X1005409D01*
Y-88871D01*
Y-88584D01*
Y-88298D01*
Y-88012D01*
Y-87725D01*
Y-87439D01*
X1005696D01*
Y-87153D01*
Y-86866D01*
Y-86580D01*
Y-86294D01*
Y-86007D01*
Y-85721D01*
X1005982D01*
Y-85435D01*
Y-85149D01*
Y-84862D01*
Y-84576D01*
Y-84290D01*
Y-84003D01*
Y-83717D01*
X1006268D01*
Y-83431D01*
Y-83144D01*
Y-82858D01*
Y-82572D01*
Y-82285D01*
Y-81999D01*
X1006555D01*
Y-81713D01*
Y-81427D01*
Y-81140D01*
Y-80854D01*
Y-80568D01*
Y-80281D01*
X1006841D01*
Y-79995D01*
Y-79709D01*
Y-79422D01*
Y-79136D01*
Y-78850D01*
Y-78563D01*
Y-78277D01*
X1007127D01*
Y-77991D01*
Y-77704D01*
Y-77418D01*
Y-77132D01*
Y-76846D01*
Y-76559D01*
X1007413D01*
Y-76273D01*
Y-75987D01*
Y-75700D01*
Y-75414D01*
Y-75128D01*
Y-74841D01*
X1007700D01*
Y-74555D01*
Y-74269D01*
Y-73982D01*
Y-73696D01*
Y-73410D01*
Y-73123D01*
Y-72837D01*
X1007986D01*
Y-72551D01*
Y-72264D01*
Y-71978D01*
Y-71692D01*
Y-71406D01*
Y-71119D01*
X1008272D01*
Y-70833D01*
Y-70547D01*
Y-70260D01*
Y-69974D01*
Y-69688D01*
Y-69401D01*
X1032036D01*
Y-69688D01*
D02*
G37*
G36*
X1165172Y-83717D02*
X1164886D01*
Y-84003D01*
X1164599D01*
Y-84290D01*
Y-84576D01*
X1164313D01*
Y-84862D01*
X1164027D01*
Y-85149D01*
X1163740D01*
Y-85435D01*
Y-85721D01*
X1163454D01*
Y-86007D01*
X1163168D01*
Y-86294D01*
X1162881D01*
Y-86580D01*
X1162595D01*
Y-86866D01*
Y-87153D01*
X1162309D01*
Y-87439D01*
X1162022D01*
Y-87725D01*
X1161736D01*
Y-88012D01*
Y-88298D01*
X1161450D01*
Y-88584D01*
X1161163D01*
Y-88871D01*
X1160877D01*
Y-89157D01*
X1160591D01*
Y-89443D01*
Y-89730D01*
X1160305D01*
Y-90016D01*
X1160018D01*
Y-90302D01*
X1159732D01*
Y-90588D01*
Y-90875D01*
X1159445D01*
Y-91161D01*
X1159159D01*
Y-91448D01*
X1158873D01*
Y-91734D01*
Y-92020D01*
X1158587D01*
Y-92306D01*
X1158300D01*
Y-92593D01*
X1158014D01*
Y-92879D01*
X1157728D01*
Y-93165D01*
Y-93452D01*
X1157441D01*
Y-93738D01*
X1157155D01*
Y-94024D01*
X1156869D01*
Y-94311D01*
Y-94597D01*
X1156582D01*
Y-94883D01*
X1156296D01*
Y-95170D01*
X1156010D01*
Y-95456D01*
Y-95742D01*
X1155723D01*
Y-96029D01*
X1155437D01*
Y-96315D01*
X1155151D01*
Y-96601D01*
X1154865D01*
Y-96887D01*
Y-97174D01*
X1154578D01*
Y-97460D01*
X1154292D01*
Y-97746D01*
X1154006D01*
Y-98033D01*
Y-98319D01*
X1153719D01*
Y-98605D01*
X1153433D01*
Y-98892D01*
X1153147D01*
Y-99178D01*
Y-99464D01*
X1152860D01*
Y-99751D01*
X1152574D01*
Y-100037D01*
X1152288D01*
Y-100323D01*
X1152001D01*
Y-100610D01*
Y-100896D01*
X1151715D01*
Y-101182D01*
X1151429D01*
Y-101468D01*
X1151142D01*
Y-101755D01*
Y-102041D01*
X1150856D01*
Y-102327D01*
X1150570D01*
Y-102614D01*
X1150284D01*
Y-102900D01*
X1149997D01*
Y-103186D01*
Y-103473D01*
X1150284D01*
Y-103759D01*
Y-104045D01*
X1150570D01*
Y-104332D01*
Y-104618D01*
X1150856D01*
Y-104904D01*
X1151142D01*
Y-105191D01*
Y-105477D01*
X1151429D01*
Y-105763D01*
Y-106049D01*
X1151715D01*
Y-106336D01*
Y-106622D01*
X1152001D01*
Y-106908D01*
Y-107195D01*
X1152288D01*
Y-107481D01*
Y-107767D01*
X1152574D01*
Y-108054D01*
Y-108340D01*
X1152860D01*
Y-108626D01*
Y-108913D01*
X1153147D01*
Y-109199D01*
Y-109485D01*
X1153433D01*
Y-109772D01*
X1153719D01*
Y-110058D01*
Y-110344D01*
X1154006D01*
Y-110630D01*
Y-110917D01*
X1154292D01*
Y-111203D01*
Y-111489D01*
X1154578D01*
Y-111776D01*
Y-112062D01*
X1154865D01*
Y-112348D01*
Y-112635D01*
X1155151D01*
Y-112921D01*
Y-113207D01*
X1155437D01*
Y-113494D01*
Y-113780D01*
X1155723D01*
Y-114066D01*
X1156010D01*
Y-114353D01*
Y-114639D01*
X1156296D01*
Y-114925D01*
Y-115211D01*
X1156582D01*
Y-115498D01*
Y-115784D01*
X1156869D01*
Y-116070D01*
Y-116357D01*
X1157155D01*
Y-116643D01*
Y-116929D01*
X1157441D01*
Y-117216D01*
Y-117502D01*
X1157728D01*
Y-117788D01*
Y-118075D01*
X1158014D01*
Y-118361D01*
X1158300D01*
Y-118647D01*
Y-118933D01*
X1158587D01*
Y-119220D01*
Y-119506D01*
X1158873D01*
Y-119792D01*
X1143698D01*
Y-119506D01*
X1143412D01*
Y-119220D01*
Y-118933D01*
Y-118647D01*
X1143126D01*
Y-118361D01*
Y-118075D01*
Y-117788D01*
X1142839D01*
Y-117502D01*
Y-117216D01*
X1142553D01*
Y-116929D01*
Y-116643D01*
Y-116357D01*
X1142267D01*
Y-116070D01*
Y-115784D01*
Y-115498D01*
X1141980D01*
Y-115211D01*
Y-114925D01*
X1141694D01*
Y-114639D01*
Y-114353D01*
Y-114066D01*
X1141408D01*
Y-113780D01*
Y-113494D01*
Y-113207D01*
X1141121D01*
Y-112921D01*
Y-112635D01*
Y-112348D01*
X1140835D01*
Y-112062D01*
X1140263D01*
Y-112348D01*
Y-112635D01*
X1139976D01*
Y-112921D01*
X1139690D01*
Y-113207D01*
Y-113494D01*
X1139404D01*
Y-113780D01*
X1139117D01*
Y-114066D01*
Y-114353D01*
X1138831D01*
Y-114639D01*
X1138545D01*
Y-114925D01*
Y-115211D01*
X1138258D01*
Y-115498D01*
X1137972D01*
Y-115784D01*
X1137686D01*
Y-116070D01*
Y-116357D01*
X1137399D01*
Y-116643D01*
X1137113D01*
Y-116929D01*
Y-117216D01*
X1136827D01*
Y-117502D01*
X1136541D01*
Y-117788D01*
Y-118075D01*
X1136254D01*
Y-118361D01*
X1135968D01*
Y-118647D01*
Y-118933D01*
X1135682D01*
Y-119220D01*
X1135395D01*
Y-119506D01*
Y-119792D01*
X1119362D01*
Y-119506D01*
X1119648D01*
Y-119220D01*
X1119934D01*
Y-118933D01*
X1120221D01*
Y-118647D01*
X1120507D01*
Y-118361D01*
Y-118075D01*
X1120793D01*
Y-117788D01*
X1121080D01*
Y-117502D01*
X1121366D01*
Y-117216D01*
X1121652D01*
Y-116929D01*
Y-116643D01*
X1121939D01*
Y-116357D01*
X1122225D01*
Y-116070D01*
X1122511D01*
Y-115784D01*
Y-115498D01*
X1122797D01*
Y-115211D01*
X1123084D01*
Y-114925D01*
X1123370D01*
Y-114639D01*
X1123656D01*
Y-114353D01*
Y-114066D01*
X1123943D01*
Y-113780D01*
X1124229D01*
Y-113494D01*
X1124515D01*
Y-113207D01*
X1124802D01*
Y-112921D01*
Y-112635D01*
X1125088D01*
Y-112348D01*
X1125374D01*
Y-112062D01*
X1125661D01*
Y-111776D01*
Y-111489D01*
X1125947D01*
Y-111203D01*
X1126233D01*
Y-110917D01*
X1126519D01*
Y-110630D01*
X1126806D01*
Y-110344D01*
Y-110058D01*
X1127092D01*
Y-109772D01*
X1127378D01*
Y-109485D01*
X1127665D01*
Y-109199D01*
Y-108913D01*
X1127951D01*
Y-108626D01*
X1128237D01*
Y-108340D01*
X1128524D01*
Y-108054D01*
X1128810D01*
Y-107767D01*
Y-107481D01*
X1129096D01*
Y-107195D01*
X1129383D01*
Y-106908D01*
X1129669D01*
Y-106622D01*
Y-106336D01*
X1129955D01*
Y-106049D01*
X1130242D01*
Y-105763D01*
X1130528D01*
Y-105477D01*
X1130814D01*
Y-105191D01*
Y-104904D01*
X1131100D01*
Y-104618D01*
X1131387D01*
Y-104332D01*
X1131673D01*
Y-104045D01*
X1131960D01*
Y-103759D01*
Y-103473D01*
X1132246D01*
Y-103186D01*
X1132532D01*
Y-102900D01*
X1132818D01*
Y-102614D01*
Y-102327D01*
X1133105D01*
Y-102041D01*
X1133391D01*
Y-101755D01*
X1133677D01*
Y-101468D01*
X1133964D01*
Y-101182D01*
Y-100896D01*
X1134250D01*
Y-100610D01*
Y-100323D01*
Y-100037D01*
X1133964D01*
Y-99751D01*
X1133677D01*
Y-99464D01*
Y-99178D01*
X1133391D01*
Y-98892D01*
Y-98605D01*
X1133105D01*
Y-98319D01*
Y-98033D01*
X1132818D01*
Y-97746D01*
Y-97460D01*
X1132532D01*
Y-97174D01*
Y-96887D01*
X1132246D01*
Y-96601D01*
Y-96315D01*
X1131960D01*
Y-96029D01*
X1131673D01*
Y-95742D01*
Y-95456D01*
X1131387D01*
Y-95170D01*
Y-94883D01*
X1131100D01*
Y-94597D01*
Y-94311D01*
X1130814D01*
Y-94024D01*
Y-93738D01*
X1130528D01*
Y-93452D01*
Y-93165D01*
X1130242D01*
Y-92879D01*
Y-92593D01*
X1129955D01*
Y-92306D01*
X1129669D01*
Y-92020D01*
Y-91734D01*
X1129383D01*
Y-91448D01*
Y-91161D01*
X1129096D01*
Y-90875D01*
Y-90588D01*
X1128810D01*
Y-90302D01*
Y-90016D01*
X1128524D01*
Y-89730D01*
Y-89443D01*
X1128237D01*
Y-89157D01*
Y-88871D01*
X1127951D01*
Y-88584D01*
Y-88298D01*
X1127665D01*
Y-88012D01*
X1127378D01*
Y-87725D01*
Y-87439D01*
X1127092D01*
Y-87153D01*
Y-86866D01*
X1126806D01*
Y-86580D01*
Y-86294D01*
X1126519D01*
Y-86007D01*
Y-85721D01*
X1126233D01*
Y-85435D01*
Y-85149D01*
X1125947D01*
Y-84862D01*
Y-84576D01*
X1125661D01*
Y-84290D01*
X1125374D01*
Y-84003D01*
Y-83717D01*
X1125088D01*
Y-83431D01*
X1140835D01*
Y-83717D01*
X1141121D01*
Y-84003D01*
Y-84290D01*
Y-84576D01*
X1141408D01*
Y-84862D01*
Y-85149D01*
Y-85435D01*
X1141694D01*
Y-85721D01*
Y-86007D01*
Y-86294D01*
X1141980D01*
Y-86580D01*
Y-86866D01*
Y-87153D01*
X1142267D01*
Y-87439D01*
Y-87725D01*
Y-88012D01*
X1142553D01*
Y-88298D01*
Y-88584D01*
Y-88871D01*
X1142839D01*
Y-89157D01*
Y-89443D01*
Y-89730D01*
X1143126D01*
Y-90016D01*
Y-90302D01*
Y-90588D01*
X1143412D01*
Y-90875D01*
Y-91161D01*
Y-91448D01*
Y-91734D01*
X1143985D01*
Y-91448D01*
X1144271D01*
Y-91161D01*
X1144557D01*
Y-90875D01*
Y-90588D01*
X1144844D01*
Y-90302D01*
X1145130D01*
Y-90016D01*
Y-89730D01*
X1145416D01*
Y-89443D01*
X1145702D01*
Y-89157D01*
Y-88871D01*
X1145989D01*
Y-88584D01*
X1146275D01*
Y-88298D01*
Y-88012D01*
X1146561D01*
Y-87725D01*
X1146848D01*
Y-87439D01*
Y-87153D01*
X1147134D01*
Y-86866D01*
X1147420D01*
Y-86580D01*
Y-86294D01*
X1147707D01*
Y-86007D01*
X1147993D01*
Y-85721D01*
Y-85435D01*
X1148279D01*
Y-85149D01*
X1148566D01*
Y-84862D01*
Y-84576D01*
X1148852D01*
Y-84290D01*
X1149138D01*
Y-84003D01*
Y-83717D01*
X1149425D01*
Y-83431D01*
X1165172D01*
Y-83717D01*
D02*
G37*
%LPC*%
G36*
X1027742Y-80568D02*
X1019725D01*
Y-80854D01*
Y-81140D01*
Y-81427D01*
Y-81713D01*
Y-81999D01*
X1019438D01*
Y-82285D01*
Y-82572D01*
Y-82858D01*
Y-83144D01*
Y-83431D01*
Y-83717D01*
X1019152D01*
Y-84003D01*
Y-84290D01*
Y-84576D01*
Y-84862D01*
Y-85149D01*
Y-85435D01*
X1018866D01*
Y-85721D01*
Y-86007D01*
Y-86294D01*
Y-86580D01*
Y-86866D01*
Y-87153D01*
X1018580D01*
Y-87439D01*
Y-87725D01*
Y-88012D01*
Y-88298D01*
Y-88584D01*
Y-88871D01*
Y-89157D01*
X1018293D01*
Y-89443D01*
Y-89730D01*
Y-90016D01*
Y-90302D01*
Y-90588D01*
Y-90875D01*
X1018007D01*
Y-91161D01*
Y-91448D01*
Y-91734D01*
X1025165D01*
Y-91448D01*
X1026310D01*
Y-91161D01*
X1026883D01*
Y-90875D01*
X1027169D01*
Y-90588D01*
X1027455D01*
Y-90302D01*
X1027742D01*
Y-90016D01*
X1028028D01*
Y-89730D01*
Y-89443D01*
X1028314D01*
Y-89157D01*
Y-88871D01*
X1028601D01*
Y-88584D01*
Y-88298D01*
X1028887D01*
Y-88012D01*
Y-87725D01*
Y-87439D01*
Y-87153D01*
X1029173D01*
Y-86866D01*
Y-86580D01*
Y-86294D01*
Y-86007D01*
Y-85721D01*
X1029459D01*
Y-85435D01*
Y-85149D01*
Y-84862D01*
Y-84576D01*
Y-84290D01*
Y-84003D01*
Y-83717D01*
Y-83431D01*
Y-83144D01*
Y-82858D01*
Y-82572D01*
X1029173D01*
Y-82285D01*
Y-81999D01*
X1028887D01*
Y-81713D01*
Y-81427D01*
X1028601D01*
Y-81140D01*
X1028314D01*
Y-80854D01*
X1027742D01*
Y-80568D01*
D02*
G37*
%LPD*%
D12*
X1202756Y-96461D02*
Y-110236D01*
X1209643D01*
X1211939Y-107940D01*
Y-105645D01*
X1209643Y-103349D01*
X1202756D01*
X1209643D01*
X1211939Y-101053D01*
Y-98757D01*
X1209643Y-96461D01*
X1202756D01*
X1218827Y-110236D02*
X1223419D01*
X1225714Y-107940D01*
Y-103349D01*
X1223419Y-101053D01*
X1218827D01*
X1216531Y-103349D01*
Y-107940D01*
X1218827Y-110236D01*
X1232602Y-98757D02*
Y-101053D01*
X1230306D01*
X1234898D01*
X1232602D01*
Y-107940D01*
X1234898Y-110236D01*
X1244081Y-98757D02*
Y-101053D01*
X1241785D01*
X1246377D01*
X1244081D01*
Y-107940D01*
X1246377Y-110236D01*
X1255560D02*
X1260152D01*
X1262448Y-107940D01*
Y-103349D01*
X1260152Y-101053D01*
X1255560D01*
X1253265Y-103349D01*
Y-107940D01*
X1255560Y-110236D01*
X1267040D02*
Y-101053D01*
X1269335D01*
X1271631Y-103349D01*
Y-110236D01*
Y-103349D01*
X1273927Y-101053D01*
X1276223Y-103349D01*
Y-110236D01*
X1301477Y-96461D02*
X1296886D01*
X1294590Y-98757D01*
Y-107940D01*
X1296886Y-110236D01*
X1301477D01*
X1303773Y-107940D01*
Y-98757D01*
X1301477Y-96461D01*
X1308365Y-101053D02*
X1312957Y-110236D01*
X1317548Y-101053D01*
X1329027Y-110236D02*
X1324436D01*
X1322140Y-107940D01*
Y-103349D01*
X1324436Y-101053D01*
X1329027D01*
X1331323Y-103349D01*
Y-105645D01*
X1322140D01*
X1335915Y-101053D02*
Y-110236D01*
Y-105645D01*
X1338211Y-103349D01*
X1340507Y-101053D01*
X1342803D01*
X1349690Y-110236D02*
X1354282D01*
X1351986D01*
Y-96461D01*
X1349690D01*
X1363465Y-101053D02*
X1368057D01*
X1370353Y-103349D01*
Y-110236D01*
X1363465D01*
X1361169Y-107940D01*
X1363465Y-105645D01*
X1370353D01*
X1374944Y-101053D02*
Y-107940D01*
X1377240Y-110236D01*
X1384128D01*
Y-112532D01*
X1381832Y-114828D01*
X1379536D01*
X1384128Y-110236D02*
Y-101053D01*
X1005906Y-175202D02*
Y-190945D01*
X1011153Y-185697D01*
X1016401Y-190945D01*
Y-175202D01*
X1021649Y-190945D02*
X1026896D01*
X1024272D01*
Y-180450D01*
X1021649D01*
X1034768Y-190945D02*
Y-180450D01*
X1037391D01*
X1040015Y-183073D01*
Y-190945D01*
Y-183073D01*
X1042639Y-180450D01*
X1045263Y-183073D01*
Y-190945D01*
X1050511Y-175202D02*
Y-185697D01*
X1055758Y-190945D01*
X1061006Y-185697D01*
Y-175202D01*
X1076749Y-177826D02*
X1074125Y-175202D01*
X1068877D01*
X1066253Y-177826D01*
Y-188321D01*
X1068877Y-190945D01*
X1074125D01*
X1076749Y-188321D01*
Y-183073D01*
X1071501D01*
X1360236Y-138456D02*
X1362860Y-135832D01*
X1368108D01*
X1370732Y-138456D01*
Y-148951D01*
X1368108Y-151575D01*
X1362860D01*
X1360236Y-148951D01*
Y-138456D01*
X1375979D02*
X1378603Y-135832D01*
X1383851D01*
X1386475Y-138456D01*
Y-148951D01*
X1383851Y-151575D01*
X1378603D01*
X1375979Y-148951D01*
Y-138456D01*
X1206034Y-151575D02*
X1196850D01*
X1206034Y-142391D01*
Y-140096D01*
X1203738Y-137800D01*
X1199146D01*
X1196850Y-140096D01*
X1219809Y-137800D02*
X1210625D01*
Y-144687D01*
X1215217Y-142391D01*
X1217513D01*
X1219809Y-144687D01*
Y-149279D01*
X1217513Y-151575D01*
X1212921D01*
X1210625Y-149279D01*
X1224401Y-151575D02*
X1233584Y-142391D01*
X1238176Y-151575D02*
X1242767D01*
X1240471D01*
Y-137800D01*
X1238176Y-140096D01*
X1249655Y-151575D02*
X1254247D01*
X1251951D01*
Y-137800D01*
X1249655Y-140096D01*
X1261134Y-151575D02*
X1270317Y-142391D01*
X1284093Y-151575D02*
X1274909D01*
X1284093Y-142391D01*
Y-140096D01*
X1281797Y-137800D01*
X1277205D01*
X1274909Y-140096D01*
X1288684D02*
X1290980Y-137800D01*
X1295572D01*
X1297868Y-140096D01*
Y-149279D01*
X1295572Y-151575D01*
X1290980D01*
X1288684Y-149279D01*
Y-140096D01*
X1302459Y-151575D02*
X1307051D01*
X1304755D01*
Y-137800D01*
X1302459Y-140096D01*
X1323122Y-137800D02*
X1313939D01*
Y-144687D01*
X1318530Y-142391D01*
X1320826D01*
X1323122Y-144687D01*
Y-149279D01*
X1320826Y-151575D01*
X1316234D01*
X1313939Y-149279D01*
X1201440Y-57092D02*
X1190945D01*
Y-64963D01*
X1196192D01*
X1190945D01*
Y-72835D01*
X1209312Y-62339D02*
X1214559D01*
X1217183Y-64963D01*
Y-72835D01*
X1209312D01*
X1206688Y-70211D01*
X1209312Y-67587D01*
X1217183D01*
X1222431Y-57092D02*
Y-72835D01*
X1230302D01*
X1232926Y-70211D01*
Y-67587D01*
Y-64963D01*
X1230302Y-62339D01*
X1222431D01*
X1238174Y-57092D02*
Y-72835D01*
X1248669D01*
X1256540Y-62339D02*
X1261788D01*
X1264412Y-64963D01*
Y-72835D01*
X1256540D01*
X1253917Y-70211D01*
X1256540Y-67587D01*
X1264412D01*
X1269660Y-57092D02*
Y-72835D01*
X1277531D01*
X1280155Y-70211D01*
Y-67587D01*
Y-64963D01*
X1277531Y-62339D01*
X1269660D01*
X1285402Y-57092D02*
Y-72835D01*
X1293274D01*
X1295898Y-70211D01*
Y-67587D01*
X1293274Y-64963D01*
X1285402D01*
X1293274D01*
X1295898Y-62339D01*
Y-59715D01*
X1293274Y-57092D01*
X1285402D01*
X1303769Y-72835D02*
X1309017D01*
X1311641Y-70211D01*
Y-64963D01*
X1309017Y-62339D01*
X1303769D01*
X1301145Y-64963D01*
Y-70211D01*
X1303769Y-72835D01*
X1319512Y-59715D02*
Y-62339D01*
X1316888D01*
X1322136D01*
X1319512D01*
Y-70211D01*
X1322136Y-72835D01*
D13*
X62177Y0D02*
G03*
X66929Y1969I0J6721D01*
G01*
X71681Y3937D02*
G03*
X66929Y1969I0J-6721D01*
G01*
X92520D02*
G03*
X87767Y3937I-4752J-4752D01*
G01*
X92520Y1969D02*
G03*
X97272Y0I4752J4752D01*
G01*
Y47244D02*
G03*
X92520Y45276I0J-6721D01*
G01*
X87767Y43307D02*
G03*
X92520Y45276I0J6721D01*
G01*
X66929D02*
G03*
X71681Y43307I4752J4752D01*
G01*
X66929Y45276D02*
G03*
X62177Y47244I-4752J-4752D01*
G01*
X164471Y40945D02*
G03*
X167323Y42126I0J4033D01*
G01*
X134646Y42520D02*
G03*
X138448Y40945I3802J3802D01*
G01*
X131870Y45295D02*
G03*
X127165Y47244I-4705J-4705D01*
G01*
X97272Y0D02*
X182677D01*
X71681Y3937D02*
X87767D01*
X0Y0D02*
X62177D01*
X0Y47244D02*
X62177D01*
X71681Y43307D02*
X87767D01*
X0Y0D02*
Y47244D01*
X181102Y46850D02*
X183465Y46063D01*
X186614Y44488D01*
X188583Y42913D01*
X190551Y40945D01*
X192126Y38976D01*
X194488Y34252D01*
X195276Y31102D01*
X195669Y27953D01*
Y22047D02*
Y27953D01*
X195276Y19291D02*
X195669Y22047D01*
X193307Y10630D02*
X195276Y19291D01*
X191732Y5512D02*
X193307Y10630D01*
X190157Y3150D02*
X191732Y5512D01*
X187402Y1181D02*
X190157Y3150D01*
X185039Y394D02*
X187402Y1181D01*
X182677Y0D02*
X185039Y394D01*
X177559Y47244D02*
X181102Y46850D01*
X170472Y45276D02*
X173622Y46850D01*
X168898Y43701D02*
X170472Y45276D01*
X167323Y42126D02*
X168898Y43701D01*
X138448Y40945D02*
X164471D01*
X131870Y45295D02*
X134646Y42520D01*
X173622Y46850D02*
X177559Y47244D01*
X97272D02*
X127165D01*
X1338583Y-157480D02*
Y-118110D01*
X1181102Y-78740D02*
X1456693D01*
X1181102Y-118110D02*
X1456693D01*
X984252Y-157480D02*
X1456693D01*
X984252Y-39370D02*
X1456693D01*
X984252Y-196850D02*
Y-39370D01*
X1181102Y-196850D02*
Y-39370D01*
X-196850Y972441D02*
X1456693D01*
Y-196850D02*
Y972441D01*
X-196850Y-196850D02*
Y972441D01*
Y-196850D02*
X1456693D01*
X1194881Y-183073D02*
X1190945D01*
Y-186025D01*
X1192913D01*
X1190945D01*
Y-188976D01*
X1196848D02*
Y-185041D01*
X1198816Y-183073D01*
X1200784Y-185041D01*
Y-188976D01*
Y-186025D01*
X1196848D01*
X1202752Y-183073D02*
Y-188976D01*
X1205704D01*
X1206688Y-187993D01*
Y-187009D01*
X1205704Y-186025D01*
X1202752D01*
X1205704D01*
X1206688Y-185041D01*
Y-184057D01*
X1205704Y-183073D01*
X1202752D01*
X1208656D02*
Y-188976D01*
X1212591D01*
X1214559D02*
Y-185041D01*
X1216527Y-183073D01*
X1218495Y-185041D01*
Y-188976D01*
Y-186025D01*
X1214559D01*
X1220463Y-183073D02*
Y-188976D01*
X1223415D01*
X1224399Y-187993D01*
Y-187009D01*
X1223415Y-186025D01*
X1220463D01*
X1223415D01*
X1224399Y-185041D01*
Y-184057D01*
X1223415Y-183073D01*
X1220463D01*
X1226367Y-189960D02*
X1230302D01*
X1232270Y-183073D02*
Y-188976D01*
X1235222D01*
X1236206Y-187993D01*
Y-187009D01*
X1235222Y-186025D01*
X1232270D01*
X1235222D01*
X1236206Y-185041D01*
Y-184057D01*
X1235222Y-183073D01*
X1232270D01*
X1241125D02*
X1239158D01*
X1238174Y-184057D01*
Y-187993D01*
X1239158Y-188976D01*
X1241125D01*
X1242109Y-187993D01*
Y-184057D01*
X1241125Y-183073D01*
X1244077D02*
X1248013D01*
X1246045D01*
Y-188976D01*
X1249981Y-189960D02*
X1253917D01*
X1255884Y-184057D02*
X1256868Y-183073D01*
X1258836D01*
X1259820Y-184057D01*
Y-187993D01*
X1258836Y-188976D01*
X1256868D01*
X1255884Y-187993D01*
Y-184057D01*
X1261788D02*
X1262772Y-183073D01*
X1264740D01*
X1265724Y-184057D01*
Y-187993D01*
X1264740Y-188976D01*
X1262772D01*
X1261788Y-187993D01*
Y-184057D01*
X1267692Y-188976D02*
Y-187993D01*
X1268676D01*
Y-188976D01*
X1267692D01*
X1272611D02*
Y-183073D01*
X1275563D01*
X1276547Y-184057D01*
Y-186025D01*
X1275563Y-187009D01*
X1272611D01*
X1282451Y-185041D02*
X1279499D01*
X1278515Y-186025D01*
Y-187993D01*
X1279499Y-188976D01*
X1282451D01*
X1284418Y-183073D02*
Y-188976D01*
X1287370D01*
X1288354Y-187993D01*
Y-187009D01*
Y-186025D01*
X1287370Y-185041D01*
X1284418D01*
X1290322Y-183073D02*
Y-188976D01*
X1293274D01*
X1294258Y-187993D01*
Y-184057D01*
X1293274Y-183073D01*
X1290322D01*
X1297210Y-188976D02*
X1299177D01*
X1300161Y-187993D01*
Y-186025D01*
X1299177Y-185041D01*
X1297210D01*
X1296226Y-186025D01*
Y-187993D01*
X1297210Y-188976D01*
X1306065Y-185041D02*
X1303113D01*
X1302129Y-186025D01*
Y-187993D01*
X1303113Y-188976D01*
X1306065D01*
D14*
X1342520Y-129921D02*
Y-122050D01*
X1346455D01*
X1347767Y-123362D01*
Y-125986D01*
X1346455Y-127297D01*
X1342520D01*
X1345144D02*
X1347767Y-129921D01*
X1354327D02*
X1351703D01*
X1350391Y-128609D01*
Y-125986D01*
X1351703Y-124674D01*
X1354327D01*
X1355639Y-125986D01*
Y-127297D01*
X1350391D01*
X1358263Y-124674D02*
X1360886Y-129921D01*
X1363510Y-124674D01*
X988189Y-161420D02*
Y-169291D01*
X992125D01*
X993437Y-167979D01*
Y-162732D01*
X992125Y-161420D01*
X988189D01*
X999996Y-169291D02*
X997372D01*
X996060Y-167979D01*
Y-165356D01*
X997372Y-164044D01*
X999996D01*
X1001308Y-165356D01*
Y-166667D01*
X996060D01*
X1003932Y-169291D02*
X1007868D01*
X1009180Y-167979D01*
X1007868Y-166667D01*
X1005244D01*
X1003932Y-165356D01*
X1005244Y-164044D01*
X1009180D01*
X1014427Y-171915D02*
X1015739D01*
X1017051Y-170603D01*
Y-164044D01*
X1013115D01*
X1011803Y-165356D01*
Y-167979D01*
X1013115Y-169291D01*
X1017051D01*
X1019675D02*
X1022299D01*
X1020987D01*
Y-164044D01*
X1019675D01*
X1026235Y-169291D02*
Y-164044D01*
X1030170D01*
X1031482Y-165356D01*
Y-169291D01*
X1038042D02*
X1035418D01*
X1034106Y-167979D01*
Y-165356D01*
X1035418Y-164044D01*
X1038042D01*
X1039354Y-165356D01*
Y-166667D01*
X1034106D01*
X1041977Y-164044D02*
Y-169291D01*
Y-166667D01*
X1043289Y-165356D01*
X1044601Y-164044D01*
X1045913D01*
X1185039Y-43310D02*
Y-51181D01*
X1188975D01*
X1190287Y-49869D01*
Y-44622D01*
X1188975Y-43310D01*
X1185039D01*
X1194223Y-51181D02*
X1196847D01*
X1198158Y-49869D01*
Y-47245D01*
X1196847Y-45933D01*
X1194223D01*
X1192911Y-47245D01*
Y-49869D01*
X1194223Y-51181D01*
X1206030Y-45933D02*
X1202094D01*
X1200782Y-47245D01*
Y-49869D01*
X1202094Y-51181D01*
X1206030D01*
X1208654Y-45933D02*
Y-49869D01*
X1209966Y-51181D01*
X1213902D01*
Y-45933D01*
X1216525Y-51181D02*
Y-45933D01*
X1217837D01*
X1219149Y-47245D01*
Y-51181D01*
Y-47245D01*
X1220461Y-45933D01*
X1221773Y-47245D01*
Y-51181D01*
X1228333D02*
X1225709D01*
X1224397Y-49869D01*
Y-47245D01*
X1225709Y-45933D01*
X1228333D01*
X1229644Y-47245D01*
Y-48557D01*
X1224397D01*
X1232268Y-51181D02*
Y-45933D01*
X1236204D01*
X1237516Y-47245D01*
Y-51181D01*
X1241452Y-44622D02*
Y-45933D01*
X1240140D01*
X1242764D01*
X1241452D01*
Y-49869D01*
X1242764Y-51181D01*
X1185039Y-82680D02*
Y-90551D01*
X1190287D01*
X1194223Y-85303D02*
X1196847D01*
X1198158Y-86615D01*
Y-90551D01*
X1194223D01*
X1192911Y-89239D01*
X1194223Y-87927D01*
X1198158D01*
X1200782Y-85303D02*
Y-89239D01*
X1202094Y-90551D01*
X1206030D01*
Y-91863D01*
X1204718Y-93175D01*
X1203406D01*
X1206030Y-90551D02*
Y-85303D01*
X1212590Y-90551D02*
X1209966D01*
X1208654Y-89239D01*
Y-86615D01*
X1209966Y-85303D01*
X1212590D01*
X1213902Y-86615D01*
Y-87927D01*
X1208654D01*
X1216525Y-85303D02*
Y-90551D01*
Y-87927D01*
X1217837Y-86615D01*
X1219149Y-85303D01*
X1220461D01*
X1232268Y-90551D02*
Y-82680D01*
X1237516Y-90551D01*
Y-82680D01*
X1241452Y-85303D02*
X1244075D01*
X1245387Y-86615D01*
Y-90551D01*
X1241452D01*
X1240140Y-89239D01*
X1241452Y-87927D01*
X1245387D01*
X1248011Y-90551D02*
Y-85303D01*
X1249323D01*
X1250635Y-86615D01*
Y-90551D01*
Y-86615D01*
X1251947Y-85303D01*
X1253259Y-86615D01*
Y-90551D01*
X1259818D02*
X1257195D01*
X1255883Y-89239D01*
Y-86615D01*
X1257195Y-85303D01*
X1259818D01*
X1261130Y-86615D01*
Y-87927D01*
X1255883D01*
X1185039Y-122050D02*
Y-129921D01*
X1188975D01*
X1190287Y-128609D01*
Y-123362D01*
X1188975Y-122050D01*
X1185039D01*
X1194223Y-124674D02*
X1196847D01*
X1198158Y-125986D01*
Y-129921D01*
X1194223D01*
X1192911Y-128609D01*
X1194223Y-127297D01*
X1198158D01*
X1202094Y-123362D02*
Y-124674D01*
X1200782D01*
X1203406D01*
X1202094D01*
Y-128609D01*
X1203406Y-129921D01*
X1211278D02*
X1208654D01*
X1207342Y-128609D01*
Y-125986D01*
X1208654Y-124674D01*
X1211278D01*
X1212589Y-125986D01*
Y-127297D01*
X1207342D01*
X1185039Y-161420D02*
Y-169291D01*
X1188975D01*
X1190287Y-167979D01*
Y-162732D01*
X1188975Y-161420D01*
X1185039D01*
X1194223Y-169291D02*
X1196847D01*
X1198158Y-167979D01*
Y-165356D01*
X1196847Y-164044D01*
X1194223D01*
X1192911Y-165356D01*
Y-167979D01*
X1194223Y-169291D01*
X1206030Y-164044D02*
X1202094D01*
X1200782Y-165356D01*
Y-167979D01*
X1202094Y-169291D01*
X1206030D01*
X1208654Y-164044D02*
Y-167979D01*
X1209966Y-169291D01*
X1213902D01*
Y-164044D01*
X1216525Y-169291D02*
Y-164044D01*
X1217837D01*
X1219149Y-165356D01*
Y-169291D01*
Y-165356D01*
X1220461Y-164044D01*
X1221773Y-165356D01*
Y-169291D01*
X1228333D02*
X1225709D01*
X1224397Y-167979D01*
Y-165356D01*
X1225709Y-164044D01*
X1228333D01*
X1229644Y-165356D01*
Y-166667D01*
X1224397D01*
X1232268Y-169291D02*
Y-164044D01*
X1236204D01*
X1237516Y-165356D01*
Y-169291D01*
X1241452Y-162732D02*
Y-164044D01*
X1240140D01*
X1242764D01*
X1241452D01*
Y-167979D01*
X1242764Y-169291D01*
M02*
