G04 Layer_Physical_Order=2*
G04 Layer_Color=40191*
%FSLAX25Y25*%
%MOIN*%
G70*
G01*
G75*
%ADD12C,0.01575*%
%ADD13C,0.00787*%
%ADD14C,0.00984*%
%ADD15R,0.07264X0.06890*%
%ADD16R,0.07284X0.06890*%
G04:AMPARAMS|DCode=17|XSize=70.87mil|YSize=55.12mil|CornerRadius=13.78mil|HoleSize=0mil|Usage=FLASHONLY|Rotation=180.000|XOffset=0mil|YOffset=0mil|HoleType=Round|Shape=RoundedRectangle|*
%AMROUNDEDRECTD17*
21,1,0.07087,0.02756,0,0,180.0*
21,1,0.04331,0.05512,0,0,180.0*
1,1,0.02756,-0.02165,0.01378*
1,1,0.02756,0.02165,0.01378*
1,1,0.02756,0.02165,-0.01378*
1,1,0.02756,-0.02165,-0.01378*
%
%ADD17ROUNDEDRECTD17*%
%ADD18O,0.07087X0.05512*%
%ADD19O,0.07874X0.03937*%
%ADD20O,0.07874X0.03937*%
%ADD21R,0.06890X0.06890*%
%ADD22C,0.05906*%
G04:AMPARAMS|DCode=23|XSize=78.74mil|YSize=68.9mil|CornerRadius=17.22mil|HoleSize=0mil|Usage=FLASHONLY|Rotation=0.000|XOffset=0mil|YOffset=0mil|HoleType=Round|Shape=RoundedRectangle|*
%AMROUNDEDRECTD23*
21,1,0.07874,0.03445,0,0,0.0*
21,1,0.04429,0.06890,0,0,0.0*
1,1,0.03445,0.02215,-0.01722*
1,1,0.03445,-0.02215,-0.01722*
1,1,0.03445,-0.02215,0.01722*
1,1,0.03445,0.02215,0.01722*
%
%ADD23ROUNDEDRECTD23*%
G36*
X178116Y24218D02*
X178911D01*
Y24138D01*
X179389D01*
Y24059D01*
X179707D01*
Y23979D01*
X180025D01*
Y23900D01*
X180263D01*
Y23820D01*
X180502D01*
Y23741D01*
X180741D01*
Y23661D01*
X180979D01*
Y23582D01*
X181218D01*
Y23502D01*
X181377D01*
Y23423D01*
X181536D01*
Y23343D01*
X181775D01*
Y23264D01*
X181934D01*
Y23184D01*
X182013D01*
Y23104D01*
X182172D01*
Y23025D01*
X182331D01*
Y22945D01*
X182411D01*
Y22866D01*
X182570D01*
Y22786D01*
X182650D01*
Y22707D01*
X182808D01*
Y22627D01*
X182888D01*
Y22548D01*
X182968D01*
Y22468D01*
X183127D01*
Y22389D01*
X183206D01*
Y22309D01*
X183286D01*
Y22230D01*
X183365D01*
Y22150D01*
X183445D01*
Y22071D01*
X183604D01*
Y21991D01*
X183683D01*
Y21912D01*
X183763D01*
Y21832D01*
X183843D01*
Y21753D01*
X183922D01*
Y21673D01*
X184002D01*
Y21593D01*
X184081D01*
Y21514D01*
X184161D01*
Y21434D01*
Y21355D01*
X184240D01*
Y21275D01*
X184320D01*
Y21196D01*
X184399D01*
Y21116D01*
X184479D01*
Y21037D01*
X184558D01*
Y20957D01*
Y20878D01*
X184638D01*
Y20798D01*
X184717D01*
Y20719D01*
Y20639D01*
X184797D01*
Y20560D01*
X184876D01*
Y20480D01*
X184956D01*
Y20401D01*
Y20321D01*
X185035D01*
Y20241D01*
Y20162D01*
X185115D01*
Y20082D01*
Y20003D01*
X185195D01*
Y19923D01*
Y19844D01*
X185274D01*
Y19764D01*
Y19685D01*
X185354D01*
Y19605D01*
Y19526D01*
X185433D01*
Y19446D01*
Y19367D01*
X185513D01*
Y19287D01*
Y19207D01*
X185592D01*
Y19128D01*
Y19048D01*
Y18969D01*
X185672D01*
Y18889D01*
Y18810D01*
X185751D01*
Y18730D01*
Y18651D01*
Y18571D01*
X185831D01*
Y18492D01*
Y18412D01*
Y18333D01*
X185910D01*
Y18253D01*
Y18174D01*
Y18094D01*
Y18014D01*
X185990D01*
Y17935D01*
Y17855D01*
Y17776D01*
X186069D01*
Y17696D01*
Y17617D01*
Y17537D01*
Y17458D01*
Y17378D01*
X186149D01*
Y17299D01*
Y17219D01*
Y17140D01*
Y17060D01*
X186228D01*
Y16981D01*
Y16901D01*
Y16822D01*
Y16742D01*
Y16662D01*
X186308D01*
Y16583D01*
Y16503D01*
Y16424D01*
Y16344D01*
Y16265D01*
Y16185D01*
Y16106D01*
X186388D01*
Y16026D01*
Y15947D01*
Y15867D01*
Y15788D01*
Y15708D01*
Y15629D01*
Y15549D01*
Y15470D01*
X186467D01*
Y15390D01*
Y15310D01*
Y15231D01*
Y15151D01*
Y15072D01*
Y14992D01*
Y14913D01*
Y14833D01*
Y14754D01*
Y14674D01*
Y14595D01*
Y14515D01*
Y14436D01*
Y14356D01*
Y14277D01*
Y14197D01*
Y14117D01*
Y14038D01*
Y13958D01*
Y13879D01*
Y13799D01*
Y13720D01*
Y13640D01*
Y13561D01*
Y13481D01*
Y13402D01*
Y13322D01*
Y13243D01*
Y13163D01*
Y13083D01*
Y13004D01*
Y12924D01*
Y12845D01*
Y12765D01*
Y12686D01*
Y12606D01*
Y12527D01*
X186388D01*
Y12447D01*
Y12368D01*
Y12288D01*
Y12209D01*
Y12129D01*
Y12050D01*
Y11970D01*
Y11891D01*
Y11811D01*
X186308D01*
Y11732D01*
Y11652D01*
Y11572D01*
Y11493D01*
Y11413D01*
Y11334D01*
Y11254D01*
X186228D01*
Y11175D01*
Y11095D01*
Y11016D01*
Y10936D01*
Y10857D01*
Y10777D01*
X186149D01*
Y10698D01*
Y10618D01*
Y10538D01*
Y10459D01*
Y10379D01*
Y10300D01*
X186069D01*
Y10220D01*
Y10141D01*
Y10061D01*
Y9982D01*
Y9902D01*
Y9823D01*
X185990D01*
Y9743D01*
Y9664D01*
Y9584D01*
Y9505D01*
Y9425D01*
X185910D01*
Y9346D01*
Y9266D01*
Y9187D01*
Y9107D01*
Y9027D01*
X185831D01*
Y8948D01*
Y8868D01*
Y8789D01*
Y8709D01*
Y8630D01*
X185751D01*
Y8550D01*
Y8471D01*
Y8391D01*
Y8312D01*
X185672D01*
Y8232D01*
Y8153D01*
Y8073D01*
Y7993D01*
X185592D01*
Y7914D01*
Y7834D01*
Y7755D01*
Y7675D01*
X185513D01*
Y7596D01*
Y7516D01*
Y7437D01*
Y7357D01*
X185433D01*
Y7278D01*
Y7198D01*
Y7119D01*
X185354D01*
Y7039D01*
Y6960D01*
Y6880D01*
Y6801D01*
X185274D01*
Y6721D01*
Y6641D01*
Y6562D01*
Y6482D01*
X185195D01*
Y6403D01*
Y6323D01*
Y6244D01*
X185115D01*
Y6164D01*
Y6085D01*
Y6005D01*
Y5926D01*
X185035D01*
Y5846D01*
Y5767D01*
Y5687D01*
X184956D01*
Y5607D01*
Y5528D01*
Y5449D01*
X184876D01*
Y5369D01*
Y5289D01*
Y5210D01*
Y5130D01*
X184797D01*
Y5051D01*
Y4971D01*
Y4892D01*
X184717D01*
Y4812D01*
Y4733D01*
Y4653D01*
Y4574D01*
X184638D01*
Y4494D01*
Y4415D01*
Y4335D01*
X184558D01*
Y4256D01*
Y4176D01*
X184240D01*
Y4256D01*
X183922D01*
Y4335D01*
X183683D01*
Y4415D01*
Y4494D01*
Y4574D01*
Y4653D01*
Y4733D01*
Y4812D01*
Y4892D01*
Y4971D01*
X183763D01*
Y5051D01*
Y5130D01*
Y5210D01*
Y5289D01*
Y5369D01*
Y5449D01*
Y5528D01*
Y5607D01*
Y5687D01*
Y5767D01*
Y5846D01*
Y5926D01*
X183843D01*
Y6005D01*
Y6085D01*
Y6164D01*
Y6244D01*
Y6323D01*
Y6403D01*
Y6482D01*
Y6562D01*
Y6641D01*
Y6721D01*
Y6801D01*
Y6880D01*
Y6960D01*
Y7039D01*
Y7119D01*
Y7198D01*
Y7278D01*
Y7357D01*
Y7437D01*
Y7516D01*
Y7596D01*
Y7675D01*
Y7755D01*
Y7834D01*
Y7914D01*
Y7993D01*
Y8073D01*
Y8153D01*
X183763D01*
Y8232D01*
Y8312D01*
Y8391D01*
Y8471D01*
Y8550D01*
Y8630D01*
Y8709D01*
Y8789D01*
Y8868D01*
Y8948D01*
Y9027D01*
X183683D01*
Y9107D01*
Y9187D01*
Y9266D01*
Y9346D01*
Y9425D01*
Y9505D01*
Y9584D01*
Y9664D01*
Y9743D01*
Y9823D01*
X183604D01*
Y9902D01*
Y9982D01*
Y10061D01*
Y10141D01*
Y10220D01*
Y10300D01*
Y10379D01*
Y10459D01*
X183524D01*
Y10538D01*
Y10618D01*
Y10698D01*
Y10777D01*
Y10857D01*
Y10936D01*
Y11016D01*
X183445D01*
Y11095D01*
Y11175D01*
Y11254D01*
Y11334D01*
Y11413D01*
Y11493D01*
X183365D01*
Y11572D01*
Y11652D01*
Y11732D01*
Y11811D01*
Y11891D01*
X183286D01*
Y11970D01*
Y12050D01*
Y12129D01*
Y12209D01*
X183206D01*
Y12288D01*
Y12368D01*
Y12447D01*
Y12527D01*
X183127D01*
Y12606D01*
Y12686D01*
Y12765D01*
X183047D01*
Y12845D01*
Y12924D01*
X182968D01*
Y13004D01*
Y13083D01*
Y13163D01*
X182888D01*
Y13243D01*
Y13322D01*
X182808D01*
Y13402D01*
Y13481D01*
X182729D01*
Y13561D01*
Y13640D01*
X182650D01*
Y13720D01*
Y13799D01*
X182570D01*
Y13879D01*
X182490D01*
Y13958D01*
Y14038D01*
X182411D01*
Y14117D01*
Y14197D01*
X182331D01*
Y14277D01*
X182252D01*
Y14356D01*
X182172D01*
Y14436D01*
Y14515D01*
X182093D01*
Y14595D01*
X182013D01*
Y14674D01*
X181934D01*
Y14754D01*
Y14833D01*
X181854D01*
Y14913D01*
X181775D01*
Y14992D01*
X181695D01*
Y15072D01*
X181616D01*
Y15151D01*
X181536D01*
Y15231D01*
Y15310D01*
X181456D01*
Y15390D01*
X181377D01*
Y15470D01*
X181297D01*
Y15549D01*
X181218D01*
Y15629D01*
X181138D01*
Y15708D01*
X181059D01*
Y15788D01*
X180979D01*
Y15867D01*
X180820D01*
Y15947D01*
X180741D01*
Y16026D01*
X180661D01*
Y16106D01*
X180582D01*
Y16185D01*
X180502D01*
Y16265D01*
X180343D01*
Y16344D01*
X180263D01*
Y16424D01*
X180104D01*
Y16503D01*
X180025D01*
Y16583D01*
X179866D01*
Y16662D01*
X179707D01*
Y16742D01*
X179548D01*
Y16822D01*
X179389D01*
Y16901D01*
X179150D01*
Y16981D01*
X178911D01*
Y17060D01*
X178673D01*
Y17140D01*
X178275D01*
Y17219D01*
X177639D01*
Y17299D01*
X176525D01*
Y17219D01*
X175969D01*
Y17140D01*
X175651D01*
Y17060D01*
X175412D01*
Y16981D01*
X175173D01*
Y16901D01*
X175014D01*
Y16822D01*
X174855D01*
Y16742D01*
X174696D01*
Y16662D01*
X174617D01*
Y16583D01*
X174458D01*
Y16503D01*
X174299D01*
Y16424D01*
X174219D01*
Y16344D01*
X174060D01*
Y16265D01*
X173980D01*
Y16185D01*
X173901D01*
Y16106D01*
X173742D01*
Y16026D01*
X173662D01*
Y15947D01*
X173583D01*
Y15867D01*
X173503D01*
Y15788D01*
X173424D01*
Y15708D01*
X173344D01*
Y15629D01*
X173265D01*
Y15549D01*
Y15470D01*
X173185D01*
Y15390D01*
X173106D01*
Y15310D01*
X173026D01*
Y15231D01*
Y15151D01*
X172947D01*
Y15072D01*
X172867D01*
Y14992D01*
Y14913D01*
X172787D01*
Y14833D01*
Y14754D01*
X172708D01*
Y14674D01*
Y14595D01*
X172628D01*
Y14515D01*
Y14436D01*
X172549D01*
Y14356D01*
Y14277D01*
X172469D01*
Y14197D01*
Y14117D01*
Y14038D01*
X172390D01*
Y13958D01*
Y13879D01*
Y13799D01*
X172310D01*
Y13720D01*
Y13640D01*
Y13561D01*
Y13481D01*
X172231D01*
Y13402D01*
Y13322D01*
Y13243D01*
Y13163D01*
X172151D01*
Y13083D01*
Y13004D01*
Y12924D01*
Y12845D01*
Y12765D01*
X172072D01*
Y12686D01*
Y12606D01*
Y12527D01*
Y12447D01*
Y12368D01*
Y12288D01*
X171992D01*
Y12209D01*
Y12129D01*
Y12050D01*
Y11970D01*
Y11891D01*
Y11811D01*
Y11732D01*
X171913D01*
Y11652D01*
Y11572D01*
Y11493D01*
X174219D01*
Y11413D01*
X174855D01*
Y11334D01*
X175332D01*
Y11254D01*
X175730D01*
Y11175D01*
X176128D01*
Y11095D01*
X176366D01*
Y11016D01*
X176605D01*
Y10936D01*
X176844D01*
Y10857D01*
X177082D01*
Y10777D01*
X177241D01*
Y10698D01*
X177400D01*
Y10618D01*
X177559D01*
Y10538D01*
X177718D01*
Y10459D01*
X177878D01*
Y10379D01*
X178037D01*
Y10300D01*
X178116D01*
Y10220D01*
X178275D01*
Y10141D01*
X178355D01*
Y10061D01*
X178434D01*
Y9982D01*
X178514D01*
Y9902D01*
X178593D01*
Y9823D01*
X178673D01*
Y9743D01*
X178752D01*
Y9664D01*
X178832D01*
Y9584D01*
X178911D01*
Y9505D01*
Y9425D01*
X178991D01*
Y9346D01*
X179071D01*
Y9266D01*
Y9187D01*
X179150D01*
Y9107D01*
X179230D01*
Y9027D01*
Y8948D01*
X179309D01*
Y8868D01*
Y8789D01*
X179389D01*
Y8709D01*
Y8630D01*
X179468D01*
Y8550D01*
Y8471D01*
Y8391D01*
X179548D01*
Y8312D01*
Y8232D01*
Y8153D01*
X179627D01*
Y8073D01*
Y7993D01*
Y7914D01*
X179707D01*
Y7834D01*
Y7755D01*
Y7675D01*
X179786D01*
Y7596D01*
Y7516D01*
Y7437D01*
Y7357D01*
Y7278D01*
X179866D01*
Y7198D01*
Y7119D01*
Y7039D01*
Y6960D01*
Y6880D01*
Y6801D01*
Y6721D01*
Y6641D01*
Y6562D01*
Y6482D01*
Y6403D01*
Y6323D01*
Y6244D01*
Y6164D01*
Y6085D01*
Y6005D01*
Y5926D01*
Y5846D01*
Y5767D01*
Y5687D01*
X179786D01*
Y5607D01*
Y5528D01*
Y5449D01*
Y5369D01*
Y5289D01*
Y5210D01*
X179707D01*
Y5130D01*
Y5051D01*
Y4971D01*
Y4892D01*
X179627D01*
Y4812D01*
Y4733D01*
Y4653D01*
X179548D01*
Y4574D01*
Y4494D01*
Y4415D01*
X179468D01*
Y4335D01*
Y4256D01*
X179389D01*
Y4176D01*
Y4096D01*
X179309D01*
Y4017D01*
X179230D01*
Y3937D01*
Y3858D01*
X179150D01*
Y3778D01*
X179071D01*
Y3699D01*
X178991D01*
Y3619D01*
X178911D01*
Y3540D01*
Y3460D01*
X178832D01*
Y3381D01*
X178752D01*
Y3301D01*
X178593D01*
Y3222D01*
X178514D01*
Y3142D01*
X178434D01*
Y3063D01*
X178275D01*
Y2983D01*
X178116D01*
Y2904D01*
X177957D01*
Y2824D01*
X177718D01*
Y2744D01*
X177400D01*
Y2665D01*
X176764D01*
Y2585D01*
X176366D01*
Y2665D01*
X175730D01*
Y2744D01*
X175332D01*
Y2824D01*
X175014D01*
Y2904D01*
X174776D01*
Y2983D01*
X174617D01*
Y3063D01*
X174378D01*
Y3142D01*
X174219D01*
Y3222D01*
X174060D01*
Y3301D01*
X173901D01*
Y3381D01*
X173742D01*
Y3460D01*
X173662D01*
Y3540D01*
X173503D01*
Y3619D01*
X173424D01*
Y3699D01*
X173265D01*
Y3778D01*
X173185D01*
Y3858D01*
X173106D01*
Y3937D01*
X173026D01*
Y4017D01*
X172947D01*
Y4096D01*
X172867D01*
Y4176D01*
X172708D01*
Y4256D01*
X172628D01*
Y4335D01*
Y4415D01*
X172549D01*
Y4494D01*
X172469D01*
Y4574D01*
X172390D01*
Y4653D01*
X172310D01*
Y4733D01*
X172231D01*
Y4812D01*
Y4892D01*
X172151D01*
Y4971D01*
X172072D01*
Y5051D01*
X171992D01*
Y5130D01*
Y5210D01*
X171913D01*
Y5289D01*
Y5369D01*
X171833D01*
Y5449D01*
Y5528D01*
X171754D01*
Y5607D01*
Y5687D01*
X171674D01*
Y5767D01*
Y5846D01*
X171595D01*
Y5926D01*
Y6005D01*
Y6085D01*
X171515D01*
Y6164D01*
Y6244D01*
Y6323D01*
X171435D01*
Y6403D01*
Y6482D01*
Y6562D01*
Y6641D01*
X171356D01*
Y6721D01*
Y6801D01*
Y6880D01*
Y6960D01*
X171276D01*
Y7039D01*
Y7119D01*
X171197D01*
Y7039D01*
X171117D01*
Y6960D01*
X171038D01*
Y6880D01*
Y6801D01*
X170958D01*
Y6721D01*
Y6641D01*
X170879D01*
Y6562D01*
Y6482D01*
X170799D01*
Y6403D01*
X170720D01*
Y6323D01*
Y6244D01*
X170640D01*
Y6164D01*
X170561D01*
Y6085D01*
Y6005D01*
X170481D01*
Y5926D01*
X170402D01*
Y5846D01*
Y5767D01*
X170322D01*
Y5687D01*
X170243D01*
Y5607D01*
X170163D01*
Y5528D01*
Y5449D01*
X170083D01*
Y5369D01*
X170004D01*
Y5289D01*
X169924D01*
Y5210D01*
X169845D01*
Y5130D01*
X169765D01*
Y5051D01*
X169686D01*
Y4971D01*
X169606D01*
Y4892D01*
X169527D01*
Y4812D01*
X169447D01*
Y4733D01*
X169368D01*
Y4653D01*
X169209D01*
Y4574D01*
X169129D01*
Y4494D01*
X169050D01*
Y4415D01*
X168891D01*
Y4335D01*
X168811D01*
Y4256D01*
X168652D01*
Y4176D01*
X168572D01*
Y4096D01*
X168413D01*
Y4017D01*
X168254D01*
Y3937D01*
X168175D01*
Y3858D01*
X168016D01*
Y3778D01*
X167777D01*
Y3699D01*
X167538D01*
Y3619D01*
X167220D01*
Y3540D01*
X166664D01*
Y3460D01*
X165630D01*
Y3540D01*
X165153D01*
Y3619D01*
X164914D01*
Y3699D01*
X164675D01*
Y3778D01*
X164437D01*
Y3858D01*
X164198D01*
Y3937D01*
X164039D01*
Y4017D01*
X163800D01*
Y4096D01*
X163641D01*
Y4176D01*
X163482D01*
Y4256D01*
X163323D01*
Y4335D01*
X163244D01*
Y4415D01*
X163085D01*
Y4494D01*
X163005D01*
Y4574D01*
X162846D01*
Y4653D01*
X162767D01*
Y4733D01*
X162608D01*
Y4653D01*
X162528D01*
Y4574D01*
X162448D01*
Y4494D01*
X162369D01*
Y4415D01*
X162289D01*
Y4335D01*
X162130D01*
Y4256D01*
X162051D01*
Y4176D01*
X161892D01*
Y4096D01*
X161812D01*
Y4017D01*
X161574D01*
Y3937D01*
X161415D01*
Y3858D01*
X160937D01*
Y3778D01*
X160540D01*
Y3858D01*
X159824D01*
Y3937D01*
X159506D01*
Y4017D01*
X159267D01*
Y4096D01*
X159108D01*
Y4176D01*
X158949D01*
Y4256D01*
X158870D01*
Y4335D01*
X158710D01*
Y4415D01*
X158631D01*
Y4494D01*
X158472D01*
Y4574D01*
X158392D01*
Y4653D01*
X158313D01*
Y4733D01*
X158233D01*
Y4812D01*
X158074D01*
Y4892D01*
X157995D01*
Y4971D01*
X157915D01*
Y5051D01*
X157836D01*
Y5130D01*
X157756D01*
Y5210D01*
X157676D01*
Y5289D01*
Y5369D01*
X157597D01*
Y5449D01*
X157517D01*
Y5528D01*
X157438D01*
Y5607D01*
X157358D01*
Y5687D01*
X157279D01*
Y5767D01*
Y5846D01*
X157199D01*
Y5926D01*
X157120D01*
Y6005D01*
Y6085D01*
X157040D01*
Y6005D01*
Y5926D01*
X156961D01*
Y5846D01*
Y5767D01*
Y5687D01*
Y5607D01*
Y5528D01*
Y5449D01*
Y5369D01*
Y5289D01*
X156881D01*
Y5210D01*
Y5130D01*
Y5051D01*
Y4971D01*
X156802D01*
Y4892D01*
Y4812D01*
Y4733D01*
X156722D01*
Y4653D01*
Y4574D01*
X156643D01*
Y4494D01*
Y4415D01*
X156563D01*
Y4335D01*
Y4256D01*
X156483D01*
Y4176D01*
X156404D01*
Y4096D01*
X156325D01*
Y4017D01*
X156245D01*
Y3937D01*
X156165D01*
Y3858D01*
X156086D01*
Y3778D01*
X155927D01*
Y3699D01*
X155847D01*
Y3619D01*
X155768D01*
Y3540D01*
X155609D01*
Y3460D01*
X155450D01*
Y3381D01*
X155290D01*
Y3301D01*
X155131D01*
Y3222D01*
X154972D01*
Y3142D01*
X154734D01*
Y3063D01*
X154416D01*
Y2983D01*
X153620D01*
Y2904D01*
X153541D01*
Y2983D01*
X152825D01*
Y3063D01*
X152507D01*
Y3142D01*
X152189D01*
Y3222D01*
X151950D01*
Y3301D01*
X151791D01*
Y3381D01*
X151552D01*
Y3460D01*
X151393D01*
Y3540D01*
X151234D01*
Y3619D01*
X151075D01*
Y3699D01*
X150996D01*
Y3778D01*
X150837D01*
Y3858D01*
X150678D01*
Y3937D01*
X150598D01*
Y4017D01*
X150519D01*
Y4096D01*
X150360D01*
Y4176D01*
X150280D01*
Y4256D01*
X150200D01*
Y4335D01*
X150121D01*
Y4415D01*
X150041D01*
Y4494D01*
X149962D01*
Y4574D01*
Y4653D01*
X149882D01*
Y4733D01*
X149803D01*
Y4812D01*
X149723D01*
Y4892D01*
Y4971D01*
X149644D01*
Y5051D01*
X149564D01*
Y5130D01*
Y5210D01*
X149485D01*
Y5289D01*
Y5369D01*
X149405D01*
Y5449D01*
Y5528D01*
X149326D01*
Y5607D01*
X149246D01*
Y5687D01*
Y5767D01*
X149167D01*
Y5846D01*
Y5926D01*
Y6005D01*
X149087D01*
Y6085D01*
Y6164D01*
X149007D01*
Y6244D01*
Y6323D01*
X148928D01*
Y6403D01*
Y6482D01*
X148848D01*
Y6562D01*
Y6641D01*
Y6721D01*
X148769D01*
Y6801D01*
Y6880D01*
Y6960D01*
X148689D01*
Y7039D01*
Y7119D01*
Y7198D01*
X148610D01*
Y7278D01*
Y7357D01*
X148530D01*
Y7437D01*
X148451D01*
Y7357D01*
Y7278D01*
Y7198D01*
Y7119D01*
X148371D01*
Y7039D01*
Y6960D01*
Y6880D01*
X148292D01*
Y6801D01*
Y6721D01*
Y6641D01*
X148212D01*
Y6562D01*
Y6482D01*
Y6403D01*
X148133D01*
Y6323D01*
Y6244D01*
X148053D01*
Y6164D01*
Y6085D01*
X147974D01*
Y6005D01*
Y5926D01*
Y5846D01*
X147894D01*
Y5767D01*
Y5687D01*
X147815D01*
Y5607D01*
Y5528D01*
X147735D01*
Y5449D01*
Y5369D01*
X147655D01*
Y5289D01*
X147576D01*
Y5210D01*
Y5130D01*
X147496D01*
Y5051D01*
Y4971D01*
X147417D01*
Y4892D01*
X147337D01*
Y4812D01*
Y4733D01*
X147258D01*
Y4653D01*
X147178D01*
Y4574D01*
X147099D01*
Y4494D01*
Y4415D01*
X147019D01*
Y4335D01*
X146940D01*
Y4256D01*
X146860D01*
Y4176D01*
Y4096D01*
X146781D01*
Y4017D01*
X146701D01*
Y3937D01*
X146622D01*
Y3858D01*
X146542D01*
Y3778D01*
X146463D01*
Y3699D01*
X146383D01*
Y3619D01*
X146303D01*
Y3540D01*
X146224D01*
Y3460D01*
X146144D01*
Y3381D01*
X146065D01*
Y3301D01*
X145985D01*
Y3222D01*
X145906D01*
Y3142D01*
X145747D01*
Y3063D01*
X145667D01*
Y2983D01*
X145588D01*
Y2904D01*
X145429D01*
Y2824D01*
X145349D01*
Y2744D01*
X145190D01*
Y2665D01*
X145031D01*
Y2585D01*
X144951D01*
Y2506D01*
X144792D01*
Y2426D01*
X144554D01*
Y2347D01*
X144395D01*
Y2267D01*
X144156D01*
Y2188D01*
X143918D01*
Y2108D01*
X143520D01*
Y2029D01*
X142406D01*
Y2108D01*
X142088D01*
Y2188D01*
X141850D01*
Y2267D01*
X141611D01*
Y2347D01*
X141452D01*
Y2426D01*
X141293D01*
Y2506D01*
X141134D01*
Y2585D01*
X140975D01*
Y2665D01*
X140816D01*
Y2744D01*
X140736D01*
Y2824D01*
X140577D01*
Y2904D01*
X140498D01*
Y2983D01*
X140418D01*
Y3063D01*
X140339D01*
Y3142D01*
X140259D01*
Y3222D01*
X140180D01*
Y3301D01*
X140100D01*
Y3381D01*
X140020D01*
Y3460D01*
X139941D01*
Y3540D01*
Y3619D01*
X139861D01*
Y3699D01*
X139782D01*
Y3778D01*
Y3858D01*
X139702D01*
Y3937D01*
X139623D01*
Y4017D01*
Y4096D01*
X139543D01*
Y4176D01*
Y4256D01*
X139464D01*
Y4335D01*
Y4415D01*
Y4494D01*
X139384D01*
Y4574D01*
Y4653D01*
Y4733D01*
X139305D01*
Y4812D01*
Y4892D01*
Y4971D01*
Y5051D01*
Y5130D01*
X139225D01*
Y5210D01*
Y5289D01*
Y5369D01*
Y5449D01*
Y5528D01*
Y5607D01*
Y5687D01*
Y5767D01*
Y5846D01*
Y5926D01*
Y6005D01*
Y6085D01*
Y6164D01*
Y6244D01*
Y6323D01*
Y6403D01*
Y6482D01*
Y6562D01*
Y6641D01*
Y6721D01*
X139305D01*
Y6801D01*
Y6880D01*
Y6960D01*
Y7039D01*
Y7119D01*
X139384D01*
Y7198D01*
Y7278D01*
Y7357D01*
X139464D01*
Y7437D01*
Y7516D01*
Y7596D01*
X139543D01*
Y7675D01*
Y7755D01*
X139623D01*
Y7834D01*
Y7914D01*
Y7993D01*
X139702D01*
Y8073D01*
Y8153D01*
X139782D01*
Y8232D01*
Y8312D01*
X139861D01*
Y8391D01*
Y8471D01*
X139941D01*
Y8550D01*
X140020D01*
Y8630D01*
Y8709D01*
X140100D01*
Y8789D01*
X140180D01*
Y8868D01*
X140259D01*
Y8948D01*
Y9027D01*
X140339D01*
Y9107D01*
X140418D01*
Y9187D01*
X140498D01*
Y9266D01*
X140577D01*
Y9346D01*
X140657D01*
Y9425D01*
X140736D01*
Y9505D01*
X140816D01*
Y9584D01*
X140895D01*
Y9664D01*
X140975D01*
Y9743D01*
X141134D01*
Y9823D01*
X141213D01*
Y9902D01*
X141293D01*
Y9982D01*
X141373D01*
Y10061D01*
X141532D01*
Y10141D01*
X141611D01*
Y10220D01*
X141770D01*
Y10300D01*
X141850D01*
Y10379D01*
X142009D01*
Y10459D01*
X142088D01*
Y10538D01*
X142247D01*
Y10618D01*
X142406D01*
Y10698D01*
X142566D01*
Y10777D01*
X142725D01*
Y10857D01*
X142884D01*
Y10936D01*
Y11016D01*
X142645D01*
Y11095D01*
X142327D01*
Y11175D01*
X142088D01*
Y11254D01*
X141850D01*
Y11334D01*
X141691D01*
Y11413D01*
X141532D01*
Y11493D01*
X141373D01*
Y11572D01*
X141213D01*
Y11652D01*
X141054D01*
Y11732D01*
X140975D01*
Y11811D01*
X140816D01*
Y11891D01*
X140736D01*
Y11970D01*
X140657D01*
Y12050D01*
X140498D01*
Y12129D01*
X140418D01*
Y12209D01*
X140339D01*
Y12288D01*
X140259D01*
Y12368D01*
X140180D01*
Y12447D01*
X140100D01*
Y12527D01*
X140020D01*
Y12606D01*
X139941D01*
Y12686D01*
X139861D01*
Y12765D01*
X139782D01*
Y12845D01*
X139702D01*
Y12924D01*
X139623D01*
Y13004D01*
X139543D01*
Y13083D01*
Y13163D01*
X139464D01*
Y13243D01*
X139384D01*
Y13322D01*
Y13402D01*
X139305D01*
Y13481D01*
X139225D01*
Y13561D01*
Y13640D01*
X139146D01*
Y13720D01*
Y13799D01*
Y13879D01*
X139066D01*
Y13958D01*
Y14038D01*
X138987D01*
Y14117D01*
Y14197D01*
Y14277D01*
Y14356D01*
X138907D01*
Y14436D01*
Y14515D01*
Y14595D01*
Y14674D01*
Y14754D01*
Y14833D01*
Y14913D01*
Y14992D01*
Y15072D01*
Y15151D01*
Y15231D01*
Y15310D01*
Y15390D01*
Y15470D01*
Y15549D01*
Y15629D01*
Y15708D01*
Y15788D01*
Y15867D01*
X138987D01*
Y15947D01*
Y16026D01*
Y16106D01*
Y16185D01*
Y16265D01*
X139066D01*
Y16344D01*
Y16424D01*
Y16503D01*
X139146D01*
Y16583D01*
Y16662D01*
Y16742D01*
X139225D01*
Y16822D01*
Y16901D01*
Y16981D01*
X139305D01*
Y17060D01*
Y17140D01*
X139384D01*
Y17219D01*
X139464D01*
Y17299D01*
Y17378D01*
X139543D01*
Y17458D01*
X139623D01*
Y17537D01*
Y17617D01*
X139702D01*
Y17696D01*
X139782D01*
Y17776D01*
X139861D01*
Y17855D01*
X139941D01*
Y17935D01*
X140020D01*
Y18014D01*
X140100D01*
Y18094D01*
X140180D01*
Y18174D01*
X140339D01*
Y18253D01*
X140418D01*
Y18333D01*
X140577D01*
Y18412D01*
X140657D01*
Y18492D01*
X140816D01*
Y18571D01*
X140975D01*
Y18651D01*
X141134D01*
Y18730D01*
X141373D01*
Y18810D01*
X141611D01*
Y18889D01*
X141929D01*
Y18969D01*
X142645D01*
Y19048D01*
X142884D01*
Y18969D01*
X143758D01*
Y18889D01*
X144236D01*
Y18810D01*
X144633D01*
Y18730D01*
X144951D01*
Y18651D01*
X145190D01*
Y18571D01*
X145429D01*
Y18492D01*
X145667D01*
Y18412D01*
X145826D01*
Y18333D01*
X145985D01*
Y18253D01*
X146144D01*
Y18174D01*
X146303D01*
Y18094D01*
X146383D01*
Y18014D01*
X146542D01*
Y17935D01*
X146622D01*
Y17855D01*
X146781D01*
Y17776D01*
X146860D01*
Y17696D01*
X146940D01*
Y17617D01*
X147099D01*
Y17537D01*
X147178D01*
Y17458D01*
X147258D01*
Y17378D01*
X147337D01*
Y17299D01*
X147417D01*
Y17219D01*
X147496D01*
Y17140D01*
X147576D01*
Y17060D01*
X147655D01*
Y16981D01*
X147735D01*
Y16901D01*
Y16822D01*
X147815D01*
Y16742D01*
X147894D01*
Y16662D01*
X147974D01*
Y16583D01*
Y16503D01*
X148053D01*
Y16424D01*
X148133D01*
Y16344D01*
Y16265D01*
X148212D01*
Y16185D01*
Y16106D01*
X148292D01*
Y16026D01*
Y15947D01*
X148371D01*
Y15867D01*
Y15788D01*
X148451D01*
Y15708D01*
Y15629D01*
Y15549D01*
X148530D01*
Y15470D01*
Y15390D01*
Y15310D01*
X148610D01*
Y15231D01*
Y15151D01*
Y15072D01*
Y14992D01*
X148689D01*
Y14913D01*
Y14833D01*
Y14754D01*
Y14674D01*
Y14595D01*
X148769D01*
Y14515D01*
Y14436D01*
Y14356D01*
X148928D01*
Y14436D01*
Y14515D01*
X149007D01*
Y14595D01*
X149087D01*
Y14674D01*
Y14754D01*
X149167D01*
Y14833D01*
X149246D01*
Y14913D01*
X149326D01*
Y14992D01*
X149405D01*
Y15072D01*
X149485D01*
Y15151D01*
X149564D01*
Y15231D01*
X149644D01*
Y15310D01*
X149723D01*
Y15390D01*
X149803D01*
Y15470D01*
X149882D01*
Y15549D01*
X149962D01*
Y15629D01*
X150121D01*
Y15708D01*
X150200D01*
Y15788D01*
X150280D01*
Y15867D01*
X150439D01*
Y15947D01*
X150598D01*
Y16026D01*
X150757D01*
Y16106D01*
X150996D01*
Y16185D01*
X151234D01*
Y16265D01*
X151552D01*
Y16344D01*
X152189D01*
Y16424D01*
X153064D01*
Y16344D01*
X153620D01*
Y16265D01*
X154018D01*
Y16185D01*
X154257D01*
Y16106D01*
X154495D01*
Y16026D01*
X154734D01*
Y15947D01*
X154893D01*
Y15867D01*
X155052D01*
Y15788D01*
X155211D01*
Y15708D01*
X155370D01*
Y15629D01*
X155529D01*
Y15549D01*
X155688D01*
Y15470D01*
X155768D01*
Y15390D01*
X155927D01*
Y15310D01*
X156006D01*
Y15231D01*
X156165D01*
Y15151D01*
X156245D01*
Y15072D01*
X156404D01*
Y14992D01*
X156483D01*
Y14913D01*
X156563D01*
Y14833D01*
X156722D01*
Y14754D01*
X156802D01*
Y14674D01*
X156881D01*
Y14595D01*
X156961D01*
Y14515D01*
X157040D01*
Y14436D01*
X157199D01*
Y14356D01*
X157279D01*
Y14277D01*
X157358D01*
Y14197D01*
X157438D01*
Y14117D01*
X157517D01*
Y14038D01*
X157597D01*
Y13958D01*
Y13879D01*
X157676D01*
Y13799D01*
X157756D01*
Y13720D01*
X157836D01*
Y13640D01*
X157915D01*
Y13561D01*
X157995D01*
Y13481D01*
X157915D01*
Y13402D01*
X157756D01*
Y13322D01*
X157676D01*
Y13243D01*
X157597D01*
Y13163D01*
X157517D01*
Y13083D01*
X157358D01*
Y13004D01*
X157199D01*
Y13083D01*
X157120D01*
Y13163D01*
X157040D01*
Y13243D01*
Y13322D01*
X156961D01*
Y13402D01*
X156881D01*
Y13481D01*
X156802D01*
Y13561D01*
X156722D01*
Y13640D01*
X156643D01*
Y13720D01*
X156563D01*
Y13799D01*
X156483D01*
Y13879D01*
X156325D01*
Y13958D01*
X156245D01*
Y14038D01*
X156165D01*
Y14117D01*
X156086D01*
Y14197D01*
X155927D01*
Y14277D01*
X155847D01*
Y14356D01*
X155768D01*
Y14436D01*
X155609D01*
Y14515D01*
X155529D01*
Y14595D01*
X155370D01*
Y14674D01*
X155290D01*
Y14754D01*
X155131D01*
Y14833D01*
X154972D01*
Y14913D01*
X154813D01*
Y14992D01*
X154654D01*
Y15072D01*
X154495D01*
Y15151D01*
X154336D01*
Y15231D01*
X154098D01*
Y15310D01*
X153859D01*
Y15390D01*
X153461D01*
Y15470D01*
X151791D01*
Y15390D01*
X151473D01*
Y15310D01*
X151155D01*
Y15231D01*
X150996D01*
Y15151D01*
X150837D01*
Y15072D01*
X150678D01*
Y14992D01*
X150598D01*
Y14913D01*
X150519D01*
Y14833D01*
X150439D01*
Y14754D01*
X150280D01*
Y14674D01*
X150200D01*
Y14595D01*
X150121D01*
Y14515D01*
X150041D01*
Y14436D01*
Y14356D01*
X149962D01*
Y14277D01*
X149882D01*
Y14197D01*
X149803D01*
Y14117D01*
X149723D01*
Y14038D01*
Y13958D01*
X149644D01*
Y13879D01*
X149564D01*
Y13799D01*
Y13720D01*
X149485D01*
Y13640D01*
X149405D01*
Y13561D01*
Y13481D01*
X149326D01*
Y13402D01*
Y13322D01*
X149246D01*
Y13243D01*
Y13163D01*
Y13083D01*
X149167D01*
Y13004D01*
Y12924D01*
Y12845D01*
X149087D01*
Y12765D01*
Y12686D01*
Y12606D01*
Y12527D01*
Y12447D01*
X149007D01*
Y12368D01*
Y12288D01*
Y12209D01*
Y12129D01*
Y12050D01*
Y11970D01*
Y11891D01*
X148928D01*
Y11811D01*
Y11732D01*
Y11652D01*
Y11572D01*
X149962D01*
Y11493D01*
X151473D01*
Y11413D01*
X152109D01*
Y11334D01*
X152507D01*
Y11254D01*
X152825D01*
Y11175D01*
X153064D01*
Y11095D01*
X153302D01*
Y11016D01*
X153541D01*
Y10936D01*
X153700D01*
Y10857D01*
X153859D01*
Y10777D01*
X154018D01*
Y10698D01*
X154177D01*
Y10618D01*
X154336D01*
Y10538D01*
X154495D01*
Y10459D01*
X154575D01*
Y10379D01*
X154734D01*
Y10300D01*
X154813D01*
Y10220D01*
X154893D01*
Y10141D01*
X155052D01*
Y10061D01*
X155131D01*
Y9982D01*
X155211D01*
Y9902D01*
X155290D01*
Y9823D01*
X155370D01*
Y9743D01*
X155450D01*
Y9664D01*
X155529D01*
Y9584D01*
X155609D01*
Y9505D01*
X155688D01*
Y9425D01*
X155768D01*
Y9346D01*
X155847D01*
Y9266D01*
X155927D01*
Y9187D01*
X156006D01*
Y9107D01*
X156086D01*
Y9027D01*
X156165D01*
Y8948D01*
X156245D01*
Y8868D01*
Y8789D01*
X156325D01*
Y8709D01*
X156404D01*
Y8630D01*
X156483D01*
Y8550D01*
X156563D01*
Y8471D01*
Y8391D01*
X156643D01*
Y8312D01*
X156722D01*
Y8232D01*
X156802D01*
Y8153D01*
X156881D01*
Y8073D01*
Y7993D01*
X156961D01*
Y7914D01*
X157040D01*
Y7834D01*
Y7755D01*
X157120D01*
Y7675D01*
X157199D01*
Y7596D01*
Y7516D01*
X157279D01*
Y7437D01*
X157358D01*
Y7357D01*
Y7278D01*
X157438D01*
Y7198D01*
X157517D01*
Y7119D01*
Y7039D01*
X157597D01*
Y6960D01*
Y6880D01*
X157676D01*
Y6801D01*
Y6721D01*
X157756D01*
Y6641D01*
Y6562D01*
X157836D01*
Y6482D01*
X157915D01*
Y6403D01*
Y6323D01*
X157995D01*
Y6244D01*
X158074D01*
Y6164D01*
X158154D01*
Y6085D01*
X158233D01*
Y6005D01*
Y5926D01*
X158313D01*
Y5846D01*
X158392D01*
Y5767D01*
X158472D01*
Y5687D01*
X158551D01*
Y5607D01*
X158631D01*
Y5528D01*
X158710D01*
Y5449D01*
X158790D01*
Y5369D01*
X158870D01*
Y5289D01*
X159028D01*
Y5210D01*
X159108D01*
Y5130D01*
X159267D01*
Y5051D01*
X159347D01*
Y4971D01*
X159506D01*
Y4892D01*
X159665D01*
Y4812D01*
X159983D01*
Y4733D01*
X161176D01*
Y4812D01*
X161415D01*
Y4892D01*
X161494D01*
Y4971D01*
X161653D01*
Y5051D01*
X161733D01*
Y5130D01*
X161812D01*
Y5210D01*
X161892D01*
Y5289D01*
X161971D01*
Y5369D01*
Y5449D01*
Y5528D01*
X161892D01*
Y5607D01*
X161812D01*
Y5687D01*
Y5767D01*
X161733D01*
Y5846D01*
X161653D01*
Y5926D01*
Y6005D01*
X161574D01*
Y6085D01*
Y6164D01*
X161494D01*
Y6244D01*
Y6323D01*
Y6403D01*
X161415D01*
Y6482D01*
Y6562D01*
Y6641D01*
X161335D01*
Y6721D01*
Y6801D01*
Y6880D01*
X161255D01*
Y6960D01*
Y7039D01*
Y7119D01*
Y7198D01*
Y7278D01*
Y7357D01*
Y7437D01*
Y7516D01*
X161176D01*
Y7596D01*
X161255D01*
Y7675D01*
Y7755D01*
Y7834D01*
Y7914D01*
Y7993D01*
Y8073D01*
Y8153D01*
Y8232D01*
X161335D01*
Y8312D01*
Y8391D01*
Y8471D01*
Y8550D01*
X161415D01*
Y8630D01*
Y8709D01*
X161494D01*
Y8789D01*
Y8868D01*
Y8948D01*
X161574D01*
Y9027D01*
Y9107D01*
X161653D01*
Y9187D01*
X161733D01*
Y9266D01*
Y9346D01*
X161812D01*
Y9425D01*
X161892D01*
Y9505D01*
X161971D01*
Y9584D01*
X162051D01*
Y9664D01*
X162130D01*
Y9743D01*
X162210D01*
Y9823D01*
X162289D01*
Y9902D01*
X162369D01*
Y9982D01*
X162448D01*
Y10061D01*
Y10141D01*
Y10220D01*
Y10300D01*
Y10379D01*
Y10459D01*
X162369D01*
Y10538D01*
Y10618D01*
Y10698D01*
Y10777D01*
Y10857D01*
X162289D01*
Y10936D01*
Y11016D01*
Y11095D01*
X162210D01*
Y11175D01*
Y11254D01*
Y11334D01*
Y11413D01*
X162130D01*
Y11493D01*
Y11572D01*
Y11652D01*
X162051D01*
Y11732D01*
Y11811D01*
Y11891D01*
X161971D01*
Y11970D01*
Y12050D01*
Y12129D01*
X161892D01*
Y12209D01*
Y12288D01*
X161812D01*
Y12368D01*
Y12447D01*
Y12527D01*
X161733D01*
Y12606D01*
Y12686D01*
X161653D01*
Y12765D01*
Y12845D01*
X161574D01*
Y12924D01*
Y13004D01*
X161494D01*
Y13083D01*
Y13163D01*
Y13243D01*
X161415D01*
Y13322D01*
Y13402D01*
X161335D01*
Y13481D01*
Y13561D01*
X161255D01*
Y13640D01*
Y13720D01*
X161176D01*
Y13799D01*
Y13879D01*
X161096D01*
Y13958D01*
Y14038D01*
X161017D01*
Y14117D01*
Y14197D01*
X160937D01*
Y14277D01*
Y14356D01*
X160858D01*
Y14436D01*
Y14515D01*
X160778D01*
Y14595D01*
Y14674D01*
X160699D01*
Y14754D01*
Y14833D01*
X160619D01*
Y14913D01*
Y14992D01*
X160540D01*
Y15072D01*
Y15151D01*
X160460D01*
Y15231D01*
Y15310D01*
X160381D01*
Y15390D01*
Y15470D01*
X160301D01*
Y15549D01*
Y15629D01*
X160222D01*
Y15708D01*
X160142D01*
Y15788D01*
Y15867D01*
X160062D01*
Y15947D01*
Y16026D01*
X159983D01*
Y16106D01*
X159903D01*
Y16185D01*
Y16265D01*
X159824D01*
Y16344D01*
Y16424D01*
X159744D01*
Y16503D01*
X159665D01*
Y16583D01*
Y16662D01*
X159585D01*
Y16742D01*
X159506D01*
Y16822D01*
Y16901D01*
X159426D01*
Y16981D01*
X159347D01*
Y17060D01*
Y17140D01*
X159267D01*
Y17219D01*
X159188D01*
Y17299D01*
Y17378D01*
X159108D01*
Y17458D01*
X159028D01*
Y17537D01*
Y17617D01*
X158949D01*
Y17696D01*
X158870D01*
Y17776D01*
X158790D01*
Y17855D01*
Y17935D01*
X158710D01*
Y18014D01*
X158631D01*
Y18094D01*
X158551D01*
Y18174D01*
X158472D01*
Y18253D01*
Y18333D01*
X158392D01*
Y18412D01*
X158313D01*
Y18492D01*
X158233D01*
Y18571D01*
X158154D01*
Y18651D01*
Y18730D01*
X158074D01*
Y18810D01*
X157995D01*
Y18889D01*
X157915D01*
Y18969D01*
X157836D01*
Y19048D01*
X157756D01*
Y19128D01*
Y19207D01*
X157676D01*
Y19287D01*
X157597D01*
Y19367D01*
X157517D01*
Y19446D01*
X157438D01*
Y19526D01*
X157358D01*
Y19605D01*
X157279D01*
Y19685D01*
X157199D01*
Y19764D01*
X157120D01*
Y19844D01*
X157040D01*
Y19923D01*
X156961D01*
Y20003D01*
X156881D01*
Y20082D01*
X156802D01*
Y20162D01*
X156722D01*
Y20241D01*
X156643D01*
Y20321D01*
X156563D01*
Y20401D01*
X156483D01*
Y20480D01*
X156404D01*
Y20560D01*
X156325D01*
Y20639D01*
X156245D01*
Y20719D01*
X156165D01*
Y20798D01*
X156086D01*
Y20878D01*
X156006D01*
Y20957D01*
X155927D01*
Y21037D01*
X156006D01*
Y21116D01*
X156086D01*
Y21196D01*
Y21275D01*
X156165D01*
Y21355D01*
X156245D01*
Y21434D01*
X156325D01*
Y21514D01*
X156404D01*
Y21593D01*
X156563D01*
Y21514D01*
X156643D01*
Y21434D01*
X156722D01*
Y21355D01*
X156802D01*
Y21275D01*
X156961D01*
Y21196D01*
X157040D01*
Y21116D01*
X157120D01*
Y21037D01*
X157199D01*
Y20957D01*
X157279D01*
Y20878D01*
X157358D01*
Y20798D01*
X157438D01*
Y20719D01*
X157517D01*
Y20639D01*
X157597D01*
Y20560D01*
X157676D01*
Y20480D01*
X157756D01*
Y20401D01*
X157836D01*
Y20321D01*
X157915D01*
Y20241D01*
X157995D01*
Y20162D01*
X158074D01*
Y20082D01*
X158154D01*
Y20003D01*
X158233D01*
Y19923D01*
Y19844D01*
X158313D01*
Y19764D01*
X158392D01*
Y19685D01*
X158472D01*
Y19605D01*
X158551D01*
Y19526D01*
X158631D01*
Y19446D01*
X158710D01*
Y19367D01*
Y19287D01*
X158790D01*
Y19207D01*
X158870D01*
Y19128D01*
X158949D01*
Y19048D01*
X159028D01*
Y18969D01*
Y18889D01*
X159108D01*
Y18810D01*
X159188D01*
Y18730D01*
X159267D01*
Y18651D01*
X159347D01*
Y18571D01*
Y18492D01*
X159426D01*
Y18412D01*
X159506D01*
Y18333D01*
X159585D01*
Y18253D01*
Y18174D01*
X159665D01*
Y18094D01*
X159744D01*
Y18014D01*
X159824D01*
Y17935D01*
Y17855D01*
X159903D01*
Y17776D01*
X159983D01*
Y17696D01*
Y17617D01*
X160062D01*
Y17537D01*
X160142D01*
Y17458D01*
Y17378D01*
X160222D01*
Y17299D01*
X160301D01*
Y17219D01*
Y17140D01*
X160381D01*
Y17060D01*
X160460D01*
Y16981D01*
Y16901D01*
X160540D01*
Y16822D01*
X160619D01*
Y16742D01*
Y16662D01*
X160699D01*
Y16583D01*
Y16503D01*
X160778D01*
Y16424D01*
X160858D01*
Y16344D01*
Y16265D01*
X160937D01*
Y16185D01*
Y16106D01*
X161017D01*
Y16026D01*
X161096D01*
Y15947D01*
Y15867D01*
X161176D01*
Y15788D01*
Y15708D01*
X161255D01*
Y15629D01*
Y15549D01*
X161335D01*
Y15470D01*
Y15390D01*
X161415D01*
Y15310D01*
Y15231D01*
X161494D01*
Y15151D01*
Y15072D01*
X161574D01*
Y14992D01*
Y14913D01*
X161653D01*
Y14833D01*
Y14754D01*
X161733D01*
Y14674D01*
Y14595D01*
X161812D01*
Y14515D01*
Y14436D01*
X161892D01*
Y14356D01*
Y14277D01*
X161971D01*
Y14197D01*
Y14117D01*
X162051D01*
Y14038D01*
Y13958D01*
X162130D01*
Y13879D01*
Y13799D01*
X162210D01*
Y13720D01*
Y13640D01*
X162289D01*
Y13561D01*
Y13481D01*
Y13402D01*
X162369D01*
Y13322D01*
Y13243D01*
X162448D01*
Y13163D01*
Y13083D01*
X162528D01*
Y13004D01*
Y12924D01*
X162608D01*
Y12845D01*
Y12765D01*
Y12686D01*
X162687D01*
Y12606D01*
Y12527D01*
X162767D01*
Y12447D01*
Y12368D01*
Y12288D01*
X162846D01*
Y12209D01*
Y12129D01*
X162926D01*
Y12050D01*
Y11970D01*
Y11891D01*
X163005D01*
Y11811D01*
Y11732D01*
Y11652D01*
Y11572D01*
X163085D01*
Y11493D01*
Y11413D01*
Y11334D01*
X163164D01*
Y11254D01*
Y11175D01*
Y11095D01*
Y11016D01*
X163244D01*
Y10936D01*
Y10857D01*
Y10777D01*
Y10698D01*
X163323D01*
Y10618D01*
Y10538D01*
X163482D01*
Y10618D01*
X163641D01*
Y10698D01*
X163880D01*
Y10777D01*
X164119D01*
Y10857D01*
X164357D01*
Y10936D01*
X164596D01*
Y11016D01*
X164834D01*
Y11095D01*
X165153D01*
Y11175D01*
X165471D01*
Y11254D01*
X165868D01*
Y11334D01*
X166186D01*
Y11413D01*
X166107D01*
Y11493D01*
X165948D01*
Y11572D01*
X165789D01*
Y11652D01*
X165630D01*
Y11732D01*
X165471D01*
Y11811D01*
X165312D01*
Y11891D01*
X165153D01*
Y11970D01*
X165073D01*
Y12050D01*
X164914D01*
Y12129D01*
X164834D01*
Y12209D01*
X164675D01*
Y12288D01*
X164596D01*
Y12368D01*
X164437D01*
Y12447D01*
X164357D01*
Y12527D01*
X164278D01*
Y12606D01*
X164119D01*
Y12686D01*
X164039D01*
Y12765D01*
X163960D01*
Y12845D01*
X163880D01*
Y12924D01*
X163800D01*
Y13004D01*
X163721D01*
Y13083D01*
X163641D01*
Y13163D01*
X163562D01*
Y13243D01*
Y13322D01*
X163482D01*
Y13402D01*
X163403D01*
Y13481D01*
X163323D01*
Y13561D01*
Y13640D01*
X163244D01*
Y13720D01*
X163164D01*
Y13799D01*
Y13879D01*
X163085D01*
Y13958D01*
X163005D01*
Y14038D01*
Y14117D01*
X162926D01*
Y14197D01*
Y14277D01*
X162846D01*
Y14356D01*
Y14436D01*
X162767D01*
Y14515D01*
Y14595D01*
X162687D01*
Y14674D01*
Y14754D01*
Y14833D01*
X162608D01*
Y14913D01*
Y14992D01*
Y15072D01*
X162528D01*
Y15151D01*
Y15231D01*
Y15310D01*
X162448D01*
Y15390D01*
Y15470D01*
Y15549D01*
Y15629D01*
Y15708D01*
X162369D01*
Y15788D01*
Y15867D01*
Y15947D01*
Y16026D01*
Y16106D01*
Y16185D01*
Y16265D01*
Y16344D01*
Y16424D01*
X162289D01*
Y16503D01*
Y16583D01*
Y16662D01*
Y16742D01*
X162369D01*
Y16822D01*
Y16901D01*
Y16981D01*
Y17060D01*
Y17140D01*
Y17219D01*
Y17299D01*
X162448D01*
Y17378D01*
Y17458D01*
Y17537D01*
Y17617D01*
X162528D01*
Y17696D01*
Y17776D01*
Y17855D01*
X162608D01*
Y17935D01*
Y18014D01*
Y18094D01*
X162687D01*
Y18174D01*
Y18253D01*
X162767D01*
Y18333D01*
Y18412D01*
X162846D01*
Y18492D01*
Y18571D01*
X162926D01*
Y18651D01*
X163005D01*
Y18730D01*
Y18810D01*
X163085D01*
Y18889D01*
X163164D01*
Y18969D01*
Y19048D01*
X163244D01*
Y19128D01*
X163323D01*
Y19207D01*
X163403D01*
Y19287D01*
Y19367D01*
X163482D01*
Y19446D01*
X163562D01*
Y19526D01*
X163641D01*
Y19605D01*
X163721D01*
Y19685D01*
X163800D01*
Y19764D01*
X163960D01*
Y19844D01*
X164039D01*
Y19923D01*
X164119D01*
Y20003D01*
X164198D01*
Y20082D01*
X164357D01*
Y20162D01*
X164516D01*
Y20241D01*
X164596D01*
Y20321D01*
X164755D01*
Y20401D01*
X164914D01*
Y20480D01*
X165153D01*
Y20560D01*
X165391D01*
Y20639D01*
X165709D01*
Y20719D01*
X166107D01*
Y20798D01*
X167379D01*
Y20719D01*
X167857D01*
Y20639D01*
X168175D01*
Y20560D01*
X168413D01*
Y20480D01*
X168652D01*
Y20401D01*
X168811D01*
Y20321D01*
X168970D01*
Y20241D01*
X169129D01*
Y20162D01*
X169288D01*
Y20082D01*
X169447D01*
Y20003D01*
X169527D01*
Y19923D01*
X169606D01*
Y19844D01*
X169765D01*
Y19764D01*
X169845D01*
Y19685D01*
X169924D01*
Y19605D01*
X170004D01*
Y19526D01*
X170083D01*
Y19446D01*
X170163D01*
Y19367D01*
X170243D01*
Y19287D01*
X170322D01*
Y19207D01*
X170402D01*
Y19128D01*
X170481D01*
Y19048D01*
X170561D01*
Y18969D01*
Y18889D01*
X170640D01*
Y18810D01*
X170720D01*
Y18730D01*
X170799D01*
Y18651D01*
Y18571D01*
X170879D01*
Y18492D01*
X170958D01*
Y18412D01*
Y18333D01*
X171038D01*
Y18253D01*
Y18174D01*
X171117D01*
Y18094D01*
Y18014D01*
X171197D01*
Y17935D01*
Y17855D01*
X171276D01*
Y17776D01*
Y17696D01*
X171356D01*
Y17617D01*
Y17537D01*
X171435D01*
Y17458D01*
Y17378D01*
Y17299D01*
X171515D01*
Y17219D01*
Y17140D01*
Y17060D01*
Y16981D01*
X171595D01*
Y16901D01*
Y16822D01*
Y16742D01*
Y16662D01*
X171674D01*
Y16583D01*
Y16503D01*
Y16424D01*
Y16344D01*
Y16265D01*
X171754D01*
Y16185D01*
Y16106D01*
Y16026D01*
Y15947D01*
Y15867D01*
Y15788D01*
X171833D01*
Y15708D01*
Y15629D01*
Y15549D01*
Y15470D01*
Y15390D01*
Y15310D01*
Y15231D01*
Y15151D01*
X171992D01*
Y15231D01*
Y15310D01*
X172072D01*
Y15390D01*
X172151D01*
Y15470D01*
Y15549D01*
X172231D01*
Y15629D01*
Y15708D01*
X172310D01*
Y15788D01*
X172390D01*
Y15867D01*
Y15947D01*
X172469D01*
Y16026D01*
X172549D01*
Y16106D01*
X172628D01*
Y16185D01*
Y16265D01*
X172708D01*
Y16344D01*
X172787D01*
Y16424D01*
X172867D01*
Y16503D01*
X172947D01*
Y16583D01*
X173026D01*
Y16662D01*
X173185D01*
Y16742D01*
X173265D01*
Y16822D01*
X173344D01*
Y16901D01*
X173424D01*
Y16981D01*
X173583D01*
Y17060D01*
X173662D01*
Y17140D01*
X173821D01*
Y17219D01*
X173901D01*
Y17299D01*
X174060D01*
Y17378D01*
X174219D01*
Y17458D01*
X174299D01*
Y17537D01*
X174458D01*
Y17617D01*
X174617D01*
Y17696D01*
X174776D01*
Y17776D01*
X175014D01*
Y17855D01*
X175173D01*
Y17935D01*
X175412D01*
Y18014D01*
X175730D01*
Y18094D01*
X176128D01*
Y18174D01*
X177957D01*
Y18094D01*
X178514D01*
Y18014D01*
X178832D01*
Y17935D01*
X179150D01*
Y17855D01*
X179389D01*
Y17776D01*
X179627D01*
Y17696D01*
X179786D01*
Y17617D01*
X179945D01*
Y17537D01*
X180104D01*
Y17458D01*
X180263D01*
Y17378D01*
X180423D01*
Y17299D01*
X180582D01*
Y17219D01*
X180661D01*
Y17140D01*
X180741D01*
Y17060D01*
X180900D01*
Y16981D01*
X180979D01*
Y16901D01*
X181138D01*
Y16822D01*
X181218D01*
Y16742D01*
X181297D01*
Y16662D01*
X181377D01*
Y16583D01*
X181456D01*
Y16503D01*
X181536D01*
Y16424D01*
X181616D01*
Y16344D01*
X181775D01*
Y16265D01*
X181854D01*
Y16185D01*
X181934D01*
Y16106D01*
Y16026D01*
X182013D01*
Y15947D01*
X182093D01*
Y15867D01*
X182172D01*
Y15788D01*
X182252D01*
Y15708D01*
X182331D01*
Y15629D01*
X182411D01*
Y15549D01*
X182490D01*
Y15470D01*
Y15390D01*
X182570D01*
Y15310D01*
X182650D01*
Y15231D01*
X182729D01*
Y15151D01*
X182808D01*
Y15072D01*
Y14992D01*
X182888D01*
Y14913D01*
X182968D01*
Y14833D01*
Y14754D01*
X183047D01*
Y14674D01*
X183127D01*
Y14595D01*
Y14515D01*
X183206D01*
Y14436D01*
X183286D01*
Y14356D01*
Y14277D01*
X183365D01*
Y14197D01*
Y14117D01*
X183445D01*
Y14038D01*
X183524D01*
Y13958D01*
Y13879D01*
X183604D01*
Y13799D01*
Y13720D01*
X183683D01*
Y13640D01*
Y13561D01*
X183763D01*
Y13481D01*
Y13402D01*
Y13322D01*
X183843D01*
Y13243D01*
Y13163D01*
X183922D01*
Y13083D01*
Y13004D01*
Y12924D01*
X184002D01*
Y12845D01*
Y12765D01*
X184081D01*
Y12686D01*
Y12606D01*
Y12527D01*
Y12447D01*
X184161D01*
Y12368D01*
Y12288D01*
Y12209D01*
Y12129D01*
X184240D01*
Y12050D01*
Y11970D01*
Y11891D01*
Y11811D01*
X184320D01*
Y11732D01*
Y11652D01*
Y11572D01*
Y11493D01*
Y11413D01*
Y11334D01*
X184399D01*
Y11254D01*
Y11175D01*
Y11095D01*
Y11016D01*
Y10936D01*
Y10857D01*
X184479D01*
Y10777D01*
Y10698D01*
Y10618D01*
Y10538D01*
Y10459D01*
Y10379D01*
Y10300D01*
Y10220D01*
X184558D01*
Y10141D01*
Y10061D01*
Y9982D01*
Y9902D01*
Y9823D01*
Y9743D01*
Y9664D01*
Y9584D01*
Y9505D01*
X184638D01*
Y9425D01*
Y9346D01*
Y9266D01*
Y9187D01*
Y9107D01*
Y9027D01*
Y8948D01*
Y8868D01*
Y8789D01*
Y8709D01*
Y8630D01*
Y8550D01*
X184717D01*
Y8471D01*
Y8391D01*
Y8312D01*
X184797D01*
Y8391D01*
Y8471D01*
Y8550D01*
X184876D01*
Y8630D01*
Y8709D01*
Y8789D01*
Y8868D01*
X184956D01*
Y8948D01*
Y9027D01*
Y9107D01*
Y9187D01*
X185035D01*
Y9266D01*
Y9346D01*
Y9425D01*
Y9505D01*
Y9584D01*
X185115D01*
Y9664D01*
Y9743D01*
Y9823D01*
Y9902D01*
Y9982D01*
X185195D01*
Y10061D01*
Y10141D01*
Y10220D01*
Y10300D01*
Y10379D01*
Y10459D01*
X185274D01*
Y10538D01*
Y10618D01*
Y10698D01*
Y10777D01*
Y10857D01*
Y10936D01*
Y11016D01*
X185354D01*
Y11095D01*
Y11175D01*
Y11254D01*
Y11334D01*
Y11413D01*
Y11493D01*
X185433D01*
Y11572D01*
Y11652D01*
Y11732D01*
Y11811D01*
Y11891D01*
Y11970D01*
Y12050D01*
Y12129D01*
X185513D01*
Y12209D01*
Y12288D01*
Y12368D01*
Y12447D01*
Y12527D01*
Y12606D01*
Y12686D01*
Y12765D01*
Y12845D01*
Y12924D01*
Y13004D01*
X185592D01*
Y13083D01*
Y13163D01*
Y13243D01*
Y13322D01*
Y13402D01*
Y13481D01*
Y13561D01*
Y13640D01*
Y13720D01*
Y13799D01*
Y13879D01*
Y13958D01*
Y14038D01*
Y14117D01*
Y14197D01*
Y14277D01*
Y14356D01*
Y14436D01*
Y14515D01*
Y14595D01*
Y14674D01*
Y14754D01*
Y14833D01*
Y14913D01*
Y14992D01*
Y15072D01*
Y15151D01*
X185513D01*
Y15231D01*
Y15310D01*
Y15390D01*
Y15470D01*
Y15549D01*
Y15629D01*
Y15708D01*
Y15788D01*
Y15867D01*
X185433D01*
Y15947D01*
Y16026D01*
Y16106D01*
Y16185D01*
Y16265D01*
Y16344D01*
Y16424D01*
X185354D01*
Y16503D01*
Y16583D01*
Y16662D01*
Y16742D01*
Y16822D01*
X185274D01*
Y16901D01*
Y16981D01*
Y17060D01*
Y17140D01*
Y17219D01*
X185195D01*
Y17299D01*
Y17378D01*
Y17458D01*
Y17537D01*
X185115D01*
Y17617D01*
Y17696D01*
Y17776D01*
Y17855D01*
X185035D01*
Y17935D01*
Y18014D01*
Y18094D01*
X184956D01*
Y18174D01*
Y18253D01*
Y18333D01*
X184876D01*
Y18412D01*
Y18492D01*
Y18571D01*
X184797D01*
Y18651D01*
Y18730D01*
Y18810D01*
X184717D01*
Y18889D01*
Y18969D01*
X184638D01*
Y19048D01*
Y19128D01*
X184558D01*
Y19207D01*
Y19287D01*
X184479D01*
Y19367D01*
Y19446D01*
X184399D01*
Y19526D01*
Y19605D01*
X184320D01*
Y19685D01*
Y19764D01*
X184240D01*
Y19844D01*
Y19923D01*
X184161D01*
Y20003D01*
Y20082D01*
X184081D01*
Y20162D01*
X184002D01*
Y20241D01*
X183922D01*
Y20321D01*
Y20401D01*
X183843D01*
Y20480D01*
X183763D01*
Y20560D01*
X183683D01*
Y20639D01*
Y20719D01*
X183604D01*
Y20798D01*
X183524D01*
Y20878D01*
X183445D01*
Y20957D01*
X183365D01*
Y21037D01*
X183286D01*
Y21116D01*
X183206D01*
Y21196D01*
X183127D01*
Y21275D01*
X183047D01*
Y21355D01*
X182968D01*
Y21434D01*
X182888D01*
Y21514D01*
X182808D01*
Y21593D01*
X182650D01*
Y21673D01*
X182570D01*
Y21753D01*
X182490D01*
Y21832D01*
X182411D01*
Y21912D01*
X182252D01*
Y21991D01*
X182172D01*
Y22071D01*
X182013D01*
Y22150D01*
X181934D01*
Y22230D01*
X181775D01*
Y22309D01*
X181695D01*
Y22389D01*
X181536D01*
Y22468D01*
X181377D01*
Y22548D01*
X181218D01*
Y22627D01*
X180979D01*
Y22707D01*
X180820D01*
Y22786D01*
X180582D01*
Y22866D01*
X180343D01*
Y22945D01*
X180104D01*
Y23025D01*
X179786D01*
Y23104D01*
X179468D01*
Y23184D01*
X179150D01*
Y23264D01*
X178673D01*
Y23343D01*
X177321D01*
Y23264D01*
X176844D01*
Y23184D01*
X176525D01*
Y23104D01*
X176287D01*
Y23025D01*
X176048D01*
Y22945D01*
X175889D01*
Y22866D01*
X175730D01*
Y22786D01*
X175651D01*
Y22707D01*
X175492D01*
Y22627D01*
X175412D01*
Y22548D01*
X175332D01*
Y22468D01*
X175173D01*
Y22389D01*
X175094D01*
Y22309D01*
X175014D01*
Y22230D01*
X174935D01*
Y22150D01*
X174855D01*
Y22071D01*
X174776D01*
Y21991D01*
X174696D01*
Y21912D01*
X174617D01*
Y21832D01*
X174537D01*
Y21753D01*
X174458D01*
Y21673D01*
X174378D01*
Y21753D01*
X174219D01*
Y21832D01*
X174140D01*
Y21912D01*
X174060D01*
Y21991D01*
X173980D01*
Y22071D01*
X173901D01*
Y22150D01*
X173821D01*
Y22230D01*
X173742D01*
Y22309D01*
X173821D01*
Y22389D01*
X173901D01*
Y22468D01*
X173980D01*
Y22548D01*
X174060D01*
Y22627D01*
X174140D01*
Y22707D01*
X174219D01*
Y22786D01*
X174299D01*
Y22866D01*
X174378D01*
Y22945D01*
X174458D01*
Y23025D01*
X174617D01*
Y23104D01*
X174696D01*
Y23184D01*
X174776D01*
Y23264D01*
X174855D01*
Y23343D01*
X174935D01*
Y23423D01*
X175094D01*
Y23502D01*
X175253D01*
Y23582D01*
X175332D01*
Y23661D01*
X175492D01*
Y23741D01*
X175651D01*
Y23820D01*
X175889D01*
Y23900D01*
X176128D01*
Y23979D01*
X176366D01*
Y24059D01*
X176685D01*
Y24138D01*
X177003D01*
Y24218D01*
X178037D01*
Y24297D01*
X178116D01*
Y24218D01*
D02*
G37*
G36*
X120079Y10038D02*
Y9123D01*
Y8188D01*
Y7253D01*
Y6328D01*
Y5393D01*
Y4458D01*
Y3543D01*
Y2628D01*
X119154D01*
Y1713D01*
X115444D01*
Y2628D01*
X114509D01*
Y1713D01*
X110800D01*
Y2628D01*
X110790D01*
Y1713D01*
X103370D01*
Y2628D01*
X102436D01*
Y1713D01*
X98726D01*
Y2628D01*
Y3543D01*
Y4458D01*
Y5393D01*
Y6328D01*
Y7253D01*
Y8188D01*
Y9123D01*
Y10038D01*
X99641D01*
Y10972D01*
X103370D01*
Y10038D01*
X104305D01*
Y10972D01*
X108005D01*
Y10038D01*
X108015D01*
Y10972D01*
X115444D01*
Y10038D01*
X116379D01*
Y10972D01*
X120079D01*
Y10038D01*
D02*
G37*
%LPC*%
G36*
X110790D02*
X108920D01*
Y9123D01*
Y8188D01*
Y7253D01*
Y6328D01*
Y5393D01*
Y4458D01*
Y3543D01*
X110790D01*
Y4458D01*
Y5393D01*
Y6328D01*
Y7253D01*
Y8188D01*
Y9123D01*
Y10038D01*
D02*
G37*
G36*
X147974Y10618D02*
X146303D01*
Y10538D01*
X145190D01*
Y10459D01*
X144554D01*
Y10379D01*
X144077D01*
Y10300D01*
X143758D01*
Y10220D01*
X143440D01*
Y10141D01*
X143281D01*
Y10061D01*
X143122D01*
Y9982D01*
X142963D01*
Y9902D01*
X142804D01*
Y9823D01*
X142645D01*
Y9743D01*
X142486D01*
Y9664D01*
X142406D01*
Y9584D01*
X142247D01*
Y9505D01*
X142168D01*
Y9425D01*
X142009D01*
Y9346D01*
X141929D01*
Y9266D01*
X141850D01*
Y9187D01*
X141691D01*
Y9107D01*
X141611D01*
Y9027D01*
X141532D01*
Y8948D01*
X141452D01*
Y8868D01*
X141373D01*
Y8789D01*
X141293D01*
Y8709D01*
X141213D01*
Y8630D01*
X141134D01*
Y8550D01*
X141054D01*
Y8471D01*
X140975D01*
Y8391D01*
X140895D01*
Y8312D01*
X140816D01*
Y8232D01*
Y8153D01*
X140736D01*
Y8073D01*
X140657D01*
Y7993D01*
Y7914D01*
X140577D01*
Y7834D01*
Y7755D01*
X140498D01*
Y7675D01*
Y7596D01*
X140418D01*
Y7516D01*
Y7437D01*
Y7357D01*
X140339D01*
Y7278D01*
Y7198D01*
Y7119D01*
X140259D01*
Y7039D01*
Y6960D01*
X140180D01*
Y6880D01*
Y6801D01*
Y6721D01*
Y6641D01*
Y6562D01*
Y6482D01*
X140100D01*
Y6403D01*
Y6323D01*
Y6244D01*
Y6164D01*
Y6085D01*
Y6005D01*
Y5926D01*
Y5846D01*
Y5767D01*
Y5687D01*
Y5607D01*
Y5528D01*
Y5449D01*
X140180D01*
Y5369D01*
Y5289D01*
Y5210D01*
Y5130D01*
Y5051D01*
Y4971D01*
X140259D01*
Y4892D01*
Y4812D01*
Y4733D01*
Y4653D01*
X140339D01*
Y4574D01*
Y4494D01*
X140418D01*
Y4415D01*
Y4335D01*
X140498D01*
Y4256D01*
X140577D01*
Y4176D01*
Y4096D01*
X140657D01*
Y4017D01*
X140736D01*
Y3937D01*
X140816D01*
Y3858D01*
X140895D01*
Y3778D01*
X140975D01*
Y3699D01*
X141054D01*
Y3619D01*
X141134D01*
Y3540D01*
X141213D01*
Y3460D01*
X141373D01*
Y3381D01*
X141532D01*
Y3301D01*
X141691D01*
Y3222D01*
X141850D01*
Y3142D01*
X142088D01*
Y3063D01*
X142327D01*
Y2983D01*
X142645D01*
Y2904D01*
X143361D01*
Y2983D01*
X143679D01*
Y3063D01*
X143997D01*
Y3142D01*
X144156D01*
Y3222D01*
X144395D01*
Y3301D01*
X144554D01*
Y3381D01*
X144713D01*
Y3460D01*
X144792D01*
Y3540D01*
X144951D01*
Y3619D01*
X145031D01*
Y3699D01*
X145190D01*
Y3778D01*
X145270D01*
Y3858D01*
X145349D01*
Y3937D01*
X145429D01*
Y4017D01*
X145508D01*
Y4096D01*
X145588D01*
Y4176D01*
X145667D01*
Y4256D01*
X145747D01*
Y4335D01*
X145826D01*
Y4415D01*
X145906D01*
Y4494D01*
X145985D01*
Y4574D01*
X146065D01*
Y4653D01*
X146144D01*
Y4733D01*
X146224D01*
Y4812D01*
X146303D01*
Y4892D01*
Y4971D01*
X146383D01*
Y5051D01*
X146463D01*
Y5130D01*
X146542D01*
Y5210D01*
Y5289D01*
X146622D01*
Y5369D01*
X146701D01*
Y5449D01*
Y5528D01*
X146781D01*
Y5607D01*
X146860D01*
Y5687D01*
Y5767D01*
X146940D01*
Y5846D01*
Y5926D01*
X147019D01*
Y6005D01*
Y6085D01*
X147099D01*
Y6164D01*
Y6244D01*
X147178D01*
Y6323D01*
Y6403D01*
Y6482D01*
X147258D01*
Y6562D01*
Y6641D01*
X147337D01*
Y6721D01*
Y6801D01*
Y6880D01*
X147417D01*
Y6960D01*
Y7039D01*
X147496D01*
Y7119D01*
Y7198D01*
Y7278D01*
Y7357D01*
X147576D01*
Y7437D01*
Y7516D01*
Y7596D01*
X147655D01*
Y7675D01*
Y7755D01*
Y7834D01*
Y7914D01*
X147735D01*
Y7993D01*
Y8073D01*
Y8153D01*
Y8232D01*
Y8312D01*
X147815D01*
Y8391D01*
Y8471D01*
Y8550D01*
Y8630D01*
Y8709D01*
Y8789D01*
Y8868D01*
X147894D01*
Y8948D01*
Y9027D01*
Y9107D01*
Y9187D01*
Y9266D01*
Y9346D01*
Y9425D01*
Y9505D01*
Y9584D01*
X147974D01*
Y9664D01*
Y9743D01*
Y9823D01*
Y9902D01*
Y9982D01*
Y10061D01*
Y10141D01*
Y10220D01*
Y10300D01*
Y10379D01*
Y10459D01*
Y10538D01*
Y10618D01*
D02*
G37*
G36*
X119154Y10038D02*
X117284D01*
Y9123D01*
Y8188D01*
Y7253D01*
Y6328D01*
X116379D01*
Y7253D01*
X115444D01*
Y6328D01*
X114509D01*
Y7253D01*
Y8188D01*
Y9123D01*
Y10038D01*
X112650D01*
Y9123D01*
Y8188D01*
Y7253D01*
Y6328D01*
Y5393D01*
Y4458D01*
Y3543D01*
X114509D01*
Y4458D01*
X115444D01*
Y5393D01*
X116379D01*
Y4458D01*
X117284D01*
Y3543D01*
X119154D01*
Y4458D01*
Y5393D01*
Y6328D01*
Y7253D01*
Y8188D01*
Y9123D01*
Y10038D01*
D02*
G37*
G36*
X107080D02*
X105210D01*
Y9123D01*
X104305D01*
Y8188D01*
X103370D01*
Y9123D01*
X102436D01*
Y10038D01*
X100576D01*
Y9123D01*
Y8188D01*
Y7253D01*
Y6328D01*
Y5393D01*
Y4458D01*
Y3543D01*
X102436D01*
Y4458D01*
Y5393D01*
Y6328D01*
Y7253D01*
X103370D01*
Y6328D01*
X104305D01*
Y7253D01*
X105210D01*
Y6328D01*
Y5393D01*
Y4458D01*
Y3543D01*
X107080D01*
Y4458D01*
Y5393D01*
Y6328D01*
Y7253D01*
Y8188D01*
Y9123D01*
Y10038D01*
D02*
G37*
G36*
X173742Y10618D02*
X171913D01*
Y10538D01*
Y10459D01*
Y10379D01*
Y10300D01*
Y10220D01*
Y10141D01*
Y10061D01*
Y9982D01*
Y9902D01*
Y9823D01*
Y9743D01*
Y9664D01*
Y9584D01*
Y9505D01*
Y9425D01*
Y9346D01*
Y9266D01*
Y9187D01*
X171992D01*
Y9107D01*
Y9027D01*
Y8948D01*
Y8868D01*
Y8789D01*
Y8709D01*
Y8630D01*
Y8550D01*
Y8471D01*
Y8391D01*
Y8312D01*
Y8232D01*
Y8153D01*
Y8073D01*
X172072D01*
Y7993D01*
Y7914D01*
Y7834D01*
Y7755D01*
Y7675D01*
Y7596D01*
X172151D01*
Y7516D01*
Y7437D01*
Y7357D01*
Y7278D01*
Y7198D01*
X172231D01*
Y7119D01*
Y7039D01*
Y6960D01*
Y6880D01*
Y6801D01*
X172310D01*
Y6721D01*
Y6641D01*
Y6562D01*
X172390D01*
Y6482D01*
Y6403D01*
Y6323D01*
Y6244D01*
X172469D01*
Y6164D01*
Y6085D01*
X172549D01*
Y6005D01*
Y5926D01*
X172628D01*
Y5846D01*
Y5767D01*
X172708D01*
Y5687D01*
Y5607D01*
X172787D01*
Y5528D01*
Y5449D01*
X172867D01*
Y5369D01*
X172947D01*
Y5289D01*
X173026D01*
Y5210D01*
X173106D01*
Y5130D01*
Y5051D01*
X173185D01*
Y4971D01*
X173265D01*
Y4892D01*
X173344D01*
Y4812D01*
X173424D01*
Y4733D01*
X173503D01*
Y4653D01*
X173583D01*
Y4574D01*
X173742D01*
Y4494D01*
X173821D01*
Y4415D01*
X173901D01*
Y4335D01*
X174060D01*
Y4256D01*
X174140D01*
Y4176D01*
X174299D01*
Y4096D01*
X174458D01*
Y4017D01*
X174617D01*
Y3937D01*
X174776D01*
Y3858D01*
X175014D01*
Y3778D01*
X175253D01*
Y3699D01*
X175571D01*
Y3619D01*
X175889D01*
Y3540D01*
X177082D01*
Y3619D01*
X177559D01*
Y3699D01*
X177798D01*
Y3778D01*
X177957D01*
Y3858D01*
X178037D01*
Y3937D01*
X178116D01*
Y4017D01*
X178196D01*
Y4096D01*
X178275D01*
Y4176D01*
X178355D01*
Y4256D01*
Y4335D01*
X178434D01*
Y4415D01*
X178514D01*
Y4494D01*
X178593D01*
Y4574D01*
Y4653D01*
X178673D01*
Y4733D01*
Y4812D01*
Y4892D01*
X178752D01*
Y4971D01*
Y5051D01*
Y5130D01*
X178832D01*
Y5210D01*
Y5289D01*
Y5369D01*
Y5449D01*
X178911D01*
Y5528D01*
Y5607D01*
Y5687D01*
Y5767D01*
Y5846D01*
Y5926D01*
Y6005D01*
X178991D01*
Y6085D01*
Y6164D01*
Y6244D01*
Y6323D01*
Y6403D01*
Y6482D01*
Y6562D01*
Y6641D01*
Y6721D01*
Y6801D01*
Y6880D01*
Y6960D01*
X178911D01*
Y7039D01*
Y7119D01*
Y7198D01*
Y7278D01*
Y7357D01*
Y7437D01*
X178832D01*
Y7516D01*
Y7596D01*
Y7675D01*
Y7755D01*
X178752D01*
Y7834D01*
Y7914D01*
Y7993D01*
X178673D01*
Y8073D01*
Y8153D01*
Y8232D01*
X178593D01*
Y8312D01*
Y8391D01*
X178514D01*
Y8471D01*
Y8550D01*
X178434D01*
Y8630D01*
Y8709D01*
X178355D01*
Y8789D01*
X178275D01*
Y8868D01*
Y8948D01*
X178196D01*
Y9027D01*
X178116D01*
Y9107D01*
X178037D01*
Y9187D01*
X177957D01*
Y9266D01*
X177878D01*
Y9346D01*
X177798D01*
Y9425D01*
X177718D01*
Y9505D01*
X177639D01*
Y9584D01*
X177480D01*
Y9664D01*
X177321D01*
Y9743D01*
X177162D01*
Y9823D01*
X177003D01*
Y9902D01*
X176844D01*
Y9982D01*
X176685D01*
Y10061D01*
X176446D01*
Y10141D01*
X176207D01*
Y10220D01*
X175889D01*
Y10300D01*
X175492D01*
Y10379D01*
X175094D01*
Y10459D01*
X174617D01*
Y10538D01*
X173742D01*
Y10618D01*
D02*
G37*
G36*
X143520Y18094D02*
X142168D01*
Y18014D01*
X141770D01*
Y17935D01*
X141532D01*
Y17855D01*
X141373D01*
Y17776D01*
X141213D01*
Y17696D01*
X141054D01*
Y17617D01*
X140975D01*
Y17537D01*
X140816D01*
Y17458D01*
X140736D01*
Y17378D01*
X140657D01*
Y17299D01*
X140577D01*
Y17219D01*
X140498D01*
Y17140D01*
X140418D01*
Y17060D01*
X140339D01*
Y16981D01*
X140259D01*
Y16901D01*
Y16822D01*
X140180D01*
Y16742D01*
X140100D01*
Y16662D01*
Y16583D01*
Y16503D01*
X140020D01*
Y16424D01*
Y16344D01*
X139941D01*
Y16265D01*
Y16185D01*
Y16106D01*
Y16026D01*
X139861D01*
Y15947D01*
Y15867D01*
Y15788D01*
Y15708D01*
Y15629D01*
X139782D01*
Y15549D01*
Y15470D01*
Y15390D01*
Y15310D01*
Y15231D01*
Y15151D01*
Y15072D01*
Y14992D01*
Y14913D01*
Y14833D01*
Y14754D01*
Y14674D01*
Y14595D01*
X139861D01*
Y14515D01*
Y14436D01*
Y14356D01*
Y14277D01*
X139941D01*
Y14197D01*
Y14117D01*
Y14038D01*
X140020D01*
Y13958D01*
Y13879D01*
X140100D01*
Y13799D01*
X140180D01*
Y13720D01*
Y13640D01*
X140259D01*
Y13561D01*
X140339D01*
Y13481D01*
X140418D01*
Y13402D01*
X140498D01*
Y13322D01*
Y13243D01*
X140577D01*
Y13163D01*
X140657D01*
Y13083D01*
X140736D01*
Y13004D01*
X140816D01*
Y12924D01*
X140975D01*
Y12845D01*
X141054D01*
Y12765D01*
X141134D01*
Y12686D01*
X141213D01*
Y12606D01*
X141373D01*
Y12527D01*
X141452D01*
Y12447D01*
X141611D01*
Y12368D01*
X141770D01*
Y12288D01*
X141929D01*
Y12209D01*
X142088D01*
Y12129D01*
X142327D01*
Y12050D01*
X142566D01*
Y11970D01*
X142804D01*
Y11891D01*
X143202D01*
Y11811D01*
X143599D01*
Y11732D01*
X144156D01*
Y11652D01*
X144872D01*
Y11572D01*
X145826D01*
Y11493D01*
X147894D01*
Y11572D01*
X148053D01*
Y11652D01*
Y11732D01*
Y11811D01*
Y11891D01*
Y11970D01*
Y12050D01*
Y12129D01*
Y12209D01*
Y12288D01*
Y12368D01*
Y12447D01*
Y12527D01*
Y12606D01*
Y12686D01*
Y12765D01*
Y12845D01*
Y12924D01*
X147974D01*
Y13004D01*
Y13083D01*
Y13163D01*
Y13243D01*
Y13322D01*
Y13402D01*
Y13481D01*
Y13561D01*
Y13640D01*
Y13720D01*
X147894D01*
Y13799D01*
Y13879D01*
Y13958D01*
Y14038D01*
Y14117D01*
Y14197D01*
Y14277D01*
Y14356D01*
X147815D01*
Y14436D01*
Y14515D01*
Y14595D01*
Y14674D01*
Y14754D01*
X147735D01*
Y14833D01*
Y14913D01*
Y14992D01*
Y15072D01*
X147655D01*
Y15151D01*
Y15231D01*
Y15310D01*
Y15390D01*
X147576D01*
Y15470D01*
Y15549D01*
X147496D01*
Y15629D01*
Y15708D01*
X147417D01*
Y15788D01*
Y15867D01*
X147337D01*
Y15947D01*
Y16026D01*
X147258D01*
Y16106D01*
X147178D01*
Y16185D01*
X147099D01*
Y16265D01*
Y16344D01*
X147019D01*
Y16424D01*
X146940D01*
Y16503D01*
X146860D01*
Y16583D01*
X146781D01*
Y16662D01*
X146701D01*
Y16742D01*
X146622D01*
Y16822D01*
X146542D01*
Y16901D01*
X146463D01*
Y16981D01*
X146383D01*
Y17060D01*
X146224D01*
Y17140D01*
X146144D01*
Y17219D01*
X145985D01*
Y17299D01*
X145906D01*
Y17378D01*
X145747D01*
Y17458D01*
X145588D01*
Y17537D01*
X145429D01*
Y17617D01*
X145270D01*
Y17696D01*
X145031D01*
Y17776D01*
X144792D01*
Y17855D01*
X144474D01*
Y17935D01*
X143997D01*
Y18014D01*
X143520D01*
Y18094D01*
D02*
G37*
G36*
X167538Y19844D02*
X165948D01*
Y19764D01*
X165630D01*
Y19685D01*
X165391D01*
Y19605D01*
X165153D01*
Y19526D01*
X164993D01*
Y19446D01*
X164914D01*
Y19367D01*
X164755D01*
Y19287D01*
X164675D01*
Y19207D01*
X164516D01*
Y19128D01*
X164437D01*
Y19048D01*
X164357D01*
Y18969D01*
X164278D01*
Y18889D01*
X164198D01*
Y18810D01*
X164119D01*
Y18730D01*
X164039D01*
Y18651D01*
Y18571D01*
X163960D01*
Y18492D01*
X163880D01*
Y18412D01*
X163800D01*
Y18333D01*
Y18253D01*
X163721D01*
Y18174D01*
Y18094D01*
X163641D01*
Y18014D01*
X163562D01*
Y17935D01*
Y17855D01*
X163482D01*
Y17776D01*
Y17696D01*
Y17617D01*
X163403D01*
Y17537D01*
Y17458D01*
Y17378D01*
X163323D01*
Y17299D01*
Y17219D01*
Y17140D01*
Y17060D01*
X163244D01*
Y16981D01*
Y16901D01*
Y16822D01*
Y16742D01*
Y16662D01*
Y16583D01*
Y16503D01*
Y16424D01*
Y16344D01*
Y16265D01*
Y16185D01*
Y16106D01*
X163323D01*
Y16026D01*
Y15947D01*
Y15867D01*
Y15788D01*
Y15708D01*
Y15629D01*
X163403D01*
Y15549D01*
Y15470D01*
Y15390D01*
Y15310D01*
X163482D01*
Y15231D01*
Y15151D01*
Y15072D01*
X163562D01*
Y14992D01*
Y14913D01*
Y14833D01*
X163641D01*
Y14754D01*
Y14674D01*
X163721D01*
Y14595D01*
Y14515D01*
X163800D01*
Y14436D01*
Y14356D01*
X163880D01*
Y14277D01*
X163960D01*
Y14197D01*
Y14117D01*
X164039D01*
Y14038D01*
X164119D01*
Y13958D01*
Y13879D01*
X164198D01*
Y13799D01*
X164278D01*
Y13720D01*
X164357D01*
Y13640D01*
Y13561D01*
X164437D01*
Y13481D01*
X164516D01*
Y13402D01*
X164675D01*
Y13322D01*
X164755D01*
Y13243D01*
X164834D01*
Y13163D01*
X164914D01*
Y13083D01*
X165073D01*
Y13004D01*
X165232D01*
Y12924D01*
X165312D01*
Y12845D01*
X165471D01*
Y12765D01*
X165550D01*
Y12686D01*
X165709D01*
Y12606D01*
X165868D01*
Y12527D01*
X166027D01*
Y12447D01*
X166186D01*
Y12368D01*
X166346D01*
Y12288D01*
X166505D01*
Y12209D01*
X166743D01*
Y12129D01*
X166982D01*
Y12050D01*
X167220D01*
Y11970D01*
X167538D01*
Y11891D01*
X167857D01*
Y11811D01*
X168254D01*
Y11732D01*
X168970D01*
Y11652D01*
X169924D01*
Y11572D01*
X171038D01*
Y11652D01*
Y11732D01*
Y11811D01*
Y11891D01*
Y11970D01*
Y12050D01*
Y12129D01*
Y12209D01*
Y12288D01*
Y12368D01*
Y12447D01*
Y12527D01*
Y12606D01*
Y12686D01*
Y12765D01*
Y12845D01*
Y12924D01*
Y13004D01*
Y13083D01*
Y13163D01*
Y13243D01*
Y13322D01*
Y13402D01*
Y13481D01*
Y13561D01*
Y13640D01*
Y13720D01*
Y13799D01*
Y13879D01*
Y13958D01*
Y14038D01*
Y14117D01*
Y14197D01*
Y14277D01*
Y14356D01*
Y14436D01*
Y14515D01*
Y14595D01*
X170958D01*
Y14674D01*
Y14754D01*
Y14833D01*
Y14913D01*
Y14992D01*
Y15072D01*
Y15151D01*
Y15231D01*
Y15310D01*
Y15390D01*
X170879D01*
Y15470D01*
Y15549D01*
Y15629D01*
Y15708D01*
Y15788D01*
Y15867D01*
Y15947D01*
X170799D01*
Y16026D01*
Y16106D01*
Y16185D01*
Y16265D01*
Y16344D01*
Y16424D01*
X170720D01*
Y16503D01*
Y16583D01*
Y16662D01*
Y16742D01*
X170640D01*
Y16822D01*
Y16901D01*
Y16981D01*
Y17060D01*
X170561D01*
Y17140D01*
Y17219D01*
Y17299D01*
X170481D01*
Y17378D01*
Y17458D01*
X170402D01*
Y17537D01*
Y17617D01*
X170322D01*
Y17696D01*
Y17776D01*
X170243D01*
Y17855D01*
Y17935D01*
X170163D01*
Y18014D01*
Y18094D01*
X170083D01*
Y18174D01*
X170004D01*
Y18253D01*
X169924D01*
Y18333D01*
Y18412D01*
X169845D01*
Y18492D01*
X169765D01*
Y18571D01*
X169686D01*
Y18651D01*
X169606D01*
Y18730D01*
X169527D01*
Y18810D01*
X169447D01*
Y18889D01*
X169368D01*
Y18969D01*
X169288D01*
Y19048D01*
X169209D01*
Y19128D01*
X169129D01*
Y19207D01*
X168970D01*
Y19287D01*
X168891D01*
Y19367D01*
X168731D01*
Y19446D01*
X168572D01*
Y19526D01*
X168413D01*
Y19605D01*
X168175D01*
Y19685D01*
X167936D01*
Y19764D01*
X167538D01*
Y19844D01*
D02*
G37*
G36*
X162687Y8948D02*
X162528D01*
Y8868D01*
X162448D01*
Y8789D01*
Y8709D01*
X162369D01*
Y8630D01*
Y8550D01*
X162289D01*
Y8471D01*
Y8391D01*
Y8312D01*
X162210D01*
Y8232D01*
Y8153D01*
Y8073D01*
X162130D01*
Y7993D01*
Y7914D01*
Y7834D01*
Y7755D01*
Y7675D01*
Y7596D01*
Y7516D01*
Y7437D01*
Y7357D01*
Y7278D01*
Y7198D01*
Y7119D01*
Y7039D01*
X162210D01*
Y6960D01*
Y6880D01*
Y6801D01*
X162289D01*
Y6721D01*
Y6641D01*
Y6562D01*
X162369D01*
Y6482D01*
X162448D01*
Y6562D01*
X162528D01*
Y6641D01*
Y6721D01*
Y6801D01*
Y6880D01*
X162608D01*
Y6960D01*
Y7039D01*
Y7119D01*
Y7198D01*
Y7278D01*
Y7357D01*
Y7437D01*
X162687D01*
Y7516D01*
Y7596D01*
Y7675D01*
Y7755D01*
Y7834D01*
Y7914D01*
Y7993D01*
Y8073D01*
Y8153D01*
Y8232D01*
Y8312D01*
Y8391D01*
Y8471D01*
Y8550D01*
Y8630D01*
Y8709D01*
Y8789D01*
Y8868D01*
Y8948D01*
D02*
G37*
G36*
X150996Y10618D02*
X148928D01*
Y10538D01*
Y10459D01*
Y10379D01*
Y10300D01*
Y10220D01*
X149007D01*
Y10141D01*
Y10061D01*
Y9982D01*
Y9902D01*
Y9823D01*
Y9743D01*
Y9664D01*
Y9584D01*
Y9505D01*
Y9425D01*
Y9346D01*
X149087D01*
Y9266D01*
Y9187D01*
Y9107D01*
Y9027D01*
Y8948D01*
Y8868D01*
Y8789D01*
X149167D01*
Y8709D01*
Y8630D01*
Y8550D01*
Y8471D01*
Y8391D01*
X149246D01*
Y8312D01*
Y8232D01*
Y8153D01*
X149326D01*
Y8073D01*
Y7993D01*
Y7914D01*
Y7834D01*
X149405D01*
Y7755D01*
Y7675D01*
Y7596D01*
X149485D01*
Y7516D01*
Y7437D01*
Y7357D01*
X149564D01*
Y7278D01*
Y7198D01*
Y7119D01*
X149644D01*
Y7039D01*
Y6960D01*
X149723D01*
Y6880D01*
Y6801D01*
Y6721D01*
X149803D01*
Y6641D01*
Y6562D01*
X149882D01*
Y6482D01*
Y6403D01*
X149962D01*
Y6323D01*
Y6244D01*
Y6164D01*
X150041D01*
Y6085D01*
Y6005D01*
X150121D01*
Y5926D01*
Y5846D01*
X150200D01*
Y5767D01*
X150280D01*
Y5687D01*
Y5607D01*
X150360D01*
Y5528D01*
Y5449D01*
X150439D01*
Y5369D01*
X150519D01*
Y5289D01*
Y5210D01*
X150598D01*
Y5130D01*
X150678D01*
Y5051D01*
X150757D01*
Y4971D01*
X150837D01*
Y4892D01*
X150916D01*
Y4812D01*
X150996D01*
Y4733D01*
X151155D01*
Y4653D01*
X151234D01*
Y4574D01*
X151393D01*
Y4494D01*
X151473D01*
Y4415D01*
X151632D01*
Y4335D01*
X151791D01*
Y4256D01*
X151950D01*
Y4176D01*
X152189D01*
Y4096D01*
X152427D01*
Y4017D01*
X152666D01*
Y3937D01*
X153064D01*
Y3858D01*
X154177D01*
Y3937D01*
X154495D01*
Y4017D01*
X154734D01*
Y4096D01*
X154893D01*
Y4176D01*
X155052D01*
Y4256D01*
X155211D01*
Y4335D01*
X155370D01*
Y4415D01*
X155450D01*
Y4494D01*
X155529D01*
Y4574D01*
X155609D01*
Y4653D01*
X155688D01*
Y4733D01*
X155768D01*
Y4812D01*
X155847D01*
Y4892D01*
Y4971D01*
X155927D01*
Y5051D01*
Y5130D01*
X156006D01*
Y5210D01*
Y5289D01*
Y5369D01*
Y5449D01*
Y5528D01*
X156086D01*
Y5607D01*
Y5687D01*
Y5767D01*
Y5846D01*
Y5926D01*
Y6005D01*
Y6085D01*
Y6164D01*
Y6244D01*
Y6323D01*
Y6403D01*
Y6482D01*
Y6562D01*
Y6641D01*
Y6721D01*
Y6801D01*
Y6880D01*
X156006D01*
Y6960D01*
Y7039D01*
Y7119D01*
Y7198D01*
Y7278D01*
X155927D01*
Y7357D01*
Y7437D01*
Y7516D01*
X155847D01*
Y7596D01*
Y7675D01*
X155768D01*
Y7755D01*
Y7834D01*
Y7914D01*
X155688D01*
Y7993D01*
X155609D01*
Y8073D01*
Y8153D01*
X155529D01*
Y8232D01*
Y8312D01*
X155450D01*
Y8391D01*
X155370D01*
Y8471D01*
Y8550D01*
X155290D01*
Y8630D01*
X155211D01*
Y8709D01*
X155131D01*
Y8789D01*
X155052D01*
Y8868D01*
X154972D01*
Y8948D01*
Y9027D01*
X154893D01*
Y9107D01*
X154813D01*
Y9187D01*
X154734D01*
Y9266D01*
X154575D01*
Y9346D01*
X154495D01*
Y9425D01*
X154416D01*
Y9505D01*
X154257D01*
Y9584D01*
X154177D01*
Y9664D01*
X154098D01*
Y9743D01*
X153938D01*
Y9823D01*
X153779D01*
Y9902D01*
X153620D01*
Y9982D01*
X153461D01*
Y10061D01*
X153302D01*
Y10141D01*
X153143D01*
Y10220D01*
X152905D01*
Y10300D01*
X152586D01*
Y10379D01*
X152268D01*
Y10459D01*
X151871D01*
Y10538D01*
X150996D01*
Y10618D01*
D02*
G37*
G36*
X170958D02*
X167459D01*
Y10538D01*
X166584D01*
Y10459D01*
X166107D01*
Y10379D01*
X165709D01*
Y10300D01*
X165312D01*
Y10220D01*
X165073D01*
Y10141D01*
X164755D01*
Y10061D01*
X164516D01*
Y9982D01*
X164278D01*
Y9902D01*
X164119D01*
Y9823D01*
X163880D01*
Y9743D01*
X163721D01*
Y9664D01*
X163482D01*
Y9584D01*
Y9505D01*
Y9425D01*
Y9346D01*
Y9266D01*
X163562D01*
Y9187D01*
Y9107D01*
Y9027D01*
Y8948D01*
Y8868D01*
Y8789D01*
Y8709D01*
Y8630D01*
Y8550D01*
Y8471D01*
Y8391D01*
Y8312D01*
Y8232D01*
Y8153D01*
Y8073D01*
Y7993D01*
Y7914D01*
Y7834D01*
Y7755D01*
Y7675D01*
Y7596D01*
Y7516D01*
Y7437D01*
Y7357D01*
Y7278D01*
Y7198D01*
Y7119D01*
X163482D01*
Y7039D01*
Y6960D01*
Y6880D01*
Y6801D01*
Y6721D01*
X163403D01*
Y6641D01*
Y6562D01*
Y6482D01*
Y6403D01*
Y6323D01*
X163323D01*
Y6244D01*
Y6164D01*
Y6085D01*
X163244D01*
Y6005D01*
Y5926D01*
Y5846D01*
X163164D01*
Y5767D01*
Y5687D01*
Y5607D01*
X163085D01*
Y5528D01*
X163164D01*
Y5449D01*
X163244D01*
Y5369D01*
X163403D01*
Y5289D01*
X163482D01*
Y5210D01*
X163641D01*
Y5130D01*
X163721D01*
Y5051D01*
X163880D01*
Y4971D01*
X164039D01*
Y4892D01*
X164198D01*
Y4812D01*
X164437D01*
Y4733D01*
X164596D01*
Y4653D01*
X164834D01*
Y4574D01*
X165073D01*
Y4494D01*
X165312D01*
Y4415D01*
X165789D01*
Y4335D01*
X166266D01*
Y4415D01*
X167061D01*
Y4494D01*
X167379D01*
Y4574D01*
X167538D01*
Y4653D01*
X167777D01*
Y4733D01*
X167857D01*
Y4812D01*
X168016D01*
Y4892D01*
X168175D01*
Y4971D01*
X168254D01*
Y5051D01*
X168413D01*
Y5130D01*
X168493D01*
Y5210D01*
X168572D01*
Y5289D01*
X168731D01*
Y5369D01*
X168811D01*
Y5449D01*
X168891D01*
Y5528D01*
X169050D01*
Y5607D01*
X169129D01*
Y5687D01*
Y5767D01*
X169209D01*
Y5846D01*
X169288D01*
Y5926D01*
X169368D01*
Y6005D01*
X169447D01*
Y6085D01*
X169527D01*
Y6164D01*
Y6244D01*
X169606D01*
Y6323D01*
X169686D01*
Y6403D01*
X169765D01*
Y6482D01*
Y6562D01*
X169845D01*
Y6641D01*
X169924D01*
Y6721D01*
Y6801D01*
X170004D01*
Y6880D01*
X170083D01*
Y6960D01*
Y7039D01*
X170163D01*
Y7119D01*
Y7198D01*
X170243D01*
Y7278D01*
X170322D01*
Y7357D01*
Y7437D01*
X170402D01*
Y7516D01*
Y7596D01*
X170481D01*
Y7675D01*
Y7755D01*
X170561D01*
Y7834D01*
Y7914D01*
X170640D01*
Y7993D01*
Y8073D01*
Y8153D01*
X170720D01*
Y8232D01*
Y8312D01*
Y8391D01*
Y8471D01*
X170799D01*
Y8550D01*
Y8630D01*
Y8709D01*
Y8789D01*
X170879D01*
Y8868D01*
Y8948D01*
Y9027D01*
Y9107D01*
Y9187D01*
Y9266D01*
Y9346D01*
X170958D01*
Y9425D01*
Y9505D01*
Y9584D01*
Y9664D01*
Y9743D01*
Y9823D01*
Y9902D01*
Y9982D01*
Y10061D01*
Y10141D01*
Y10220D01*
Y10300D01*
Y10379D01*
Y10459D01*
Y10538D01*
Y10618D01*
D02*
G37*
%LPD*%
G36*
X1121080Y-83717D02*
Y-84003D01*
Y-84290D01*
Y-84576D01*
Y-84862D01*
Y-85149D01*
Y-85435D01*
Y-85721D01*
Y-86007D01*
Y-86294D01*
Y-86580D01*
Y-86866D01*
Y-87153D01*
Y-87439D01*
Y-87725D01*
Y-88012D01*
Y-88298D01*
Y-88584D01*
Y-88871D01*
Y-89157D01*
Y-89443D01*
X1120793D01*
Y-89730D01*
Y-90016D01*
Y-90302D01*
Y-90588D01*
Y-90875D01*
X1120507D01*
Y-91161D01*
Y-91448D01*
Y-91734D01*
Y-92020D01*
X1120221D01*
Y-92306D01*
Y-92593D01*
Y-92879D01*
Y-93165D01*
X1119934D01*
Y-93452D01*
Y-93738D01*
Y-94024D01*
X1119648D01*
Y-94311D01*
Y-94597D01*
Y-94883D01*
X1119362D01*
Y-95170D01*
Y-95456D01*
Y-95742D01*
X1119075D01*
Y-96029D01*
Y-96315D01*
Y-96601D01*
X1118789D01*
Y-96887D01*
Y-97174D01*
X1118503D01*
Y-97460D01*
Y-97746D01*
X1118217D01*
Y-98033D01*
Y-98319D01*
Y-98605D01*
X1117930D01*
Y-98892D01*
Y-99178D01*
X1117644D01*
Y-99464D01*
Y-99751D01*
Y-100037D01*
X1117358D01*
Y-100323D01*
Y-100610D01*
X1117071D01*
Y-100896D01*
Y-101182D01*
Y-101468D01*
X1116785D01*
Y-101755D01*
Y-102041D01*
X1116499D01*
Y-102327D01*
Y-102614D01*
Y-102900D01*
X1116212D01*
Y-103186D01*
Y-103473D01*
X1115926D01*
Y-103759D01*
Y-104045D01*
Y-104332D01*
X1115640D01*
Y-104618D01*
Y-104904D01*
X1115353D01*
Y-105191D01*
Y-105477D01*
Y-105763D01*
X1115067D01*
Y-106049D01*
Y-106336D01*
X1114781D01*
Y-106622D01*
Y-106908D01*
Y-107195D01*
X1114494D01*
Y-107481D01*
Y-107767D01*
X1114208D01*
Y-108054D01*
Y-108340D01*
Y-108626D01*
X1113922D01*
Y-108913D01*
Y-109199D01*
X1113636D01*
Y-109485D01*
Y-109772D01*
Y-110058D01*
X1113349D01*
Y-110344D01*
Y-110630D01*
X1113063D01*
Y-110917D01*
Y-111203D01*
Y-111489D01*
X1112776D01*
Y-111776D01*
Y-112062D01*
X1112490D01*
Y-112348D01*
Y-112635D01*
Y-112921D01*
X1112204D01*
Y-113207D01*
Y-113494D01*
X1111918D01*
Y-113780D01*
Y-114066D01*
Y-114353D01*
X1111631D01*
Y-114639D01*
Y-114925D01*
X1111345D01*
Y-115211D01*
Y-115498D01*
Y-115784D01*
X1111059D01*
Y-116070D01*
Y-116357D01*
X1110772D01*
Y-116643D01*
Y-116929D01*
Y-117216D01*
X1110486D01*
Y-117502D01*
Y-117788D01*
X1110200D01*
Y-118075D01*
Y-118361D01*
Y-118647D01*
X1109913D01*
Y-118933D01*
Y-119220D01*
X1109627D01*
Y-119506D01*
Y-119792D01*
Y-120079D01*
X1109341D01*
Y-120365D01*
Y-120651D01*
X1109054D01*
Y-120938D01*
Y-121224D01*
X1108768D01*
Y-121510D01*
Y-121797D01*
X1108482D01*
Y-122083D01*
Y-122369D01*
Y-122656D01*
X1108195D01*
Y-122942D01*
X1107909D01*
Y-123228D01*
Y-123514D01*
Y-123801D01*
X1107623D01*
Y-124087D01*
X1107337D01*
Y-124373D01*
Y-124660D01*
X1107050D01*
Y-124946D01*
Y-125232D01*
X1106764D01*
Y-125519D01*
Y-125805D01*
X1106478D01*
Y-126091D01*
Y-126378D01*
X1106191D01*
Y-126664D01*
X1105905D01*
Y-126950D01*
Y-127237D01*
X1105619D01*
Y-127523D01*
Y-127809D01*
X1105332D01*
Y-128095D01*
X1105046D01*
Y-128382D01*
X1104760D01*
Y-128668D01*
Y-128954D01*
X1104473D01*
Y-129241D01*
X1104187D01*
Y-129527D01*
Y-129813D01*
X1103901D01*
Y-130100D01*
X1103615D01*
Y-130386D01*
X1103328D01*
Y-130672D01*
Y-130959D01*
X1103042D01*
Y-131245D01*
X1102756D01*
Y-131531D01*
X1102469D01*
Y-131818D01*
X1102183D01*
Y-132104D01*
X1101897D01*
Y-132390D01*
Y-132676D01*
X1101610D01*
Y-132963D01*
X1101324D01*
Y-133249D01*
X1101038D01*
Y-133535D01*
X1100751D01*
Y-133822D01*
X1100465D01*
Y-134108D01*
X1100179D01*
Y-134394D01*
X1099892D01*
Y-134681D01*
X1099320D01*
Y-134967D01*
X1099034D01*
Y-135253D01*
X1098747D01*
Y-135540D01*
X1098461D01*
Y-135826D01*
X1098175D01*
Y-136112D01*
X1097602D01*
Y-136399D01*
X1097316D01*
Y-136685D01*
X1096743D01*
Y-136971D01*
X1096457D01*
Y-137258D01*
X1095884D01*
Y-137544D01*
X1095598D01*
Y-137830D01*
X1095025D01*
Y-138117D01*
X1094452D01*
Y-138403D01*
X1093880D01*
Y-138689D01*
X1093307D01*
Y-138975D01*
X1092735D01*
Y-139262D01*
X1091876D01*
Y-139548D01*
X1091303D01*
Y-139834D01*
X1090444D01*
Y-140121D01*
X1089299D01*
Y-140407D01*
X1088154D01*
Y-140693D01*
X1086436D01*
Y-140980D01*
X1084432D01*
Y-141266D01*
X1084145D01*
Y-140980D01*
Y-140693D01*
Y-140407D01*
Y-140121D01*
Y-139834D01*
Y-139548D01*
Y-139262D01*
Y-138975D01*
Y-138689D01*
Y-138403D01*
Y-138117D01*
Y-137830D01*
Y-137544D01*
Y-137258D01*
Y-136971D01*
Y-136685D01*
Y-136399D01*
Y-136112D01*
Y-135826D01*
Y-135540D01*
Y-135253D01*
Y-134967D01*
Y-134681D01*
Y-134394D01*
Y-134108D01*
Y-133822D01*
Y-133535D01*
Y-133249D01*
Y-132963D01*
Y-132676D01*
Y-132390D01*
Y-132104D01*
Y-131818D01*
X1084718D01*
Y-131531D01*
X1085291D01*
Y-131245D01*
X1085863D01*
Y-130959D01*
X1086436D01*
Y-130672D01*
X1087008D01*
Y-130386D01*
X1087581D01*
Y-130100D01*
X1087867D01*
Y-129813D01*
X1088440D01*
Y-129527D01*
X1088726D01*
Y-129241D01*
X1089299D01*
Y-128954D01*
X1089585D01*
Y-128668D01*
X1089872D01*
Y-128382D01*
X1090444D01*
Y-128095D01*
X1090730D01*
Y-127809D01*
X1091017D01*
Y-127523D01*
X1091303D01*
Y-127237D01*
X1091589D01*
Y-126950D01*
X1091876D01*
Y-126664D01*
X1092162D01*
Y-126378D01*
X1092448D01*
Y-126091D01*
X1092735D01*
Y-125805D01*
X1093021D01*
Y-125519D01*
X1093307D01*
Y-125232D01*
X1093594D01*
Y-124946D01*
Y-124660D01*
X1093880D01*
Y-124373D01*
X1094166D01*
Y-124087D01*
X1094452D01*
Y-123801D01*
Y-123514D01*
X1094739D01*
Y-123228D01*
X1095025D01*
Y-122942D01*
Y-122656D01*
X1095311D01*
Y-122369D01*
Y-122083D01*
X1095598D01*
Y-121797D01*
X1095884D01*
Y-121510D01*
Y-121224D01*
X1096170D01*
Y-120938D01*
Y-120651D01*
X1096457D01*
Y-120365D01*
Y-120079D01*
X1094739D01*
Y-119792D01*
X1092735D01*
Y-119506D01*
X1091589D01*
Y-119220D01*
X1091017D01*
Y-118933D01*
X1090158D01*
Y-118647D01*
X1089585D01*
Y-118361D01*
X1089299D01*
Y-118075D01*
X1088726D01*
Y-117788D01*
X1088440D01*
Y-117502D01*
X1088154D01*
Y-117216D01*
X1087867D01*
Y-116929D01*
X1087581D01*
Y-116643D01*
X1087295D01*
Y-116357D01*
Y-116070D01*
X1087008D01*
Y-115784D01*
X1086722D01*
Y-115498D01*
Y-115211D01*
X1086436D01*
Y-114925D01*
Y-114639D01*
X1086149D01*
Y-114353D01*
Y-114066D01*
X1085863D01*
Y-113780D01*
Y-113494D01*
Y-113207D01*
X1085577D01*
Y-112921D01*
Y-112635D01*
Y-112348D01*
Y-112062D01*
X1085291D01*
Y-111776D01*
Y-111489D01*
Y-111203D01*
Y-110917D01*
Y-110630D01*
Y-110344D01*
Y-110058D01*
X1085004D01*
Y-109772D01*
Y-109485D01*
Y-109199D01*
Y-108913D01*
Y-108626D01*
Y-108340D01*
Y-108054D01*
Y-107767D01*
Y-107481D01*
Y-107195D01*
Y-106908D01*
Y-106622D01*
Y-106336D01*
Y-106049D01*
Y-105763D01*
X1084718D01*
Y-105477D01*
Y-105191D01*
Y-104904D01*
Y-104618D01*
Y-104332D01*
Y-104045D01*
Y-103759D01*
Y-103473D01*
Y-103186D01*
Y-102900D01*
Y-102614D01*
Y-102327D01*
Y-102041D01*
Y-101755D01*
Y-101468D01*
X1084432D01*
Y-101182D01*
Y-100896D01*
Y-100610D01*
Y-100323D01*
Y-100037D01*
Y-99751D01*
Y-99464D01*
Y-99178D01*
Y-98892D01*
Y-98605D01*
Y-98319D01*
Y-98033D01*
Y-97746D01*
Y-97460D01*
Y-97174D01*
Y-96887D01*
X1084145D01*
Y-96601D01*
Y-96315D01*
Y-96029D01*
Y-95742D01*
Y-95456D01*
Y-95170D01*
Y-94883D01*
Y-94597D01*
Y-94311D01*
Y-94024D01*
Y-93738D01*
Y-93452D01*
Y-93165D01*
Y-92879D01*
Y-92593D01*
Y-92306D01*
X1083859D01*
Y-92020D01*
Y-91734D01*
Y-91448D01*
Y-91161D01*
Y-90875D01*
Y-90588D01*
Y-90302D01*
Y-90016D01*
Y-89730D01*
Y-89443D01*
Y-89157D01*
Y-88871D01*
Y-88584D01*
Y-88298D01*
X1083573D01*
Y-88012D01*
Y-87725D01*
Y-87439D01*
Y-87153D01*
Y-86866D01*
Y-86580D01*
Y-86294D01*
Y-86007D01*
Y-85721D01*
Y-85435D01*
Y-85149D01*
Y-84862D01*
Y-84576D01*
Y-84290D01*
Y-84003D01*
Y-83717D01*
X1083286D01*
Y-83431D01*
X1097029D01*
Y-83717D01*
Y-84003D01*
Y-84290D01*
Y-84576D01*
Y-84862D01*
Y-85149D01*
Y-85435D01*
Y-85721D01*
Y-86007D01*
Y-86294D01*
Y-86580D01*
Y-86866D01*
Y-87153D01*
Y-87439D01*
X1097316D01*
Y-87725D01*
Y-88012D01*
Y-88298D01*
Y-88584D01*
Y-88871D01*
Y-89157D01*
Y-89443D01*
Y-89730D01*
Y-90016D01*
Y-90302D01*
Y-90588D01*
Y-90875D01*
Y-91161D01*
Y-91448D01*
Y-91734D01*
Y-92020D01*
Y-92306D01*
Y-92593D01*
Y-92879D01*
Y-93165D01*
Y-93452D01*
Y-93738D01*
Y-94024D01*
Y-94311D01*
Y-94597D01*
Y-94883D01*
Y-95170D01*
Y-95456D01*
Y-95742D01*
Y-96029D01*
Y-96315D01*
Y-96601D01*
Y-96887D01*
Y-97174D01*
Y-97460D01*
Y-97746D01*
Y-98033D01*
Y-98319D01*
Y-98605D01*
Y-98892D01*
Y-99178D01*
X1097602D01*
Y-99464D01*
X1097316D01*
Y-99751D01*
Y-100037D01*
X1097602D01*
Y-100323D01*
Y-100610D01*
Y-100896D01*
Y-101182D01*
Y-101468D01*
Y-101755D01*
Y-102041D01*
Y-102327D01*
Y-102614D01*
Y-102900D01*
Y-103186D01*
Y-103473D01*
Y-103759D01*
Y-104045D01*
Y-104332D01*
Y-104618D01*
Y-104904D01*
Y-105191D01*
Y-105477D01*
Y-105763D01*
Y-106049D01*
Y-106336D01*
Y-106622D01*
Y-106908D01*
Y-107195D01*
Y-107481D01*
X1097888D01*
Y-107767D01*
Y-108054D01*
Y-108340D01*
X1098175D01*
Y-108626D01*
X1098461D01*
Y-108913D01*
X1098747D01*
Y-109199D01*
X1099606D01*
Y-109485D01*
X1100465D01*
Y-109199D01*
X1100751D01*
Y-108913D01*
Y-108626D01*
Y-108340D01*
X1101038D01*
Y-108054D01*
Y-107767D01*
X1101324D01*
Y-107481D01*
Y-107195D01*
Y-106908D01*
X1101610D01*
Y-106622D01*
Y-106336D01*
Y-106049D01*
X1101897D01*
Y-105763D01*
Y-105477D01*
Y-105191D01*
X1102183D01*
Y-104904D01*
Y-104618D01*
Y-104332D01*
X1102469D01*
Y-104045D01*
Y-103759D01*
X1102756D01*
Y-103473D01*
Y-103186D01*
Y-102900D01*
X1103042D01*
Y-102614D01*
Y-102327D01*
Y-102041D01*
X1103328D01*
Y-101755D01*
Y-101468D01*
Y-101182D01*
X1103615D01*
Y-100896D01*
Y-100610D01*
X1103901D01*
Y-100323D01*
Y-100037D01*
Y-99751D01*
X1104187D01*
Y-99464D01*
Y-99178D01*
Y-98892D01*
X1104473D01*
Y-98605D01*
Y-98319D01*
Y-98033D01*
X1104760D01*
Y-97746D01*
Y-97460D01*
X1105046D01*
Y-97174D01*
Y-96887D01*
Y-96601D01*
X1105332D01*
Y-96315D01*
Y-96029D01*
Y-95742D01*
X1105619D01*
Y-95456D01*
Y-95170D01*
Y-94883D01*
X1105905D01*
Y-94597D01*
Y-94311D01*
X1106191D01*
Y-94024D01*
Y-93738D01*
Y-93452D01*
X1106478D01*
Y-93165D01*
Y-92879D01*
Y-92593D01*
X1106764D01*
Y-92306D01*
Y-92020D01*
Y-91734D01*
X1107050D01*
Y-91448D01*
Y-91161D01*
Y-90875D01*
Y-90588D01*
X1107337D01*
Y-90302D01*
Y-90016D01*
Y-89730D01*
Y-89443D01*
X1107623D01*
Y-89157D01*
Y-88871D01*
Y-88584D01*
Y-88298D01*
Y-88012D01*
X1107909D01*
Y-87725D01*
Y-87439D01*
Y-87153D01*
Y-86866D01*
Y-86580D01*
Y-86294D01*
X1108195D01*
Y-86007D01*
Y-85721D01*
Y-85435D01*
Y-85149D01*
Y-84862D01*
Y-84576D01*
Y-84290D01*
Y-84003D01*
Y-83717D01*
Y-83431D01*
X1121080D01*
Y-83717D01*
D02*
G37*
G36*
X1063244Y-66252D02*
Y-66538D01*
X1062958D01*
Y-66825D01*
Y-67111D01*
Y-67397D01*
Y-67684D01*
Y-67970D01*
Y-68256D01*
X1062672D01*
Y-68542D01*
Y-68829D01*
Y-69115D01*
Y-69401D01*
Y-69688D01*
Y-69974D01*
X1062385D01*
Y-70260D01*
Y-70547D01*
Y-70833D01*
Y-71119D01*
Y-71406D01*
Y-71692D01*
Y-71978D01*
X1062099D01*
Y-72264D01*
Y-72551D01*
Y-72837D01*
Y-73123D01*
Y-73410D01*
Y-73696D01*
X1061813D01*
Y-73982D01*
Y-74269D01*
Y-74555D01*
Y-74841D01*
Y-75128D01*
Y-75414D01*
X1061526D01*
Y-75700D01*
Y-75987D01*
Y-76273D01*
Y-76559D01*
Y-76846D01*
Y-77132D01*
Y-77418D01*
X1061240D01*
Y-77704D01*
Y-77991D01*
Y-78277D01*
Y-78563D01*
Y-78850D01*
Y-79136D01*
X1060954D01*
Y-79422D01*
Y-79709D01*
Y-79995D01*
Y-80281D01*
Y-80568D01*
Y-80854D01*
X1060668D01*
Y-81140D01*
Y-81427D01*
Y-81713D01*
Y-81999D01*
Y-82285D01*
Y-82572D01*
X1060381D01*
Y-82858D01*
Y-83144D01*
Y-83431D01*
Y-83717D01*
Y-84003D01*
Y-84290D01*
Y-84576D01*
X1060095D01*
Y-84862D01*
Y-85149D01*
Y-85435D01*
Y-85721D01*
Y-86007D01*
Y-86294D01*
X1059809D01*
Y-86580D01*
Y-86866D01*
X1060381D01*
Y-86580D01*
X1060668D01*
Y-86294D01*
X1060954D01*
Y-86007D01*
X1061526D01*
Y-85721D01*
X1061813D01*
Y-85435D01*
X1062099D01*
Y-85149D01*
X1062672D01*
Y-84862D01*
X1063244D01*
Y-84576D01*
X1063531D01*
Y-84290D01*
X1064103D01*
Y-84003D01*
X1064962D01*
Y-83717D01*
X1065535D01*
Y-83431D01*
X1066394D01*
Y-83144D01*
X1067825D01*
Y-82858D01*
X1074124D01*
Y-83144D01*
X1075270D01*
Y-83431D01*
X1076128D01*
Y-83717D01*
X1076701D01*
Y-84003D01*
X1076987D01*
Y-84290D01*
X1077560D01*
Y-84576D01*
X1077846D01*
Y-84862D01*
X1078133D01*
Y-85149D01*
X1078419D01*
Y-85435D01*
X1078705D01*
Y-85721D01*
Y-86007D01*
X1078992D01*
Y-86294D01*
Y-86580D01*
X1079278D01*
Y-86866D01*
Y-87153D01*
Y-87439D01*
X1079564D01*
Y-87725D01*
Y-88012D01*
Y-88298D01*
Y-88584D01*
X1079850D01*
Y-88871D01*
Y-89157D01*
Y-89443D01*
Y-89730D01*
Y-90016D01*
Y-90302D01*
Y-90588D01*
Y-90875D01*
Y-91161D01*
Y-91448D01*
Y-91734D01*
Y-92020D01*
Y-92306D01*
Y-92593D01*
Y-92879D01*
Y-93165D01*
Y-93452D01*
Y-93738D01*
X1079564D01*
Y-94024D01*
Y-94311D01*
Y-94597D01*
Y-94883D01*
Y-95170D01*
Y-95456D01*
Y-95742D01*
X1079278D01*
Y-96029D01*
Y-96315D01*
Y-96601D01*
Y-96887D01*
Y-97174D01*
Y-97460D01*
Y-97746D01*
X1078992D01*
Y-98033D01*
Y-98319D01*
Y-98605D01*
Y-98892D01*
Y-99178D01*
Y-99464D01*
X1078705D01*
Y-99751D01*
Y-100037D01*
Y-100323D01*
Y-100610D01*
Y-100896D01*
Y-101182D01*
X1078419D01*
Y-101468D01*
Y-101755D01*
Y-102041D01*
Y-102327D01*
Y-102614D01*
Y-102900D01*
X1078133D01*
Y-103186D01*
Y-103473D01*
Y-103759D01*
Y-104045D01*
Y-104332D01*
Y-104618D01*
Y-104904D01*
X1077846D01*
Y-105191D01*
Y-105477D01*
Y-105763D01*
Y-106049D01*
Y-106336D01*
Y-106622D01*
X1077560D01*
Y-106908D01*
Y-107195D01*
Y-107481D01*
Y-107767D01*
Y-108054D01*
Y-108340D01*
X1077274D01*
Y-108626D01*
Y-108913D01*
Y-109199D01*
Y-109485D01*
Y-109772D01*
Y-110058D01*
Y-110344D01*
X1076987D01*
Y-110630D01*
Y-110917D01*
Y-111203D01*
Y-111489D01*
Y-111776D01*
Y-112062D01*
X1076701D01*
Y-112348D01*
Y-112635D01*
Y-112921D01*
Y-113207D01*
Y-113494D01*
Y-113780D01*
X1076415D01*
Y-114066D01*
Y-114353D01*
Y-114639D01*
Y-114925D01*
Y-115211D01*
Y-115498D01*
X1076128D01*
Y-115784D01*
Y-116070D01*
Y-116357D01*
Y-116643D01*
Y-116929D01*
Y-117216D01*
Y-117502D01*
X1075842D01*
Y-117788D01*
Y-118075D01*
Y-118361D01*
Y-118647D01*
Y-118933D01*
Y-119220D01*
X1075556D01*
Y-119506D01*
Y-119792D01*
X1062385D01*
Y-119506D01*
Y-119220D01*
X1062672D01*
Y-118933D01*
Y-118647D01*
Y-118361D01*
Y-118075D01*
Y-117788D01*
Y-117502D01*
X1062958D01*
Y-117216D01*
Y-116929D01*
Y-116643D01*
Y-116357D01*
Y-116070D01*
Y-115784D01*
Y-115498D01*
X1063244D01*
Y-115211D01*
Y-114925D01*
Y-114639D01*
Y-114353D01*
Y-114066D01*
Y-113780D01*
X1063531D01*
Y-113494D01*
Y-113207D01*
Y-112921D01*
Y-112635D01*
Y-112348D01*
Y-112062D01*
X1063817D01*
Y-111776D01*
Y-111489D01*
Y-111203D01*
Y-110917D01*
Y-110630D01*
Y-110344D01*
Y-110058D01*
X1064103D01*
Y-109772D01*
Y-109485D01*
Y-109199D01*
Y-108913D01*
Y-108626D01*
Y-108340D01*
X1064390D01*
Y-108054D01*
Y-107767D01*
Y-107481D01*
Y-107195D01*
Y-106908D01*
Y-106622D01*
Y-106336D01*
X1064676D01*
Y-106049D01*
Y-105763D01*
Y-105477D01*
Y-105191D01*
Y-104904D01*
Y-104618D01*
X1064962D01*
Y-104332D01*
Y-104045D01*
Y-103759D01*
Y-103473D01*
Y-103186D01*
Y-102900D01*
X1065249D01*
Y-102614D01*
Y-102327D01*
Y-102041D01*
Y-101755D01*
Y-101468D01*
Y-101182D01*
X1065535D01*
Y-100896D01*
Y-100610D01*
Y-100323D01*
Y-100037D01*
Y-99751D01*
Y-99464D01*
Y-99178D01*
X1065821D01*
Y-98892D01*
Y-98605D01*
Y-98319D01*
Y-98033D01*
Y-97746D01*
Y-97460D01*
X1066107D01*
Y-97174D01*
Y-96887D01*
Y-96601D01*
Y-96315D01*
Y-96029D01*
Y-95742D01*
Y-95456D01*
X1066394D01*
Y-95170D01*
Y-94883D01*
Y-94597D01*
Y-94311D01*
Y-94024D01*
Y-93738D01*
X1066107D01*
Y-93452D01*
Y-93165D01*
X1065821D01*
Y-92879D01*
X1065535D01*
Y-92593D01*
X1064962D01*
Y-92306D01*
X1063244D01*
Y-92593D01*
X1061813D01*
Y-92879D01*
X1060954D01*
Y-93165D01*
X1060381D01*
Y-93452D01*
X1060095D01*
Y-93738D01*
X1059522D01*
Y-94024D01*
X1059236D01*
Y-94311D01*
X1058950D01*
Y-94597D01*
Y-94883D01*
X1058663D01*
Y-95170D01*
Y-95456D01*
Y-95742D01*
X1058377D01*
Y-96029D01*
Y-96315D01*
Y-96601D01*
Y-96887D01*
Y-97174D01*
Y-97460D01*
X1058091D01*
Y-97746D01*
Y-98033D01*
Y-98319D01*
Y-98605D01*
Y-98892D01*
Y-99178D01*
Y-99464D01*
X1057804D01*
Y-99751D01*
Y-100037D01*
Y-100323D01*
Y-100610D01*
Y-100896D01*
Y-101182D01*
X1057518D01*
Y-101468D01*
Y-101755D01*
Y-102041D01*
Y-102327D01*
Y-102614D01*
Y-102900D01*
X1057232D01*
Y-103186D01*
Y-103473D01*
Y-103759D01*
Y-104045D01*
Y-104332D01*
Y-104618D01*
X1056946D01*
Y-104904D01*
Y-105191D01*
Y-105477D01*
Y-105763D01*
Y-106049D01*
Y-106336D01*
Y-106622D01*
X1056659D01*
Y-106908D01*
Y-107195D01*
Y-107481D01*
Y-107767D01*
Y-108054D01*
Y-108340D01*
X1056373D01*
Y-108626D01*
Y-108913D01*
Y-109199D01*
Y-109485D01*
Y-109772D01*
Y-110058D01*
X1056087D01*
Y-110344D01*
Y-110630D01*
Y-110917D01*
Y-111203D01*
Y-111489D01*
Y-111776D01*
Y-112062D01*
X1055800D01*
Y-112348D01*
Y-112635D01*
Y-112921D01*
Y-113207D01*
Y-113494D01*
Y-113780D01*
X1055514D01*
Y-114066D01*
Y-114353D01*
Y-114639D01*
Y-114925D01*
Y-115211D01*
Y-115498D01*
X1055228D01*
Y-115784D01*
Y-116070D01*
Y-116357D01*
Y-116643D01*
Y-116929D01*
Y-117216D01*
X1054941D01*
Y-117502D01*
Y-117788D01*
Y-118075D01*
Y-118361D01*
Y-118647D01*
Y-118933D01*
Y-119220D01*
X1054655D01*
Y-119506D01*
Y-119792D01*
X1041485D01*
Y-119506D01*
Y-119220D01*
X1041771D01*
Y-118933D01*
Y-118647D01*
Y-118361D01*
Y-118075D01*
Y-117788D01*
Y-117502D01*
Y-117216D01*
X1042057D01*
Y-116929D01*
Y-116643D01*
Y-116357D01*
Y-116070D01*
Y-115784D01*
Y-115498D01*
X1042344D01*
Y-115211D01*
Y-114925D01*
Y-114639D01*
Y-114353D01*
Y-114066D01*
Y-113780D01*
X1042630D01*
Y-113494D01*
Y-113207D01*
Y-112921D01*
Y-112635D01*
Y-112348D01*
Y-112062D01*
Y-111776D01*
X1042916D01*
Y-111489D01*
Y-111203D01*
Y-110917D01*
Y-110630D01*
Y-110344D01*
Y-110058D01*
X1043202D01*
Y-109772D01*
Y-109485D01*
Y-109199D01*
Y-108913D01*
Y-108626D01*
Y-108340D01*
X1043489D01*
Y-108054D01*
Y-107767D01*
Y-107481D01*
Y-107195D01*
Y-106908D01*
Y-106622D01*
X1043775D01*
Y-106336D01*
Y-106049D01*
Y-105763D01*
Y-105477D01*
Y-105191D01*
Y-104904D01*
Y-104618D01*
X1044061D01*
Y-104332D01*
Y-104045D01*
Y-103759D01*
Y-103473D01*
Y-103186D01*
Y-102900D01*
X1044348D01*
Y-102614D01*
Y-102327D01*
Y-102041D01*
Y-101755D01*
Y-101468D01*
Y-101182D01*
X1044634D01*
Y-100896D01*
Y-100610D01*
Y-100323D01*
Y-100037D01*
Y-99751D01*
Y-99464D01*
Y-99178D01*
X1044920D01*
Y-98892D01*
Y-98605D01*
Y-98319D01*
Y-98033D01*
Y-97746D01*
Y-97460D01*
X1045207D01*
Y-97174D01*
Y-96887D01*
Y-96601D01*
Y-96315D01*
Y-96029D01*
Y-95742D01*
X1045493D01*
Y-95456D01*
Y-95170D01*
Y-94883D01*
Y-94597D01*
Y-94311D01*
Y-94024D01*
X1045779D01*
Y-93738D01*
Y-93452D01*
Y-93165D01*
Y-92879D01*
Y-92593D01*
Y-92306D01*
Y-92020D01*
X1046066D01*
Y-91734D01*
Y-91448D01*
Y-91161D01*
Y-90875D01*
Y-90588D01*
Y-90302D01*
X1046352D01*
Y-90016D01*
Y-89730D01*
Y-89443D01*
Y-89157D01*
Y-88871D01*
Y-88584D01*
X1046638D01*
Y-88298D01*
Y-88012D01*
Y-87725D01*
Y-87439D01*
Y-87153D01*
Y-86866D01*
X1046925D01*
Y-86580D01*
Y-86294D01*
Y-86007D01*
Y-85721D01*
Y-85435D01*
Y-85149D01*
Y-84862D01*
X1047211D01*
Y-84576D01*
Y-84290D01*
Y-84003D01*
Y-83717D01*
Y-83431D01*
Y-83144D01*
X1047497D01*
Y-82858D01*
Y-82572D01*
Y-82285D01*
Y-81999D01*
Y-81713D01*
Y-81427D01*
X1047783D01*
Y-81140D01*
Y-80854D01*
Y-80568D01*
Y-80281D01*
Y-79995D01*
Y-79709D01*
Y-79422D01*
X1048070D01*
Y-79136D01*
Y-78850D01*
Y-78563D01*
Y-78277D01*
Y-77991D01*
Y-77704D01*
X1048356D01*
Y-77418D01*
Y-77132D01*
Y-76846D01*
Y-76559D01*
Y-76273D01*
Y-75987D01*
X1048642D01*
Y-75700D01*
Y-75414D01*
Y-75128D01*
Y-74841D01*
Y-74555D01*
Y-74269D01*
X1048929D01*
Y-73982D01*
Y-73696D01*
Y-73410D01*
Y-73123D01*
Y-72837D01*
Y-72551D01*
Y-72264D01*
X1049215D01*
Y-71978D01*
Y-71692D01*
Y-71406D01*
Y-71119D01*
Y-70833D01*
Y-70547D01*
X1049501D01*
Y-70260D01*
Y-69974D01*
Y-69688D01*
Y-69401D01*
Y-69115D01*
Y-68829D01*
X1049788D01*
Y-68542D01*
Y-68256D01*
Y-67970D01*
Y-67684D01*
Y-67397D01*
Y-67111D01*
Y-66825D01*
X1050074D01*
Y-66538D01*
Y-66252D01*
Y-65966D01*
X1063244D01*
Y-66252D01*
D02*
G37*
G36*
X1032036Y-69688D02*
X1033754D01*
Y-69974D01*
X1034613D01*
Y-70260D01*
X1035472D01*
Y-70547D01*
X1036331D01*
Y-70833D01*
X1036904D01*
Y-71119D01*
X1037190D01*
Y-71406D01*
X1037763D01*
Y-71692D01*
X1038049D01*
Y-71978D01*
X1038622D01*
Y-72264D01*
X1038908D01*
Y-72551D01*
X1039194D01*
Y-72837D01*
X1039480D01*
Y-73123D01*
X1039767D01*
Y-73410D01*
X1040053D01*
Y-73696D01*
X1040339D01*
Y-73982D01*
Y-74269D01*
X1040626D01*
Y-74555D01*
X1040912D01*
Y-74841D01*
Y-75128D01*
X1041198D01*
Y-75414D01*
X1041485D01*
Y-75700D01*
Y-75987D01*
X1041771D01*
Y-76273D01*
Y-76559D01*
Y-76846D01*
X1042057D01*
Y-77132D01*
Y-77418D01*
Y-77704D01*
X1042344D01*
Y-77991D01*
Y-78277D01*
Y-78563D01*
Y-78850D01*
X1042630D01*
Y-79136D01*
Y-79422D01*
Y-79709D01*
Y-79995D01*
Y-80281D01*
X1042916D01*
Y-80568D01*
Y-80854D01*
Y-81140D01*
Y-81427D01*
Y-81713D01*
Y-81999D01*
Y-82285D01*
Y-82572D01*
Y-82858D01*
Y-83144D01*
Y-83431D01*
Y-83717D01*
Y-84003D01*
Y-84290D01*
Y-84576D01*
Y-84862D01*
Y-85149D01*
Y-85435D01*
Y-85721D01*
Y-86007D01*
X1042630D01*
Y-86294D01*
Y-86580D01*
Y-86866D01*
Y-87153D01*
Y-87439D01*
Y-87725D01*
Y-88012D01*
X1042344D01*
Y-88298D01*
Y-88584D01*
Y-88871D01*
Y-89157D01*
Y-89443D01*
X1042057D01*
Y-89730D01*
Y-90016D01*
Y-90302D01*
Y-90588D01*
Y-90875D01*
X1041771D01*
Y-91161D01*
Y-91448D01*
Y-91734D01*
X1041485D01*
Y-92020D01*
Y-92306D01*
Y-92593D01*
Y-92879D01*
X1041198D01*
Y-93165D01*
Y-93452D01*
Y-93738D01*
X1040912D01*
Y-94024D01*
Y-94311D01*
X1040626D01*
Y-94597D01*
Y-94883D01*
Y-95170D01*
X1040339D01*
Y-95456D01*
Y-95742D01*
X1040053D01*
Y-96029D01*
Y-96315D01*
X1039767D01*
Y-96601D01*
Y-96887D01*
X1039480D01*
Y-97174D01*
X1039194D01*
Y-97460D01*
Y-97746D01*
X1038908D01*
Y-98033D01*
X1038622D01*
Y-98319D01*
X1038335D01*
Y-98605D01*
Y-98892D01*
X1038049D01*
Y-99178D01*
X1037763D01*
Y-99464D01*
X1037476D01*
Y-99751D01*
X1037190D01*
Y-100037D01*
X1036904D01*
Y-100323D01*
X1036331D01*
Y-100610D01*
X1036045D01*
Y-100896D01*
X1035472D01*
Y-101182D01*
X1035186D01*
Y-101468D01*
X1034613D01*
Y-101755D01*
X1033754D01*
Y-102041D01*
X1032895D01*
Y-102327D01*
X1032036D01*
Y-102614D01*
X1030318D01*
Y-102900D01*
X1025165D01*
Y-102614D01*
X1022588D01*
Y-102327D01*
X1020584D01*
Y-102041D01*
X1019152D01*
Y-101755D01*
X1017721D01*
Y-101468D01*
X1016289D01*
Y-101755D01*
Y-102041D01*
Y-102327D01*
Y-102614D01*
Y-102900D01*
Y-103186D01*
Y-103473D01*
X1016003D01*
Y-103759D01*
Y-104045D01*
Y-104332D01*
Y-104618D01*
Y-104904D01*
Y-105191D01*
X1015716D01*
Y-105477D01*
Y-105763D01*
Y-106049D01*
Y-106336D01*
Y-106622D01*
Y-106908D01*
X1015430D01*
Y-107195D01*
Y-107481D01*
Y-107767D01*
Y-108054D01*
Y-108340D01*
Y-108626D01*
Y-108913D01*
X1015144D01*
Y-109199D01*
Y-109485D01*
Y-109772D01*
Y-110058D01*
Y-110344D01*
Y-110630D01*
X1014857D01*
Y-110917D01*
Y-111203D01*
Y-111489D01*
Y-111776D01*
Y-112062D01*
Y-112348D01*
X1014571D01*
Y-112635D01*
Y-112921D01*
Y-113207D01*
Y-113494D01*
Y-113780D01*
Y-114066D01*
Y-114353D01*
X1014285D01*
Y-114639D01*
Y-114925D01*
Y-115211D01*
Y-115498D01*
Y-115784D01*
Y-116070D01*
X1013999D01*
Y-116357D01*
Y-116643D01*
Y-116929D01*
Y-117216D01*
Y-117502D01*
Y-117788D01*
X1013712D01*
Y-118075D01*
Y-118361D01*
Y-118647D01*
Y-118933D01*
Y-119220D01*
Y-119506D01*
Y-119792D01*
X1000256D01*
Y-119506D01*
X1000542D01*
Y-119220D01*
Y-118933D01*
Y-118647D01*
Y-118361D01*
Y-118075D01*
X1000828D01*
Y-117788D01*
Y-117502D01*
Y-117216D01*
Y-116929D01*
Y-116643D01*
Y-116357D01*
Y-116070D01*
X1001114D01*
Y-115784D01*
Y-115498D01*
Y-115211D01*
Y-114925D01*
Y-114639D01*
Y-114353D01*
X1001401D01*
Y-114066D01*
Y-113780D01*
Y-113494D01*
Y-113207D01*
Y-112921D01*
Y-112635D01*
X1001687D01*
Y-112348D01*
Y-112062D01*
Y-111776D01*
Y-111489D01*
Y-111203D01*
Y-110917D01*
Y-110630D01*
X1001974D01*
Y-110344D01*
Y-110058D01*
Y-109772D01*
Y-109485D01*
Y-109199D01*
Y-108913D01*
X1002260D01*
Y-108626D01*
Y-108340D01*
Y-108054D01*
Y-107767D01*
Y-107481D01*
Y-107195D01*
X1002546D01*
Y-106908D01*
Y-106622D01*
Y-106336D01*
Y-106049D01*
Y-105763D01*
Y-105477D01*
X1002832D01*
Y-105191D01*
Y-104904D01*
Y-104618D01*
Y-104332D01*
Y-104045D01*
Y-103759D01*
Y-103473D01*
X1003119D01*
Y-103186D01*
Y-102900D01*
Y-102614D01*
Y-102327D01*
Y-102041D01*
Y-101755D01*
X1003405D01*
Y-101468D01*
Y-101182D01*
Y-100896D01*
Y-100610D01*
Y-100323D01*
Y-100037D01*
X1003691D01*
Y-99751D01*
Y-99464D01*
Y-99178D01*
Y-98892D01*
Y-98605D01*
Y-98319D01*
X1003978D01*
Y-98033D01*
Y-97746D01*
Y-97460D01*
Y-97174D01*
Y-96887D01*
Y-96601D01*
Y-96315D01*
X1004264D01*
Y-96029D01*
Y-95742D01*
Y-95456D01*
Y-95170D01*
Y-94883D01*
Y-94597D01*
X1004550D01*
Y-94311D01*
Y-94024D01*
Y-93738D01*
Y-93452D01*
Y-93165D01*
Y-92879D01*
X1004837D01*
Y-92593D01*
Y-92306D01*
Y-92020D01*
Y-91734D01*
Y-91448D01*
Y-91161D01*
Y-90875D01*
X1005123D01*
Y-90588D01*
Y-90302D01*
Y-90016D01*
Y-89730D01*
Y-89443D01*
Y-89157D01*
X1005409D01*
Y-88871D01*
Y-88584D01*
Y-88298D01*
Y-88012D01*
Y-87725D01*
Y-87439D01*
X1005696D01*
Y-87153D01*
Y-86866D01*
Y-86580D01*
Y-86294D01*
Y-86007D01*
Y-85721D01*
X1005982D01*
Y-85435D01*
Y-85149D01*
Y-84862D01*
Y-84576D01*
Y-84290D01*
Y-84003D01*
Y-83717D01*
X1006268D01*
Y-83431D01*
Y-83144D01*
Y-82858D01*
Y-82572D01*
Y-82285D01*
Y-81999D01*
X1006555D01*
Y-81713D01*
Y-81427D01*
Y-81140D01*
Y-80854D01*
Y-80568D01*
Y-80281D01*
X1006841D01*
Y-79995D01*
Y-79709D01*
Y-79422D01*
Y-79136D01*
Y-78850D01*
Y-78563D01*
Y-78277D01*
X1007127D01*
Y-77991D01*
Y-77704D01*
Y-77418D01*
Y-77132D01*
Y-76846D01*
Y-76559D01*
X1007413D01*
Y-76273D01*
Y-75987D01*
Y-75700D01*
Y-75414D01*
Y-75128D01*
Y-74841D01*
X1007700D01*
Y-74555D01*
Y-74269D01*
Y-73982D01*
Y-73696D01*
Y-73410D01*
Y-73123D01*
Y-72837D01*
X1007986D01*
Y-72551D01*
Y-72264D01*
Y-71978D01*
Y-71692D01*
Y-71406D01*
Y-71119D01*
X1008272D01*
Y-70833D01*
Y-70547D01*
Y-70260D01*
Y-69974D01*
Y-69688D01*
Y-69401D01*
X1032036D01*
Y-69688D01*
D02*
G37*
G36*
X1165172Y-83717D02*
X1164886D01*
Y-84003D01*
X1164599D01*
Y-84290D01*
Y-84576D01*
X1164313D01*
Y-84862D01*
X1164027D01*
Y-85149D01*
X1163740D01*
Y-85435D01*
Y-85721D01*
X1163454D01*
Y-86007D01*
X1163168D01*
Y-86294D01*
X1162881D01*
Y-86580D01*
X1162595D01*
Y-86866D01*
Y-87153D01*
X1162309D01*
Y-87439D01*
X1162022D01*
Y-87725D01*
X1161736D01*
Y-88012D01*
Y-88298D01*
X1161450D01*
Y-88584D01*
X1161163D01*
Y-88871D01*
X1160877D01*
Y-89157D01*
X1160591D01*
Y-89443D01*
Y-89730D01*
X1160305D01*
Y-90016D01*
X1160018D01*
Y-90302D01*
X1159732D01*
Y-90588D01*
Y-90875D01*
X1159445D01*
Y-91161D01*
X1159159D01*
Y-91448D01*
X1158873D01*
Y-91734D01*
Y-92020D01*
X1158587D01*
Y-92306D01*
X1158300D01*
Y-92593D01*
X1158014D01*
Y-92879D01*
X1157728D01*
Y-93165D01*
Y-93452D01*
X1157441D01*
Y-93738D01*
X1157155D01*
Y-94024D01*
X1156869D01*
Y-94311D01*
Y-94597D01*
X1156582D01*
Y-94883D01*
X1156296D01*
Y-95170D01*
X1156010D01*
Y-95456D01*
Y-95742D01*
X1155723D01*
Y-96029D01*
X1155437D01*
Y-96315D01*
X1155151D01*
Y-96601D01*
X1154865D01*
Y-96887D01*
Y-97174D01*
X1154578D01*
Y-97460D01*
X1154292D01*
Y-97746D01*
X1154006D01*
Y-98033D01*
Y-98319D01*
X1153719D01*
Y-98605D01*
X1153433D01*
Y-98892D01*
X1153147D01*
Y-99178D01*
Y-99464D01*
X1152860D01*
Y-99751D01*
X1152574D01*
Y-100037D01*
X1152288D01*
Y-100323D01*
X1152001D01*
Y-100610D01*
Y-100896D01*
X1151715D01*
Y-101182D01*
X1151429D01*
Y-101468D01*
X1151142D01*
Y-101755D01*
Y-102041D01*
X1150856D01*
Y-102327D01*
X1150570D01*
Y-102614D01*
X1150284D01*
Y-102900D01*
X1149997D01*
Y-103186D01*
Y-103473D01*
X1150284D01*
Y-103759D01*
Y-104045D01*
X1150570D01*
Y-104332D01*
Y-104618D01*
X1150856D01*
Y-104904D01*
X1151142D01*
Y-105191D01*
Y-105477D01*
X1151429D01*
Y-105763D01*
Y-106049D01*
X1151715D01*
Y-106336D01*
Y-106622D01*
X1152001D01*
Y-106908D01*
Y-107195D01*
X1152288D01*
Y-107481D01*
Y-107767D01*
X1152574D01*
Y-108054D01*
Y-108340D01*
X1152860D01*
Y-108626D01*
Y-108913D01*
X1153147D01*
Y-109199D01*
Y-109485D01*
X1153433D01*
Y-109772D01*
X1153719D01*
Y-110058D01*
Y-110344D01*
X1154006D01*
Y-110630D01*
Y-110917D01*
X1154292D01*
Y-111203D01*
Y-111489D01*
X1154578D01*
Y-111776D01*
Y-112062D01*
X1154865D01*
Y-112348D01*
Y-112635D01*
X1155151D01*
Y-112921D01*
Y-113207D01*
X1155437D01*
Y-113494D01*
Y-113780D01*
X1155723D01*
Y-114066D01*
X1156010D01*
Y-114353D01*
Y-114639D01*
X1156296D01*
Y-114925D01*
Y-115211D01*
X1156582D01*
Y-115498D01*
Y-115784D01*
X1156869D01*
Y-116070D01*
Y-116357D01*
X1157155D01*
Y-116643D01*
Y-116929D01*
X1157441D01*
Y-117216D01*
Y-117502D01*
X1157728D01*
Y-117788D01*
Y-118075D01*
X1158014D01*
Y-118361D01*
X1158300D01*
Y-118647D01*
Y-118933D01*
X1158587D01*
Y-119220D01*
Y-119506D01*
X1158873D01*
Y-119792D01*
X1143698D01*
Y-119506D01*
X1143412D01*
Y-119220D01*
Y-118933D01*
Y-118647D01*
X1143126D01*
Y-118361D01*
Y-118075D01*
Y-117788D01*
X1142839D01*
Y-117502D01*
Y-117216D01*
X1142553D01*
Y-116929D01*
Y-116643D01*
Y-116357D01*
X1142267D01*
Y-116070D01*
Y-115784D01*
Y-115498D01*
X1141980D01*
Y-115211D01*
Y-114925D01*
X1141694D01*
Y-114639D01*
Y-114353D01*
Y-114066D01*
X1141408D01*
Y-113780D01*
Y-113494D01*
Y-113207D01*
X1141121D01*
Y-112921D01*
Y-112635D01*
Y-112348D01*
X1140835D01*
Y-112062D01*
X1140263D01*
Y-112348D01*
Y-112635D01*
X1139976D01*
Y-112921D01*
X1139690D01*
Y-113207D01*
Y-113494D01*
X1139404D01*
Y-113780D01*
X1139117D01*
Y-114066D01*
Y-114353D01*
X1138831D01*
Y-114639D01*
X1138545D01*
Y-114925D01*
Y-115211D01*
X1138258D01*
Y-115498D01*
X1137972D01*
Y-115784D01*
X1137686D01*
Y-116070D01*
Y-116357D01*
X1137399D01*
Y-116643D01*
X1137113D01*
Y-116929D01*
Y-117216D01*
X1136827D01*
Y-117502D01*
X1136541D01*
Y-117788D01*
Y-118075D01*
X1136254D01*
Y-118361D01*
X1135968D01*
Y-118647D01*
Y-118933D01*
X1135682D01*
Y-119220D01*
X1135395D01*
Y-119506D01*
Y-119792D01*
X1119362D01*
Y-119506D01*
X1119648D01*
Y-119220D01*
X1119934D01*
Y-118933D01*
X1120221D01*
Y-118647D01*
X1120507D01*
Y-118361D01*
Y-118075D01*
X1120793D01*
Y-117788D01*
X1121080D01*
Y-117502D01*
X1121366D01*
Y-117216D01*
X1121652D01*
Y-116929D01*
Y-116643D01*
X1121939D01*
Y-116357D01*
X1122225D01*
Y-116070D01*
X1122511D01*
Y-115784D01*
Y-115498D01*
X1122797D01*
Y-115211D01*
X1123084D01*
Y-114925D01*
X1123370D01*
Y-114639D01*
X1123656D01*
Y-114353D01*
Y-114066D01*
X1123943D01*
Y-113780D01*
X1124229D01*
Y-113494D01*
X1124515D01*
Y-113207D01*
X1124802D01*
Y-112921D01*
Y-112635D01*
X1125088D01*
Y-112348D01*
X1125374D01*
Y-112062D01*
X1125661D01*
Y-111776D01*
Y-111489D01*
X1125947D01*
Y-111203D01*
X1126233D01*
Y-110917D01*
X1126519D01*
Y-110630D01*
X1126806D01*
Y-110344D01*
Y-110058D01*
X1127092D01*
Y-109772D01*
X1127378D01*
Y-109485D01*
X1127665D01*
Y-109199D01*
Y-108913D01*
X1127951D01*
Y-108626D01*
X1128237D01*
Y-108340D01*
X1128524D01*
Y-108054D01*
X1128810D01*
Y-107767D01*
Y-107481D01*
X1129096D01*
Y-107195D01*
X1129383D01*
Y-106908D01*
X1129669D01*
Y-106622D01*
Y-106336D01*
X1129955D01*
Y-106049D01*
X1130242D01*
Y-105763D01*
X1130528D01*
Y-105477D01*
X1130814D01*
Y-105191D01*
Y-104904D01*
X1131100D01*
Y-104618D01*
X1131387D01*
Y-104332D01*
X1131673D01*
Y-104045D01*
X1131960D01*
Y-103759D01*
Y-103473D01*
X1132246D01*
Y-103186D01*
X1132532D01*
Y-102900D01*
X1132818D01*
Y-102614D01*
Y-102327D01*
X1133105D01*
Y-102041D01*
X1133391D01*
Y-101755D01*
X1133677D01*
Y-101468D01*
X1133964D01*
Y-101182D01*
Y-100896D01*
X1134250D01*
Y-100610D01*
Y-100323D01*
Y-100037D01*
X1133964D01*
Y-99751D01*
X1133677D01*
Y-99464D01*
Y-99178D01*
X1133391D01*
Y-98892D01*
Y-98605D01*
X1133105D01*
Y-98319D01*
Y-98033D01*
X1132818D01*
Y-97746D01*
Y-97460D01*
X1132532D01*
Y-97174D01*
Y-96887D01*
X1132246D01*
Y-96601D01*
Y-96315D01*
X1131960D01*
Y-96029D01*
X1131673D01*
Y-95742D01*
Y-95456D01*
X1131387D01*
Y-95170D01*
Y-94883D01*
X1131100D01*
Y-94597D01*
Y-94311D01*
X1130814D01*
Y-94024D01*
Y-93738D01*
X1130528D01*
Y-93452D01*
Y-93165D01*
X1130242D01*
Y-92879D01*
Y-92593D01*
X1129955D01*
Y-92306D01*
X1129669D01*
Y-92020D01*
Y-91734D01*
X1129383D01*
Y-91448D01*
Y-91161D01*
X1129096D01*
Y-90875D01*
Y-90588D01*
X1128810D01*
Y-90302D01*
Y-90016D01*
X1128524D01*
Y-89730D01*
Y-89443D01*
X1128237D01*
Y-89157D01*
Y-88871D01*
X1127951D01*
Y-88584D01*
Y-88298D01*
X1127665D01*
Y-88012D01*
X1127378D01*
Y-87725D01*
Y-87439D01*
X1127092D01*
Y-87153D01*
Y-86866D01*
X1126806D01*
Y-86580D01*
Y-86294D01*
X1126519D01*
Y-86007D01*
Y-85721D01*
X1126233D01*
Y-85435D01*
Y-85149D01*
X1125947D01*
Y-84862D01*
Y-84576D01*
X1125661D01*
Y-84290D01*
X1125374D01*
Y-84003D01*
Y-83717D01*
X1125088D01*
Y-83431D01*
X1140835D01*
Y-83717D01*
X1141121D01*
Y-84003D01*
Y-84290D01*
Y-84576D01*
X1141408D01*
Y-84862D01*
Y-85149D01*
Y-85435D01*
X1141694D01*
Y-85721D01*
Y-86007D01*
Y-86294D01*
X1141980D01*
Y-86580D01*
Y-86866D01*
Y-87153D01*
X1142267D01*
Y-87439D01*
Y-87725D01*
Y-88012D01*
X1142553D01*
Y-88298D01*
Y-88584D01*
Y-88871D01*
X1142839D01*
Y-89157D01*
Y-89443D01*
Y-89730D01*
X1143126D01*
Y-90016D01*
Y-90302D01*
Y-90588D01*
X1143412D01*
Y-90875D01*
Y-91161D01*
Y-91448D01*
Y-91734D01*
X1143985D01*
Y-91448D01*
X1144271D01*
Y-91161D01*
X1144557D01*
Y-90875D01*
Y-90588D01*
X1144844D01*
Y-90302D01*
X1145130D01*
Y-90016D01*
Y-89730D01*
X1145416D01*
Y-89443D01*
X1145702D01*
Y-89157D01*
Y-88871D01*
X1145989D01*
Y-88584D01*
X1146275D01*
Y-88298D01*
Y-88012D01*
X1146561D01*
Y-87725D01*
X1146848D01*
Y-87439D01*
Y-87153D01*
X1147134D01*
Y-86866D01*
X1147420D01*
Y-86580D01*
Y-86294D01*
X1147707D01*
Y-86007D01*
X1147993D01*
Y-85721D01*
Y-85435D01*
X1148279D01*
Y-85149D01*
X1148566D01*
Y-84862D01*
Y-84576D01*
X1148852D01*
Y-84290D01*
X1149138D01*
Y-84003D01*
Y-83717D01*
X1149425D01*
Y-83431D01*
X1165172D01*
Y-83717D01*
D02*
G37*
%LPC*%
G36*
X1027742Y-80568D02*
X1019725D01*
Y-80854D01*
Y-81140D01*
Y-81427D01*
Y-81713D01*
Y-81999D01*
X1019438D01*
Y-82285D01*
Y-82572D01*
Y-82858D01*
Y-83144D01*
Y-83431D01*
Y-83717D01*
X1019152D01*
Y-84003D01*
Y-84290D01*
Y-84576D01*
Y-84862D01*
Y-85149D01*
Y-85435D01*
X1018866D01*
Y-85721D01*
Y-86007D01*
Y-86294D01*
Y-86580D01*
Y-86866D01*
Y-87153D01*
X1018580D01*
Y-87439D01*
Y-87725D01*
Y-88012D01*
Y-88298D01*
Y-88584D01*
Y-88871D01*
Y-89157D01*
X1018293D01*
Y-89443D01*
Y-89730D01*
Y-90016D01*
Y-90302D01*
Y-90588D01*
Y-90875D01*
X1018007D01*
Y-91161D01*
Y-91448D01*
Y-91734D01*
X1025165D01*
Y-91448D01*
X1026310D01*
Y-91161D01*
X1026883D01*
Y-90875D01*
X1027169D01*
Y-90588D01*
X1027455D01*
Y-90302D01*
X1027742D01*
Y-90016D01*
X1028028D01*
Y-89730D01*
Y-89443D01*
X1028314D01*
Y-89157D01*
Y-88871D01*
X1028601D01*
Y-88584D01*
Y-88298D01*
X1028887D01*
Y-88012D01*
Y-87725D01*
Y-87439D01*
Y-87153D01*
X1029173D01*
Y-86866D01*
Y-86580D01*
Y-86294D01*
Y-86007D01*
Y-85721D01*
X1029459D01*
Y-85435D01*
Y-85149D01*
Y-84862D01*
Y-84576D01*
Y-84290D01*
Y-84003D01*
Y-83717D01*
Y-83431D01*
Y-83144D01*
Y-82858D01*
Y-82572D01*
X1029173D01*
Y-82285D01*
Y-81999D01*
X1028887D01*
Y-81713D01*
Y-81427D01*
X1028601D01*
Y-81140D01*
X1028314D01*
Y-80854D01*
X1027742D01*
Y-80568D01*
D02*
G37*
%LPD*%
D12*
X1202756Y-96461D02*
Y-110236D01*
X1209643D01*
X1211939Y-107940D01*
Y-105645D01*
X1209643Y-103349D01*
X1202756D01*
X1209643D01*
X1211939Y-101053D01*
Y-98757D01*
X1209643Y-96461D01*
X1202756D01*
X1218827Y-110236D02*
X1223419D01*
X1225714Y-107940D01*
Y-103349D01*
X1223419Y-101053D01*
X1218827D01*
X1216531Y-103349D01*
Y-107940D01*
X1218827Y-110236D01*
X1232602Y-98757D02*
Y-101053D01*
X1230306D01*
X1234898D01*
X1232602D01*
Y-107940D01*
X1234898Y-110236D01*
X1244081Y-98757D02*
Y-101053D01*
X1241785D01*
X1246377D01*
X1244081D01*
Y-107940D01*
X1246377Y-110236D01*
X1255560D02*
X1260152D01*
X1262448Y-107940D01*
Y-103349D01*
X1260152Y-101053D01*
X1255560D01*
X1253265Y-103349D01*
Y-107940D01*
X1255560Y-110236D01*
X1267040D02*
Y-101053D01*
X1269335D01*
X1271631Y-103349D01*
Y-110236D01*
Y-103349D01*
X1273927Y-101053D01*
X1276223Y-103349D01*
Y-110236D01*
X1294590Y-96461D02*
Y-110236D01*
X1303773D01*
X1310661Y-101053D02*
X1315252D01*
X1317548Y-103349D01*
Y-110236D01*
X1310661D01*
X1308365Y-107940D01*
X1310661Y-105645D01*
X1317548D01*
X1322140Y-101053D02*
Y-107940D01*
X1324436Y-110236D01*
X1331323D01*
Y-112532D01*
X1329027Y-114828D01*
X1326732D01*
X1331323Y-110236D02*
Y-101053D01*
X1342803Y-110236D02*
X1338211D01*
X1335915Y-107940D01*
Y-103349D01*
X1338211Y-101053D01*
X1342803D01*
X1345098Y-103349D01*
Y-105645D01*
X1335915D01*
X1349690Y-101053D02*
Y-110236D01*
Y-105645D01*
X1351986Y-103349D01*
X1354282Y-101053D01*
X1356578D01*
X1201440Y-57092D02*
X1190945D01*
Y-64963D01*
X1196192D01*
X1190945D01*
Y-72835D01*
X1209312Y-62339D02*
X1214559D01*
X1217183Y-64963D01*
Y-72835D01*
X1209312D01*
X1206688Y-70211D01*
X1209312Y-67587D01*
X1217183D01*
X1222431Y-57092D02*
Y-72835D01*
X1230302D01*
X1232926Y-70211D01*
Y-67587D01*
Y-64963D01*
X1230302Y-62339D01*
X1222431D01*
X1238174Y-57092D02*
Y-72835D01*
X1248669D01*
X1256540Y-62339D02*
X1261788D01*
X1264412Y-64963D01*
Y-72835D01*
X1256540D01*
X1253917Y-70211D01*
X1256540Y-67587D01*
X1264412D01*
X1269660Y-57092D02*
Y-72835D01*
X1277531D01*
X1280155Y-70211D01*
Y-67587D01*
Y-64963D01*
X1277531Y-62339D01*
X1269660D01*
X1285402Y-57092D02*
Y-72835D01*
X1293274D01*
X1295898Y-70211D01*
Y-67587D01*
X1293274Y-64963D01*
X1285402D01*
X1293274D01*
X1295898Y-62339D01*
Y-59715D01*
X1293274Y-57092D01*
X1285402D01*
X1303769Y-72835D02*
X1309017D01*
X1311641Y-70211D01*
Y-64963D01*
X1309017Y-62339D01*
X1303769D01*
X1301145Y-64963D01*
Y-70211D01*
X1303769Y-72835D01*
X1319512Y-59715D02*
Y-62339D01*
X1316888D01*
X1322136D01*
X1319512D01*
Y-70211D01*
X1322136Y-72835D01*
X1206034Y-151575D02*
X1196850D01*
X1206034Y-142391D01*
Y-140096D01*
X1203738Y-137800D01*
X1199146D01*
X1196850Y-140096D01*
X1219809Y-137800D02*
X1210625D01*
Y-144687D01*
X1215217Y-142391D01*
X1217513D01*
X1219809Y-144687D01*
Y-149279D01*
X1217513Y-151575D01*
X1212921D01*
X1210625Y-149279D01*
X1224401Y-151575D02*
X1233584Y-142391D01*
X1238176Y-140096D02*
X1240471Y-137800D01*
X1245063D01*
X1247359Y-140096D01*
Y-149279D01*
X1245063Y-151575D01*
X1240471D01*
X1238176Y-149279D01*
Y-140096D01*
X1261134Y-151575D02*
X1251951D01*
X1261134Y-142391D01*
Y-140096D01*
X1258838Y-137800D01*
X1254247D01*
X1251951Y-140096D01*
X1265726Y-151575D02*
X1274909Y-142391D01*
X1288684Y-151575D02*
X1279501D01*
X1288684Y-142391D01*
Y-140096D01*
X1286388Y-137800D01*
X1281797D01*
X1279501Y-140096D01*
X1293276D02*
X1295572Y-137800D01*
X1300163D01*
X1302459Y-140096D01*
Y-149279D01*
X1300163Y-151575D01*
X1295572D01*
X1293276Y-149279D01*
Y-140096D01*
X1307051Y-151575D02*
X1311643D01*
X1309347D01*
Y-137800D01*
X1307051Y-140096D01*
X1327714Y-137800D02*
X1323122Y-140096D01*
X1318530Y-144687D01*
Y-149279D01*
X1320826Y-151575D01*
X1325418D01*
X1327714Y-149279D01*
Y-146983D01*
X1325418Y-144687D01*
X1318530D01*
X1360236Y-138456D02*
X1362860Y-135832D01*
X1368108D01*
X1370732Y-138456D01*
Y-148951D01*
X1368108Y-151575D01*
X1362860D01*
X1360236Y-148951D01*
Y-138456D01*
X1375979Y-151575D02*
X1381227D01*
X1378603D01*
Y-135832D01*
X1375979Y-138456D01*
X1005906Y-175202D02*
Y-190945D01*
X1011153Y-185697D01*
X1016401Y-190945D01*
Y-175202D01*
X1021649Y-190945D02*
X1026896D01*
X1024272D01*
Y-180450D01*
X1021649D01*
X1034768Y-190945D02*
Y-180450D01*
X1037391D01*
X1040015Y-183073D01*
Y-190945D01*
Y-183073D01*
X1042639Y-180450D01*
X1045263Y-183073D01*
Y-190945D01*
X1050511Y-175202D02*
Y-185697D01*
X1055758Y-190945D01*
X1061006Y-185697D01*
Y-175202D01*
X1076749Y-177826D02*
X1074125Y-175202D01*
X1068877D01*
X1066253Y-177826D01*
Y-188321D01*
X1068877Y-190945D01*
X1074125D01*
X1076749Y-188321D01*
Y-183073D01*
X1071501D01*
D13*
X131870Y45295D02*
G03*
X127165Y47244I-4705J-4705D01*
G01*
X134646Y42520D02*
G03*
X138448Y40945I3802J3802D01*
G01*
X66929Y45276D02*
G03*
X62177Y47244I-4752J-4752D01*
G01*
X66929Y45276D02*
G03*
X71681Y43307I4752J4752D01*
G01*
X87767D02*
G03*
X92520Y45276I0J6721D01*
G01*
X97272Y47244D02*
G03*
X92520Y45276I0J-6721D01*
G01*
Y1969D02*
G03*
X97272Y0I4752J4752D01*
G01*
X92520Y1969D02*
G03*
X87767Y3937I-4752J-4752D01*
G01*
X71681D02*
G03*
X66929Y1969I0J-6721D01*
G01*
X62177Y0D02*
G03*
X66929Y1969I0J6721D01*
G01*
X182677Y0D02*
G03*
X184693Y835I0J2851D01*
G01*
X186498Y2640D02*
G03*
X188177Y6694I-4054J4054D01*
G01*
X188976Y21772D02*
G03*
X185441Y30307I-12071J0D01*
G01*
X178339Y37409D02*
G03*
X169803Y40945I-8535J-8535D01*
G01*
X97272Y47244D02*
X127165D01*
X131870Y45295D02*
X134646Y42520D01*
X138448Y40945D02*
X169803D01*
X0Y0D02*
Y47244D01*
X71681Y43307D02*
X87767D01*
X0Y47244D02*
X62177D01*
X0Y0D02*
X62177D01*
X71681Y3937D02*
X87767D01*
X97272Y0D02*
X182677D01*
X184693Y835D02*
X186221Y2362D01*
X188177Y6694D02*
X188976Y16142D01*
X186221Y2362D02*
X186498Y2640D01*
X188976Y16142D02*
Y21772D01*
X178339Y37409D02*
X185441Y30307D01*
X-196850Y-196850D02*
X1456693D01*
X-196850D02*
Y972441D01*
X1456693Y-196850D02*
Y972441D01*
X-196850D02*
X1456693D01*
X1181102Y-196850D02*
Y-39370D01*
X984252Y-196850D02*
Y-39370D01*
X1456693D01*
X984252Y-157480D02*
X1456693D01*
X1181102Y-118110D02*
X1456693D01*
X1181102Y-78740D02*
X1456693D01*
X1338583Y-157480D02*
Y-118110D01*
X1194881Y-183073D02*
X1190945D01*
Y-186025D01*
X1192913D01*
X1190945D01*
Y-188976D01*
X1196848D02*
Y-185041D01*
X1198816Y-183073D01*
X1200784Y-185041D01*
Y-188976D01*
Y-186025D01*
X1196848D01*
X1202752Y-183073D02*
Y-188976D01*
X1205704D01*
X1206688Y-187993D01*
Y-187009D01*
X1205704Y-186025D01*
X1202752D01*
X1205704D01*
X1206688Y-185041D01*
Y-184057D01*
X1205704Y-183073D01*
X1202752D01*
X1208656D02*
Y-188976D01*
X1212591D01*
X1214559D02*
Y-185041D01*
X1216527Y-183073D01*
X1218495Y-185041D01*
Y-188976D01*
Y-186025D01*
X1214559D01*
X1220463Y-183073D02*
Y-188976D01*
X1223415D01*
X1224399Y-187993D01*
Y-187009D01*
X1223415Y-186025D01*
X1220463D01*
X1223415D01*
X1224399Y-185041D01*
Y-184057D01*
X1223415Y-183073D01*
X1220463D01*
X1226367Y-189960D02*
X1230302D01*
X1232270Y-183073D02*
Y-188976D01*
X1235222D01*
X1236206Y-187993D01*
Y-187009D01*
X1235222Y-186025D01*
X1232270D01*
X1235222D01*
X1236206Y-185041D01*
Y-184057D01*
X1235222Y-183073D01*
X1232270D01*
X1241125D02*
X1239158D01*
X1238174Y-184057D01*
Y-187993D01*
X1239158Y-188976D01*
X1241125D01*
X1242109Y-187993D01*
Y-184057D01*
X1241125Y-183073D01*
X1244077D02*
X1248013D01*
X1246045D01*
Y-188976D01*
X1249981Y-189960D02*
X1253917D01*
X1255884Y-184057D02*
X1256868Y-183073D01*
X1258836D01*
X1259820Y-184057D01*
Y-187993D01*
X1258836Y-188976D01*
X1256868D01*
X1255884Y-187993D01*
Y-184057D01*
X1261788Y-188976D02*
X1263756D01*
X1262772D01*
Y-183073D01*
X1261788Y-184057D01*
X1266708Y-188976D02*
Y-187993D01*
X1267692D01*
Y-188976D01*
X1266708D01*
X1271627D02*
Y-183073D01*
X1274579D01*
X1275563Y-184057D01*
Y-186025D01*
X1274579Y-187009D01*
X1271627D01*
X1281467Y-185041D02*
X1278515D01*
X1277531Y-186025D01*
Y-187993D01*
X1278515Y-188976D01*
X1281467D01*
X1283435Y-183073D02*
Y-188976D01*
X1286386D01*
X1287370Y-187993D01*
Y-187009D01*
Y-186025D01*
X1286386Y-185041D01*
X1283435D01*
X1289338Y-183073D02*
Y-188976D01*
X1292290D01*
X1293274Y-187993D01*
Y-184057D01*
X1292290Y-183073D01*
X1289338D01*
X1296226Y-188976D02*
X1298194D01*
X1299177Y-187993D01*
Y-186025D01*
X1298194Y-185041D01*
X1296226D01*
X1295242Y-186025D01*
Y-187993D01*
X1296226Y-188976D01*
X1305081Y-185041D02*
X1302129D01*
X1301145Y-186025D01*
Y-187993D01*
X1302129Y-188976D01*
X1305081D01*
D14*
X1185039Y-161420D02*
Y-169291D01*
X1188975D01*
X1190287Y-167979D01*
Y-162732D01*
X1188975Y-161420D01*
X1185039D01*
X1194223Y-169291D02*
X1196847D01*
X1198158Y-167979D01*
Y-165356D01*
X1196847Y-164044D01*
X1194223D01*
X1192911Y-165356D01*
Y-167979D01*
X1194223Y-169291D01*
X1206030Y-164044D02*
X1202094D01*
X1200782Y-165356D01*
Y-167979D01*
X1202094Y-169291D01*
X1206030D01*
X1208654Y-164044D02*
Y-167979D01*
X1209966Y-169291D01*
X1213902D01*
Y-164044D01*
X1216525Y-169291D02*
Y-164044D01*
X1217837D01*
X1219149Y-165356D01*
Y-169291D01*
Y-165356D01*
X1220461Y-164044D01*
X1221773Y-165356D01*
Y-169291D01*
X1228333D02*
X1225709D01*
X1224397Y-167979D01*
Y-165356D01*
X1225709Y-164044D01*
X1228333D01*
X1229644Y-165356D01*
Y-166667D01*
X1224397D01*
X1232268Y-169291D02*
Y-164044D01*
X1236204D01*
X1237516Y-165356D01*
Y-169291D01*
X1241452Y-162732D02*
Y-164044D01*
X1240140D01*
X1242764D01*
X1241452D01*
Y-167979D01*
X1242764Y-169291D01*
X1185039Y-122050D02*
Y-129921D01*
X1188975D01*
X1190287Y-128609D01*
Y-123362D01*
X1188975Y-122050D01*
X1185039D01*
X1194223Y-124674D02*
X1196847D01*
X1198158Y-125986D01*
Y-129921D01*
X1194223D01*
X1192911Y-128609D01*
X1194223Y-127297D01*
X1198158D01*
X1202094Y-123362D02*
Y-124674D01*
X1200782D01*
X1203406D01*
X1202094D01*
Y-128609D01*
X1203406Y-129921D01*
X1211278D02*
X1208654D01*
X1207342Y-128609D01*
Y-125986D01*
X1208654Y-124674D01*
X1211278D01*
X1212589Y-125986D01*
Y-127297D01*
X1207342D01*
X1185039Y-82680D02*
Y-90551D01*
X1190287D01*
X1194223Y-85303D02*
X1196847D01*
X1198158Y-86615D01*
Y-90551D01*
X1194223D01*
X1192911Y-89239D01*
X1194223Y-87927D01*
X1198158D01*
X1200782Y-85303D02*
Y-89239D01*
X1202094Y-90551D01*
X1206030D01*
Y-91863D01*
X1204718Y-93175D01*
X1203406D01*
X1206030Y-90551D02*
Y-85303D01*
X1212590Y-90551D02*
X1209966D01*
X1208654Y-89239D01*
Y-86615D01*
X1209966Y-85303D01*
X1212590D01*
X1213902Y-86615D01*
Y-87927D01*
X1208654D01*
X1216525Y-85303D02*
Y-90551D01*
Y-87927D01*
X1217837Y-86615D01*
X1219149Y-85303D01*
X1220461D01*
X1232268Y-90551D02*
Y-82680D01*
X1237516Y-90551D01*
Y-82680D01*
X1241452Y-85303D02*
X1244075D01*
X1245387Y-86615D01*
Y-90551D01*
X1241452D01*
X1240140Y-89239D01*
X1241452Y-87927D01*
X1245387D01*
X1248011Y-90551D02*
Y-85303D01*
X1249323D01*
X1250635Y-86615D01*
Y-90551D01*
Y-86615D01*
X1251947Y-85303D01*
X1253259Y-86615D01*
Y-90551D01*
X1259818D02*
X1257195D01*
X1255883Y-89239D01*
Y-86615D01*
X1257195Y-85303D01*
X1259818D01*
X1261130Y-86615D01*
Y-87927D01*
X1255883D01*
X1185039Y-43310D02*
Y-51181D01*
X1188975D01*
X1190287Y-49869D01*
Y-44622D01*
X1188975Y-43310D01*
X1185039D01*
X1194223Y-51181D02*
X1196847D01*
X1198158Y-49869D01*
Y-47245D01*
X1196847Y-45933D01*
X1194223D01*
X1192911Y-47245D01*
Y-49869D01*
X1194223Y-51181D01*
X1206030Y-45933D02*
X1202094D01*
X1200782Y-47245D01*
Y-49869D01*
X1202094Y-51181D01*
X1206030D01*
X1208654Y-45933D02*
Y-49869D01*
X1209966Y-51181D01*
X1213902D01*
Y-45933D01*
X1216525Y-51181D02*
Y-45933D01*
X1217837D01*
X1219149Y-47245D01*
Y-51181D01*
Y-47245D01*
X1220461Y-45933D01*
X1221773Y-47245D01*
Y-51181D01*
X1228333D02*
X1225709D01*
X1224397Y-49869D01*
Y-47245D01*
X1225709Y-45933D01*
X1228333D01*
X1229644Y-47245D01*
Y-48557D01*
X1224397D01*
X1232268Y-51181D02*
Y-45933D01*
X1236204D01*
X1237516Y-47245D01*
Y-51181D01*
X1241452Y-44622D02*
Y-45933D01*
X1240140D01*
X1242764D01*
X1241452D01*
Y-49869D01*
X1242764Y-51181D01*
X988189Y-161420D02*
Y-169291D01*
X992125D01*
X993437Y-167979D01*
Y-162732D01*
X992125Y-161420D01*
X988189D01*
X999996Y-169291D02*
X997372D01*
X996060Y-167979D01*
Y-165356D01*
X997372Y-164044D01*
X999996D01*
X1001308Y-165356D01*
Y-166667D01*
X996060D01*
X1003932Y-169291D02*
X1007868D01*
X1009180Y-167979D01*
X1007868Y-166667D01*
X1005244D01*
X1003932Y-165356D01*
X1005244Y-164044D01*
X1009180D01*
X1014427Y-171915D02*
X1015739D01*
X1017051Y-170603D01*
Y-164044D01*
X1013115D01*
X1011803Y-165356D01*
Y-167979D01*
X1013115Y-169291D01*
X1017051D01*
X1019675D02*
X1022299D01*
X1020987D01*
Y-164044D01*
X1019675D01*
X1026235Y-169291D02*
Y-164044D01*
X1030170D01*
X1031482Y-165356D01*
Y-169291D01*
X1038042D02*
X1035418D01*
X1034106Y-167979D01*
Y-165356D01*
X1035418Y-164044D01*
X1038042D01*
X1039354Y-165356D01*
Y-166667D01*
X1034106D01*
X1041977Y-164044D02*
Y-169291D01*
Y-166667D01*
X1043289Y-165356D01*
X1044601Y-164044D01*
X1045913D01*
X1342520Y-129921D02*
Y-122050D01*
X1346455D01*
X1347767Y-123362D01*
Y-125986D01*
X1346455Y-127297D01*
X1342520D01*
X1345144D02*
X1347767Y-129921D01*
X1354327D02*
X1351703D01*
X1350391Y-128609D01*
Y-125986D01*
X1351703Y-124674D01*
X1354327D01*
X1355639Y-125986D01*
Y-127297D01*
X1350391D01*
X1358263Y-124674D02*
X1360886Y-129921D01*
X1363510Y-124674D01*
D15*
X111290Y16662D02*
D03*
D16*
X97370Y30582D02*
D03*
D17*
X161417Y37008D02*
D03*
D18*
X141732D02*
D03*
X151575D02*
D03*
Y24016D02*
D03*
X141732D02*
D03*
X161417D02*
D03*
D19*
X68504Y28622D02*
D03*
Y18622D02*
D03*
D20*
X65354Y23622D02*
D03*
D21*
X104331Y17717D02*
D03*
Y29528D02*
D03*
D22*
X80709Y37402D02*
D03*
Y9843D02*
D03*
X176772Y29921D02*
D03*
D23*
X129921Y14764D02*
D03*
Y6496D02*
D03*
M02*
